<svg
    xmlns="http://www.w3.org/2000/svg"
    viewBox="0 0 3220 3220"
    id="vector">
    <path
        id="path"
        d="M 1987 2684 C 1983 2680 1980 2666 1980 2654 C 1980 2636 1972 2629 1948 2622 C 1906 2611 1906 2589 1947 2578 C 1972 2572 1979 2564 1982 2542 C 1986 2505 2013 2507 2020 2545 C 2024 2569 2031 2576 2055 2580 C 2072 2583 2085 2591 2085 2600 C 2085 2609 2072 2617 2055 2620 C 2032 2624 2024 2631 2020 2654 C 2015 2683 2000 2697 1987 2684 Z"
        fill="#3375c1"
        stroke-width="1"/>
    <path
        id="path_1"
        d="M 2586 2558 C 2577 2546 2570 2529 2570 2520 C 2570 2511 2577 2494 2586 2482 C 2617 2437 2690 2465 2690 2522 C 2690 2575 2616 2601 2586 2558 Z"
        fill="#3375c1"
        stroke-width="1"/>
    <path
        id="path_2"
        d="M 427 2513 C 423 2510 425 2501 431 2493 C 440 2484 439 2476 431 2466 C 416 2448 436 2432 453 2449 C 460 2456 467 2456 476 2449 C 495 2433 514 2448 499 2466 C 490 2477 490 2483 499 2494 C 515 2513 495 2526 475 2510 C 466 2503 460 2502 455 2510 C 448 2521 436 2523 427 2513 Z"
        fill="#3375c1"
        stroke-width="1"/>
    <path
        id="path_3"
        d="M 1142 2484 C 1126 2473 1120 2459 1120 2432 C 1120 2374 1142 2350 1195 2350 C 1246 2350 1270 2374 1270 2427 C 1270 2490 1197 2523 1142 2484 Z M 1215 2452 C 1233 2440 1226 2408 1204 2400 C 1170 2387 1147 2418 1171 2446 C 1184 2461 1199 2464 1215 2452 Z"
        fill="#3375c1"
        stroke-width="1"/>
    <path
        id="path_4"
        d="M 1491 2274 C 1289 2220 1118 2047 1065 1843 C 1045 1768 1046 1614 1066 1536 C 1118 1333 1293 1158 1496 1106 C 1575 1086 1728 1085 1805 1105 C 1913 1133 1989 1178 2075 1265 C 2200 1390 2250 1511 2250 1690 C 2250 1869 2200 1990 2075 2115 C 1988 2202 1913 2246 1804 2274 C 1727 2294 1564 2294 1491 2274 Z"
        fill="#3375c1"
        stroke-width="1"/>
    <path
        id="path_5"
        d="M 2390 2045 C 2390 2027 2385 2020 2371 2020 C 2361 2020 2350 2012 2348 2002 C 2344 1987 2347 1984 2367 1988 C 2388 1992 2391 1989 2388 1972 C 2387 1960 2388 1951 2393 1950 C 2423 1949 2428 1951 2423 1970 C 2419 1985 2423 1990 2439 1990 C 2451 1990 2460 1996 2460 2005 C 2460 2013 2451 2020 2440 2020 C 2427 2020 2420 2027 2420 2039 C 2420 2049 2413 2060 2405 2064 C 2394 2068 2390 2063 2390 2045 Z"
        fill="#3375c1"
        stroke-width="1"/>
    <path
        id="path_6"
        d="M 617 1932 C 602 1915 602 1912 616 1891 C 631 1871 631 1867 615 1850 C 581 1813 623 1781 660 1815 C 675 1829 678 1829 690 1815 C 706 1796 724 1796 740 1815 C 750 1828 750 1834 735 1850 C 718 1869 718 1871 733 1888 C 754 1911 754 1924 736 1939 C 726 1948 717 1946 699 1931 C 675 1912 675 1912 654 1931 C 634 1950 633 1950 617 1932 Z"
        fill="#3375c1"
        stroke-width="1"/>
    <path
        id="path_7"
        d="M 2747 1819 C 2725 1806 2726 1789 2750 1762 C 2761 1750 2770 1738 2770 1734 C 2770 1731 2761 1717 2750 1703 C 2720 1664 2724 1640 2760 1640 C 2777 1640 2790 1643 2790 1648 C 2790 1652 2799 1661 2811 1668 C 2829 1680 2834 1679 2847 1661 C 2866 1633 2920 1632 2920 1658 C 2920 1669 2911 1685 2900 1695 C 2875 1717 2875 1728 2900 1760 C 2925 1792 2925 1807 2900 1820 C 2883 1829 2875 1826 2854 1805 L 2828 1779 L 2796 1804 C 2772 1822 2760 1826 2747 1819 Z"
        fill="#3375c1"
        stroke-width="1"/>
    <path
        id="path_8"
        d="M 376 1471 C 274 1403 322 1250 445 1250 C 475 1250 490 1258 521 1289 C 553 1321 560 1334 560 1366 C 559 1437 508 1490 440 1490 C 421 1490 392 1481 376 1471 Z M 461 1419 C 488 1405 500 1370 487 1343 C 477 1320 464 1315 425 1319 C 385 1322 376 1389 412 1414 C 439 1433 436 1433 461 1419 Z"
        fill="#3375c1"
        stroke-width="1"/>
    <path
        id="path_9"
        d="M 2220 1045 C 2210 1032 2210 1026 2225 1010 C 2242 991 2242 989 2225 970 C 2191 933 2232 901 2270 935 C 2285 949 2288 949 2300 935 C 2316 916 2334 916 2350 935 C 2360 948 2359 954 2345 970 C 2327 990 2327 991 2348 1013 C 2365 1031 2367 1039 2358 1048 C 2341 1065 2315 1063 2300 1045 C 2288 1031 2285 1031 2270 1045 C 2249 1064 2236 1064 2220 1045 Z"
        fill="#3375c1"
        stroke-width="1"/>
    <path
        id="path_10"
        d="M 753 808 C 753 773 755 769 773 774 C 785 777 799 775 805 770 C 811 765 822 765 830 770 C 842 777 842 781 830 795 C 819 809 819 813 829 820 C 852 834 831 849 791 848 C 753 848 753 847 753 808 Z"
        fill="#3375c1"
        stroke-width="1"/>
    <path
        id="path_11"
        d="M 1336 738 C 1296 682 1330 610 1395 610 C 1417 610 1438 618 1450 630 C 1462 642 1470 663 1470 685 C 1470 733 1441 760 1391 760 C 1361 760 1347 754 1336 738 Z M 1416 687 C 1417 672 1413 659 1409 659 C 1380 655 1374 656 1369 670 C 1362 687 1388 722 1404 717 C 1410 715 1415 701 1416 687 Z"
        fill="#3375c1"
        stroke-width="1"/>
    <path
        id="path_12"
        d="M 1796 742 C 1794 738 1795 728 1800 720 C 1805 711 1805 701 1799 694 C 1785 677 1807 665 1825 680 C 1833 687 1840 687 1844 681 C 1848 675 1857 673 1865 676 C 1873 680 1877 687 1873 694 C 1869 700 1867 715 1869 728 C 1870 743 1866 750 1856 750 C 1847 750 1840 745 1840 738 C 1840 729 1837 729 1828 738 C 1814 752 1803 753 1796 742 Z"
        fill="#3375c1"
        stroke-width="1"/>
    <path
        id="path_13"
        d="M 2267 572 C 2245 548 2246 507 2268 487 C 2308 451 2370 478 2370 532 C 2370 583 2301 610 2267 572 Z M 2329 546 C 2338 535 2337 528 2324 515 C 2309 500 2306 500 2292 514 C 2279 526 2279 532 2290 544 C 2305 564 2314 564 2329 546 Z"
        fill="#3375c1"
        stroke-width="1"/>
    <path
        id="path_14"
        d="M 1987 2684 C 1983 2680 1980 2665 1980 2651 C 1980 2629 1975 2624 1953 2622 C 1899 2618 1897 2585 1950 2578 C 1969 2576 1976 2568 1980 2545 C 1987 2504 2014 2505 2018 2547 C 2021 2575 2025 2579 2053 2582 C 2073 2584 2085 2590 2085 2600 C 2085 2610 2073 2616 2053 2618 C 2026 2621 2021 2625 2018 2652 C 2015 2683 2001 2697 1987 2684 Z"
        fill="#5d9198"
        stroke-width="1"/>
    <path
        id="path_15"
        d="M 2590 2560 C 2579 2549 2570 2531 2570 2520 C 2570 2493 2605 2460 2633 2460 C 2683 2460 2709 2530 2672 2563 C 2647 2586 2614 2584 2590 2560 Z M 2650 2534 C 2661 2522 2660 2516 2647 2502 C 2631 2487 2629 2487 2613 2502 C 2600 2516 2599 2522 2610 2534 C 2617 2543 2626 2550 2630 2550 C 2634 2550 2643 2543 2650 2534 Z"
        fill="#5d9198"
        stroke-width="1"/>
    <path
        id="path_16"
        d="M 433 2480 C 433 2441 442 2429 455 2450 C 460 2458 466 2457 475 2450 C 495 2434 515 2447 499 2466 C 490 2477 490 2483 499 2494 C 515 2513 495 2526 475 2510 C 466 2503 460 2502 455 2510 C 442 2531 433 2519 433 2480 Z"
        fill="#5d9198"
        stroke-width="1"/>
    <path
        id="path_17"
        d="M 1142 2484 C 1113 2464 1111 2399 1140 2370 C 1169 2341 1234 2343 1254 2372 C 1276 2403 1274 2456 1250 2480 C 1226 2504 1173 2506 1142 2484 Z M 1214 2454 C 1236 2446 1234 2413 1211 2400 C 1172 2380 1142 2418 1172 2448 C 1186 2462 1192 2462 1214 2454 Z"
        fill="#5d9198"
        stroke-width="1"/>
    <path
        id="path_18"
        d="M 1491 2274 C 1289 2220 1118 2047 1065 1843 C 1045 1768 1046 1614 1066 1536 C 1118 1333 1293 1158 1496 1106 C 1575 1086 1728 1085 1805 1105 C 1913 1133 1989 1178 2075 1265 C 2200 1390 2250 1511 2250 1690 C 2250 1869 2200 1990 2075 2115 C 1988 2202 1913 2246 1804 2274 C 1727 2294 1564 2294 1491 2274 Z"
        fill="#5d9198"
        stroke-width="1"/>
    <path
        id="path_19"
        d="M 2390 2045 C 2390 2027 2385 2020 2370 2020 C 2359 2020 2350 2013 2350 2005 C 2350 1997 2359 1990 2370 1990 C 2383 1990 2390 1983 2390 1970 C 2390 1959 2397 1950 2405 1950 C 2413 1950 2420 1959 2420 1970 C 2420 1983 2427 1990 2440 1990 C 2451 1990 2460 1997 2460 2005 C 2460 2013 2451 2020 2440 2020 C 2427 2020 2420 2027 2420 2039 C 2420 2049 2413 2060 2405 2064 C 2394 2068 2390 2063 2390 2045 Z"
        fill="#5d9198"
        stroke-width="1"/>
    <path
        id="path_20"
        d="M 617 1932 C 602 1915 602 1912 616 1891 C 631 1871 631 1867 615 1850 C 605 1839 600 1824 603 1815 C 611 1796 644 1796 660 1815 C 672 1829 675 1829 691 1814 C 725 1784 760 1826 728 1858 C 719 1867 720 1874 733 1888 C 754 1911 754 1924 736 1939 C 726 1948 717 1946 699 1931 C 675 1912 675 1912 654 1931 C 634 1950 633 1950 617 1932 Z"
        fill="#5d9198"
        stroke-width="1"/>
    <path
        id="path_21"
        d="M 2746 1814 C 2725 1794 2726 1790 2754 1757 L 2778 1729 L 2754 1703 C 2741 1689 2730 1669 2730 1659 C 2730 1633 2772 1634 2795 1660 C 2805 1671 2818 1680 2824 1680 C 2831 1680 2842 1671 2850 1660 C 2867 1636 2908 1634 2917 1656 C 2920 1664 2913 1681 2901 1694 C 2875 1722 2874 1738 2900 1765 C 2912 1778 2918 1794 2914 1803 C 2905 1827 2863 1824 2850 1800 C 2840 1781 2810 1772 2810 1788 C 2810 1792 2799 1803 2785 1812 C 2764 1828 2760 1828 2746 1814 Z"
        fill="#5d9198"
        stroke-width="1"/>
    <path
        id="path_22"
        d="M 362 1456 C 328 1425 325 1417 325 1370 C 325 1323 328 1315 362 1284 C 392 1257 408 1250 441 1250 C 476 1250 489 1256 522 1290 C 560 1328 562 1333 557 1377 C 553 1415 545 1431 516 1457 C 465 1504 414 1503 362 1456 Z M 470 1420 C 490 1409 503 1369 494 1345 C 485 1322 445 1309 416 1319 C 388 1330 377 1365 392 1394 C 411 1430 435 1439 470 1420 Z"
        fill="#5d9198"
        stroke-width="1"/>
    <path
        id="path_23"
        d="M 2222 1047 C 2213 1037 2215 1028 2226 1011 C 2241 991 2241 987 2225 970 C 2191 933 2233 901 2270 935 C 2285 949 2288 949 2300 935 C 2329 900 2370 932 2344 969 C 2329 989 2329 993 2345 1010 C 2355 1021 2360 1036 2357 1045 C 2349 1064 2316 1064 2300 1045 C 2288 1031 2285 1031 2270 1045 C 2250 1063 2236 1064 2222 1047 Z"
        fill="#5d9198"
        stroke-width="1"/>
    <path
        id="path_24"
        d="M 753 811 L 753 773 L 796 772 C 841 772 849 777 828 798 C 820 806 820 813 830 825 C 845 843 846 842 794 845 L 753 848 L 753 811 Z"
        fill="#5d9198"
        stroke-width="1"/>
    <path
        id="path_25"
        d="M 1336 738 C 1296 682 1330 610 1395 610 C 1417 610 1438 618 1450 630 C 1462 642 1470 663 1470 685 C 1470 733 1441 760 1391 760 C 1361 760 1347 754 1336 738 Z M 1419 702 C 1431 680 1420 660 1394 656 C 1369 652 1359 681 1378 703 C 1397 725 1407 725 1419 702 Z"
        fill="#5d9198"
        stroke-width="1"/>
    <path
        id="path_26"
        d="M 1840 741 C 1840 736 1830 734 1818 738 C 1801 742 1798 740 1803 725 C 1807 716 1806 702 1800 695 C 1785 677 1806 664 1825 680 C 1834 688 1840 688 1845 680 C 1856 662 1867 678 1868 715 C 1869 740 1865 750 1855 750 C 1847 750 1840 746 1840 741 Z"
        fill="#5d9198"
        stroke-width="1"/>
    <path
        id="path_27"
        d="M 2270 570 C 2259 559 2250 541 2250 530 C 2250 503 2285 470 2313 470 C 2342 470 2370 499 2370 528 C 2370 556 2336 590 2310 590 C 2299 590 2281 581 2270 570 Z M 2330 544 C 2341 532 2340 526 2327 512 C 2311 497 2309 497 2293 512 C 2280 526 2279 532 2290 544 C 2297 553 2306 560 2310 560 C 2314 560 2323 553 2330 544 Z"
        fill="#5d9198"
        stroke-width="1"/>
    <path
        id="path_28"
        d="M 2590 2560 C 2579 2549 2570 2531 2570 2520 C 2570 2493 2605 2460 2633 2460 C 2683 2460 2709 2530 2672 2563 C 2647 2586 2614 2584 2590 2560 Z M 2650 2534 C 2661 2522 2660 2516 2647 2502 C 2631 2487 2629 2487 2613 2502 C 2600 2516 2599 2522 2610 2534 C 2617 2543 2626 2550 2630 2550 C 2634 2550 2643 2543 2650 2534 Z"
        fill="#e25b58"
        stroke-width="1"/>
    <path
        id="path_29"
        d="M 433 2480 C 433 2441 442 2429 455 2450 C 460 2458 466 2457 475 2450 C 495 2434 515 2447 499 2466 C 490 2477 490 2483 499 2494 C 515 2513 495 2526 475 2510 C 466 2503 460 2502 455 2510 C 442 2531 433 2519 433 2480 Z"
        fill="#e25b58"
        stroke-width="1"/>
    <path
        id="path_30"
        d="M 1145 2475 C 1131 2462 1120 2439 1120 2425 C 1120 2392 1162 2350 1195 2350 C 1228 2350 1270 2392 1270 2425 C 1270 2439 1259 2462 1245 2475 C 1232 2489 1209 2500 1195 2500 C 1181 2500 1158 2489 1145 2475 Z M 1225 2449 C 1229 2444 1229 2428 1226 2414 C 1221 2397 1213 2390 1195 2390 C 1166 2390 1156 2404 1164 2436 C 1169 2453 1177 2460 1195 2460 C 1208 2460 1222 2455 1225 2449 Z"
        fill="#e25b58"
        stroke-width="1"/>
    <path
        id="path_31"
        d="M 1492 2274 C 1289 2220 1118 2047 1065 1843 C 1045 1768 1046 1614 1066 1536 C 1118 1333 1293 1158 1496 1106 C 1575 1086 1728 1085 1805 1105 C 1913 1133 1989 1178 2075 1265 C 2200 1390 2250 1511 2250 1690 C 2250 1869 2200 1990 2075 2115 C 1988 2202 1913 2246 1804 2274 C 1727 2294 1564 2294 1492 2274 Z"
        fill="#e25b58"
        stroke-width="1"/>
    <path
        id="path_32"
        d="M 2393 2040 C 2390 2029 2379 2020 2369 2020 C 2358 2020 2350 2013 2350 2005 C 2350 1997 2358 1990 2369 1990 C 2380 1990 2390 1981 2393 1969 C 2399 1946 2420 1952 2420 1976 C 2420 1984 2429 1990 2440 1990 C 2451 1990 2460 1997 2460 2005 C 2460 2013 2451 2020 2440 2020 C 2427 2020 2420 2027 2420 2040 C 2420 2051 2415 2060 2409 2060 C 2403 2060 2396 2051 2393 2040 Z"
        fill="#e25b58"
        stroke-width="1"/>
    <path
        id="path_33"
        d="M 613 1925 C 610 1916 616 1900 625 1890 C 642 1871 642 1869 627 1852 C 593 1815 618 1785 654 1819 C 676 1840 677 1840 694 1821 C 712 1801 740 1803 740 1823 C 740 1829 733 1842 723 1852 C 708 1869 708 1871 723 1888 C 757 1925 732 1955 696 1921 L 673 1900 L 655 1920 C 633 1944 621 1945 613 1925 Z"
        fill="#e25b58"
        stroke-width="1"/>
    <path
        id="path_34"
        d="M 362 1456 C 328 1425 325 1417 325 1370 C 325 1323 328 1315 362 1284 C 392 1257 408 1250 441 1250 C 476 1250 489 1256 522 1290 C 560 1328 562 1333 557 1377 C 553 1415 545 1431 516 1457 C 465 1504 414 1503 362 1456 Z M 470 1420 C 490 1409 503 1369 494 1345 C 485 1322 445 1309 416 1319 C 388 1330 377 1365 392 1394 C 411 1430 435 1439 470 1420 Z"
        fill="#e25b58"
        stroke-width="1"/>
    <path
        id="path_35"
        d="M 2233 1053 C 2215 1047 2217 1030 2237 1008 C 2252 991 2252 989 2237 972 C 2203 935 2228 905 2264 939 C 2286 960 2287 960 2304 941 C 2322 921 2350 923 2350 943 C 2350 949 2343 962 2333 972 C 2318 989 2318 991 2335 1010 C 2352 1029 2350 1060 2332 1060 C 2327 1060 2315 1051 2305 1040 C 2287 1020 2286 1020 2266 1039 C 2254 1049 2239 1055 2233 1053 Z"
        fill="#e25b58"
        stroke-width="1"/>
    <path
        id="path_36"
        d="M 757 843 C 753 840 755 831 761 823 C 770 814 769 806 761 796 C 745 777 765 764 785 780 C 794 787 800 788 805 780 C 818 759 827 771 827 810 C 827 851 822 858 803 839 C 795 831 790 831 786 839 C 778 851 766 853 757 843 Z"
        fill="#e25b58"
        stroke-width="1"/>
    <path
        id="path_37"
        d="M 1345 735 C 1331 722 1320 699 1320 685 C 1320 652 1362 610 1395 610 C 1428 610 1470 652 1470 685 C 1470 718 1428 760 1395 760 C 1381 760 1358 749 1345 735 Z M 1425 685 C 1425 658 1422 655 1395 655 C 1374 655 1364 660 1362 673 C 1356 706 1368 722 1397 718 C 1421 715 1425 710 1425 685 Z"
        fill="#e25b58"
        stroke-width="1"/>
    <path
        id="path_38"
        d="M 2270 570 C 2259 559 2250 541 2250 530 C 2250 503 2285 470 2313 470 C 2342 470 2370 499 2370 528 C 2370 556 2336 590 2310 590 C 2299 590 2281 581 2270 570 Z M 2330 544 C 2341 532 2340 526 2327 512 C 2311 497 2309 497 2293 512 C 2280 526 2279 532 2290 544 C 2297 553 2306 560 2310 560 C 2314 560 2323 553 2330 544 Z"
        fill="#e25b58"
        stroke-width="1"/>
    <path
        id="path_39"
        d="M 2590 2560 C 2579 2549 2570 2531 2570 2520 C 2570 2493 2605 2460 2633 2460 C 2683 2460 2709 2530 2672 2563 C 2647 2586 2614 2584 2590 2560 Z M 2650 2534 C 2661 2522 2660 2516 2647 2502 C 2631 2487 2629 2487 2613 2502 C 2600 2516 2599 2522 2610 2534 C 2617 2543 2626 2550 2630 2550 C 2634 2550 2643 2543 2650 2534 Z"
        fill="#ccb757"
        stroke-width="1"/>
    <path
        id="path_40"
        d="M 433 2480 C 433 2441 442 2429 455 2450 C 460 2458 466 2457 475 2450 C 495 2434 515 2447 499 2466 C 490 2477 490 2483 499 2494 C 515 2513 495 2526 475 2510 C 466 2503 460 2502 455 2510 C 442 2531 433 2519 433 2480 Z"
        fill="#ccb757"
        stroke-width="1"/>
    <path
        id="path_41"
        d="M 1145 2475 C 1131 2462 1120 2439 1120 2425 C 1120 2392 1162 2350 1195 2350 C 1228 2350 1270 2392 1270 2425 C 1270 2439 1259 2462 1245 2475 C 1232 2489 1209 2500 1195 2500 C 1181 2500 1158 2489 1145 2475 Z M 1225 2449 C 1229 2444 1229 2428 1226 2414 C 1221 2397 1213 2390 1195 2390 C 1166 2390 1156 2404 1164 2436 C 1169 2453 1177 2460 1195 2460 C 1208 2460 1222 2455 1225 2449 Z"
        fill="#ccb757"
        stroke-width="1"/>
    <path
        id="path_42"
        d="M 1570 2180 C 1540 2158 1515 2134 1515 2128 C 1515 2112 1638 2037 1650 2045 C 1656 2049 1660 2060 1660 2072 C 1660 2090 1665 2092 1704 2088 C 1729 2085 1778 2069 1814 2052 C 2068 1933 2115 1597 1904 1411 C 1880 1390 1860 1366 1860 1358 C 1860 1341 1880 1320 1896 1320 C 1921 1320 2018 1421 2050 1481 C 2152 1673 2123 1877 1970 2030 C 1896 2104 1823 2139 1688 2165 C 1666 2169 1660 2176 1660 2195 C 1660 2231 1635 2227 1570 2180 Z"
        fill="#ccb757"
        stroke-width="1"/>
    <path
        id="path_43"
        d="M 1327 2040 C 1180 1906 1139 1678 1230 1500 C 1260 1442 1361 1338 1420 1306 C 1476 1275 1558 1250 1603 1250 C 1625 1250 1630 1246 1630 1225 C 1630 1211 1636 1197 1644 1194 C 1660 1188 1775 1266 1775 1283 C 1775 1299 1652 1383 1640 1375 C 1635 1372 1630 1357 1630 1343 C 1630 1318 1629 1317 1583 1324 C 1506 1334 1419 1383 1357 1450 C 1282 1530 1256 1597 1256 1711 C 1256 1791 1259 1804 1293 1873 C 1318 1924 1347 1963 1380 1993 C 1431 2039 1443 2073 1414 2084 C 1388 2094 1384 2092 1327 2040 Z"
        fill="#ccb757"
        stroke-width="1"/>
    <path
        id="path_44"
        d="M 2393 2040 C 2390 2029 2379 2020 2369 2020 C 2358 2020 2350 2013 2350 2005 C 2350 1997 2358 1990 2369 1990 C 2380 1990 2390 1981 2393 1969 C 2399 1946 2420 1952 2420 1976 C 2420 1984 2429 1990 2440 1990 C 2451 1990 2460 1997 2460 2005 C 2460 2013 2451 2020 2440 2020 C 2427 2020 2420 2027 2420 2040 C 2420 2051 2415 2060 2409 2060 C 2403 2060 2396 2051 2393 2040 Z"
        fill="#ccb757"
        stroke-width="1"/>
    <path
        id="path_45"
        d="M 613 1925 C 610 1916 616 1900 625 1890 C 642 1871 642 1869 627 1852 C 593 1815 618 1785 654 1819 C 676 1840 677 1840 694 1821 C 712 1801 740 1803 740 1823 C 740 1829 733 1842 723 1852 C 708 1869 708 1871 723 1888 C 757 1925 732 1955 696 1921 L 673 1900 L 655 1920 C 633 1944 621 1945 613 1925 Z"
        fill="#ccb757"
        stroke-width="1"/>
    <path
        id="path_46"
        d="M 1638 1899 C 1591 1872 1637 1806 1686 1829 C 1716 1842 1719 1885 1691 1900 C 1667 1912 1660 1912 1638 1899 Z"
        fill="#ccb757"
        stroke-width="1"/>
    <path
        id="path_47"
        d="M 1642 1777 C 1625 1757 1615 1553 1630 1535 C 1649 1512 1697 1516 1705 1541 C 1714 1567 1700 1750 1688 1773 C 1678 1793 1657 1795 1642 1777 Z"
        fill="#ccb757"
        stroke-width="1"/>
    <path
        id="path_48"
        d="M 362 1456 C 328 1425 325 1417 325 1370 C 325 1323 328 1315 362 1284 C 392 1257 408 1250 441 1250 C 476 1250 489 1256 522 1290 C 560 1328 562 1333 557 1377 C 553 1415 545 1431 516 1457 C 465 1504 414 1503 362 1456 Z M 470 1420 C 490 1409 503 1369 494 1345 C 485 1322 445 1309 416 1319 C 388 1330 377 1365 392 1394 C 411 1430 435 1439 470 1420 Z"
        fill="#ccb757"
        stroke-width="1"/>
    <path
        id="path_49"
        d="M 2233 1053 C 2215 1047 2217 1030 2237 1008 C 2252 991 2252 989 2237 972 C 2203 935 2228 905 2264 939 C 2286 960 2287 960 2304 941 C 2322 921 2350 923 2350 943 C 2350 949 2343 962 2333 972 C 2318 989 2318 991 2335 1010 C 2352 1029 2350 1060 2332 1060 C 2327 1060 2315 1051 2305 1040 C 2287 1020 2286 1020 2266 1039 C 2254 1049 2239 1055 2233 1053 Z"
        fill="#ccb757"
        stroke-width="1"/>
    <path
        id="path_50"
        d="M 757 843 C 753 840 755 831 761 823 C 770 814 769 806 761 796 C 745 777 765 764 785 780 C 794 787 800 788 805 780 C 818 759 827 771 827 810 C 827 851 822 858 803 839 C 795 831 790 831 786 839 C 778 851 766 853 757 843 Z"
        fill="#ccb757"
        stroke-width="1"/>
    <path
        id="path_51"
        d="M 1345 735 C 1331 722 1320 699 1320 685 C 1320 652 1362 610 1395 610 C 1428 610 1470 652 1470 685 C 1470 718 1428 760 1395 760 C 1381 760 1358 749 1345 735 Z M 1425 685 C 1425 658 1422 655 1395 655 C 1374 655 1364 660 1362 673 C 1356 706 1368 722 1397 718 C 1421 715 1425 710 1425 685 Z"
        fill="#ccb757"
        stroke-width="1"/>
    <path
        id="path_52"
        d="M 2270 570 C 2259 559 2250 541 2250 530 C 2250 503 2285 470 2313 470 C 2342 470 2370 499 2370 528 C 2370 556 2336 590 2310 590 C 2299 590 2281 581 2270 570 Z M 2330 544 C 2341 532 2340 526 2327 512 C 2311 497 2309 497 2293 512 C 2280 526 2279 532 2290 544 C 2297 553 2306 560 2310 560 C 2314 560 2323 553 2330 544 Z"
        fill="#ccb757"
        stroke-width="1"/>
    <path
        id="path_53"
        d="M 2590 2560 C 2579 2549 2570 2531 2570 2520 C 2570 2493 2605 2460 2633 2460 C 2683 2460 2709 2530 2672 2563 C 2647 2586 2614 2584 2590 2560 Z M 2650 2534 C 2661 2522 2660 2516 2647 2502 C 2631 2487 2629 2487 2613 2502 C 2600 2516 2599 2522 2610 2534 C 2617 2543 2626 2550 2630 2550 C 2634 2550 2643 2543 2650 2534 Z"
        fill="#cfe537"
        stroke-width="1"/>
    <path
        id="path_54"
        d="M 433 2480 C 433 2441 442 2429 455 2450 C 460 2458 466 2457 475 2450 C 495 2434 515 2447 499 2466 C 490 2477 490 2483 499 2494 C 515 2513 495 2526 475 2510 C 466 2503 460 2502 455 2510 C 442 2531 433 2519 433 2480 Z"
        fill="#cfe537"
        stroke-width="1"/>
    <path
        id="path_55"
        d="M 1170 2491 C 1113 2475 1109 2388 1164 2362 C 1223 2333 1285 2390 1259 2452 C 1250 2475 1209 2506 1197 2499 C 1196 2498 1184 2495 1170 2491 Z M 1225 2425 C 1225 2398 1222 2395 1195 2395 C 1174 2395 1164 2400 1162 2413 C 1156 2446 1168 2462 1197 2458 C 1221 2455 1225 2450 1225 2425 Z"
        fill="#cfe537"
        stroke-width="1"/>
    <path
        id="path_56"
        d="M 1570 2180 C 1540 2158 1515 2134 1515 2128 C 1515 2112 1638 2037 1650 2045 C 1656 2049 1660 2060 1660 2072 C 1660 2090 1665 2092 1704 2088 C 1729 2085 1778 2069 1814 2052 C 2068 1933 2115 1597 1904 1411 C 1880 1390 1860 1366 1860 1358 C 1860 1341 1880 1320 1896 1320 C 1921 1320 2018 1421 2050 1481 C 2152 1673 2123 1877 1970 2030 C 1896 2104 1823 2139 1688 2165 C 1666 2169 1660 2176 1660 2195 C 1660 2231 1635 2227 1570 2180 Z"
        fill="#cfe537"
        stroke-width="1"/>
    <path
        id="path_57"
        d="M 1327 2040 C 1180 1906 1139 1678 1230 1500 C 1260 1442 1361 1338 1420 1306 C 1476 1275 1558 1250 1603 1250 C 1625 1250 1630 1246 1630 1225 C 1630 1211 1636 1197 1644 1194 C 1660 1188 1775 1266 1775 1283 C 1775 1299 1652 1383 1640 1375 C 1635 1372 1630 1357 1630 1343 C 1630 1318 1629 1317 1583 1324 C 1506 1334 1419 1383 1357 1450 C 1282 1530 1256 1597 1256 1711 C 1256 1791 1259 1804 1293 1873 C 1318 1924 1347 1963 1380 1993 C 1431 2039 1443 2073 1414 2084 C 1388 2094 1384 2092 1327 2040 Z"
        fill="#cfe537"
        stroke-width="1"/>
    <path
        id="path_58"
        d="M 2393 2041 C 2390 2029 2382 2020 2374 2020 C 2352 2020 2347 1999 2368 1993 C 2379 1991 2391 1979 2393 1968 C 2399 1947 2420 1952 2420 1974 C 2420 1982 2429 1990 2441 1993 C 2464 1999 2458 2020 2434 2020 C 2426 2020 2420 2026 2420 2034 C 2420 2058 2399 2064 2393 2041 Z"
        fill="#cfe537"
        stroke-width="1"/>
    <path
        id="path_59"
        d="M 697 1920 C 675 1903 671 1902 660 1915 C 653 1923 642 1930 634 1930 C 612 1930 607 1910 626 1889 C 642 1871 642 1869 627 1852 C 593 1814 618 1785 654 1819 C 674 1838 678 1839 690 1825 C 697 1817 708 1810 716 1810 C 738 1810 743 1830 724 1851 C 708 1869 708 1871 723 1888 C 757 1925 736 1951 697 1920 Z"
        fill="#cfe537"
        stroke-width="1"/>
    <path
        id="path_60"
        d="M 1638 1899 C 1591 1872 1637 1806 1686 1829 C 1716 1842 1719 1885 1691 1900 C 1667 1912 1660 1912 1638 1899 Z"
        fill="#cfe537"
        stroke-width="1"/>
    <path
        id="path_61"
        d="M 1642 1777 C 1625 1757 1615 1553 1630 1535 C 1649 1512 1697 1516 1705 1541 C 1714 1567 1700 1750 1688 1773 C 1678 1793 1657 1795 1642 1777 Z"
        fill="#cfe537"
        stroke-width="1"/>
    <path
        id="path_62"
        d="M 362 1456 C 328 1425 325 1417 325 1370 C 325 1323 328 1315 362 1284 C 392 1257 408 1250 441 1250 C 476 1250 489 1256 522 1290 C 560 1328 562 1333 557 1377 C 553 1415 545 1431 516 1457 C 465 1504 414 1503 362 1456 Z M 470 1420 C 490 1409 503 1369 494 1345 C 485 1322 445 1309 416 1319 C 388 1330 377 1365 392 1394 C 411 1430 435 1439 470 1420 Z"
        fill="#cfe537"
        stroke-width="1"/>
    <path
        id="path_63"
        d="M 2305 1040 C 2289 1022 2285 1021 2270 1035 C 2237 1065 2206 1042 2236 1009 C 2252 991 2252 989 2237 972 C 2203 934 2228 905 2264 939 C 2284 958 2288 959 2300 945 C 2307 937 2318 930 2326 930 C 2348 930 2353 950 2334 971 C 2318 989 2318 991 2335 1010 C 2352 1029 2350 1060 2332 1060 C 2327 1060 2315 1051 2305 1040 Z"
        fill="#cfe537"
        stroke-width="1"/>
    <path
        id="path_64"
        d="M 763 810 C 763 777 765 772 776 781 C 787 790 794 789 805 780 C 814 773 823 770 827 773 C 830 777 827 786 820 795 C 810 807 810 813 820 825 C 837 845 825 857 805 840 C 794 831 787 830 776 839 C 765 848 763 843 763 810 Z"
        fill="#cfe537"
        stroke-width="1"/>
    <path
        id="path_65"
        d="M 1361 748 C 1310 721 1314 640 1366 619 C 1403 606 1442 620 1458 653 C 1488 715 1421 779 1361 748 Z M 1425 685 C 1425 658 1422 655 1395 655 C 1374 655 1364 660 1362 673 C 1356 706 1368 722 1397 718 C 1421 715 1425 710 1425 685 Z"
        fill="#cfe537"
        stroke-width="1"/>
    <path
        id="path_66"
        d="M 2270 570 C 2259 559 2250 541 2250 530 C 2250 503 2285 470 2313 470 C 2342 470 2370 499 2370 528 C 2370 556 2336 590 2310 590 C 2299 590 2281 581 2270 570 Z M 2330 544 C 2341 532 2340 526 2327 512 C 2311 497 2309 497 2293 512 C 2280 526 2279 532 2290 544 C 2297 553 2306 560 2310 560 C 2314 560 2323 553 2330 544 Z"
        fill="#cfe537"
        stroke-width="1"/>
    <path
        id="path_67"
        d="M 2590 2560 C 2579 2549 2570 2531 2570 2520 C 2570 2493 2605 2460 2633 2460 C 2683 2460 2709 2530 2672 2563 C 2647 2586 2614 2584 2590 2560 Z M 2650 2534 C 2661 2522 2660 2516 2647 2502 C 2631 2487 2629 2487 2613 2502 C 2600 2516 2599 2522 2610 2534 C 2617 2543 2626 2550 2630 2550 C 2634 2550 2643 2543 2650 2534 Z"
        fill="#3bbcfc"
        stroke-width="1"/>
    <path
        id="path_68"
        d="M 433 2480 C 433 2441 442 2429 455 2450 C 460 2458 466 2457 475 2450 C 495 2434 515 2447 499 2466 C 490 2477 490 2483 499 2494 C 515 2513 495 2526 475 2510 C 466 2503 460 2502 455 2510 C 442 2531 433 2519 433 2480 Z"
        fill="#3bbcfc"
        stroke-width="1"/>
    <path
        id="path_69"
        d="M 1570 2180 C 1540 2158 1515 2134 1515 2128 C 1515 2112 1638 2037 1650 2045 C 1656 2049 1660 2060 1660 2072 C 1660 2090 1665 2092 1704 2088 C 1729 2085 1778 2069 1814 2052 C 2068 1933 2115 1597 1904 1411 C 1880 1390 1860 1366 1860 1358 C 1860 1341 1880 1320 1896 1320 C 1921 1320 2018 1421 2050 1481 C 2152 1673 2123 1877 1970 2030 C 1896 2104 1823 2139 1688 2165 C 1666 2169 1660 2176 1660 2195 C 1660 2231 1635 2227 1570 2180 Z"
        fill="#3bbcfc"
        stroke-width="1"/>
    <path
        id="path_70"
        d="M 1327 2040 C 1180 1906 1139 1678 1230 1500 C 1260 1442 1361 1338 1420 1306 C 1476 1275 1558 1250 1603 1250 C 1625 1250 1630 1246 1630 1225 C 1630 1211 1636 1197 1644 1194 C 1660 1188 1775 1266 1775 1283 C 1775 1299 1652 1383 1640 1375 C 1635 1372 1630 1357 1630 1343 C 1630 1318 1629 1317 1583 1324 C 1506 1334 1419 1383 1357 1450 C 1282 1530 1256 1597 1256 1711 C 1256 1791 1259 1804 1293 1873 C 1318 1924 1347 1963 1380 1993 C 1431 2039 1443 2073 1414 2084 C 1388 2094 1384 2092 1327 2040 Z"
        fill="#3bbcfc"
        stroke-width="1"/>
    <path
        id="path_71"
        d="M 1638 1899 C 1591 1872 1637 1806 1686 1829 C 1716 1842 1719 1885 1691 1900 C 1667 1912 1660 1912 1638 1899 Z"
        fill="#3bbcfc"
        stroke-width="1"/>
    <path
        id="path_72"
        d="M 1642 1777 C 1625 1757 1615 1553 1630 1535 C 1649 1512 1697 1516 1705 1541 C 1714 1567 1700 1750 1688 1773 C 1678 1793 1657 1795 1642 1777 Z"
        fill="#3bbcfc"
        stroke-width="1"/>
    <path
        id="path_73"
        d="M 362 1456 C 328 1425 325 1417 325 1370 C 325 1323 328 1315 362 1284 C 392 1257 408 1250 441 1250 C 476 1250 489 1256 522 1290 C 560 1328 562 1333 557 1377 C 553 1415 545 1431 516 1457 C 465 1504 414 1503 362 1456 Z M 470 1420 C 490 1409 503 1369 494 1345 C 485 1322 445 1309 416 1319 C 388 1330 377 1365 392 1394 C 411 1430 435 1439 470 1420 Z"
        fill="#3bbcfc"
        stroke-width="1"/>
    <path
        id="path_74"
        d="M 2270 570 C 2259 559 2250 541 2250 530 C 2250 503 2285 470 2313 470 C 2342 470 2370 499 2370 528 C 2370 556 2336 590 2310 590 C 2299 590 2281 581 2270 570 Z M 2330 544 C 2341 532 2340 526 2327 512 C 2311 497 2309 497 2293 512 C 2280 526 2279 532 2290 544 C 2297 553 2306 560 2310 560 C 2314 560 2323 553 2330 544 Z"
        fill="#3bbcfc"
        stroke-width="1"/>
    <path
        id="path_75"
        d="M 1570 2180 C 1540 2158 1515 2134 1515 2128 C 1515 2112 1638 2037 1650 2045 C 1656 2049 1660 2060 1660 2072 C 1660 2090 1665 2092 1704 2088 C 1729 2085 1778 2069 1814 2052 C 2068 1933 2115 1597 1904 1411 C 1880 1390 1860 1366 1860 1358 C 1860 1341 1880 1320 1896 1320 C 1921 1320 2018 1421 2050 1481 C 2152 1673 2123 1877 1970 2030 C 1896 2104 1823 2139 1688 2165 C 1666 2169 1660 2176 1660 2195 C 1660 2231 1635 2227 1570 2180 Z"
        fill="#fdfcfb"
        stroke-width="1"/>
    <path
        id="path_76"
        d="M 1327 2040 C 1180 1906 1139 1678 1230 1500 C 1260 1442 1361 1338 1420 1306 C 1476 1275 1558 1250 1603 1250 C 1625 1250 1630 1246 1630 1225 C 1630 1211 1636 1197 1644 1194 C 1660 1188 1775 1266 1775 1283 C 1775 1299 1652 1383 1640 1375 C 1635 1372 1630 1357 1630 1343 C 1630 1318 1629 1317 1583 1324 C 1506 1334 1419 1383 1357 1450 C 1282 1530 1256 1597 1256 1711 C 1256 1791 1259 1804 1293 1873 C 1318 1924 1347 1963 1380 1993 C 1431 2039 1443 2073 1414 2084 C 1388 2094 1384 2092 1327 2040 Z"
        fill="#fdfcfb"
        stroke-width="1"/>
    <path
        id="path_77"
        d="M 1638 1899 C 1591 1872 1637 1806 1686 1829 C 1716 1842 1719 1885 1691 1900 C 1667 1912 1660 1912 1638 1899 Z"
        fill="#fdfcfb"
        stroke-width="1"/>
    <path
        id="path_78"
        d="M 1642 1777 C 1625 1757 1615 1553 1630 1535 C 1649 1512 1697 1516 1705 1541 C 1714 1567 1700 1750 1688 1773 C 1678 1793 1657 1795 1642 1777 Z"
        fill="#fdfcfb"
        stroke-width="1"/>
</svg>
