<svg xmlns="http://www.w3.org/2000/svg" viewBox="0 0 3220 3220" id="vector">
    <path id="path" d="M -1 -1 L 581 -1 L 581 401 L -1 401 L -1 -1 Z" fill="none" />
    <path id="path_1"
        d="M 2290 3135 C 2290 3124 2318 3100 2330 3100 C 2351 3100 2335 3135 2312 3138 C 2300 3140 2290 3139 2290 3135 Z"
        fill="#5d8f9c" />
    <path id="path_2"
        d="M 1980 2651 C 1980 2625 1976 2621 1948 2618 C 1927 2616 1915 2610 1915 2600 C 1915 2590 1927 2584 1948 2582 C 1976 2579 1980 2575 1980 2549 C 1980 2527 1985 2520 2000 2520 C 2015 2520 2020 2527 2020 2549 C 2020 2575 2024 2579 2053 2582 C 2073 2584 2085 2590 2085 2600 C 2085 2610 2073 2616 2053 2618 C 2024 2621 2020 2625 2020 2651 C 2020 2673 2015 2680 2000 2680 C 1985 2680 1980 2673 1980 2651 Z"
        fill="#5d8f9c" />
    <path id="path_3"
        d="M 2586 2558 C 2577 2546 2570 2529 2570 2520 C 2570 2511 2577 2494 2586 2482 C 2617 2437 2690 2465 2690 2522 C 2690 2575 2616 2601 2586 2558 Z M 2650 2534 C 2661 2522 2660 2516 2647 2502 C 2631 2487 2629 2487 2613 2502 C 2600 2516 2599 2522 2610 2534 C 2617 2543 2626 2550 2630 2550 C 2634 2550 2643 2543 2650 2534 Z"
        fill="#5d8f9c" />
    <path id="path_4"
        d="M 433 2480 C 433 2441 442 2429 455 2450 C 460 2458 466 2457 475 2450 C 495 2434 515 2447 499 2466 C 490 2477 490 2483 499 2494 C 515 2513 495 2526 475 2510 C 466 2503 460 2502 455 2510 C 442 2531 433 2519 433 2480 Z"
        fill="#5d8f9c" />
    <path id="path_5"
        d="M 1159 2493 C 1141 2488 1120 2449 1120 2419 C 1120 2346 1232 2323 1260 2390 C 1290 2462 1239 2515 1159 2493 Z M 1224 2438 C 1232 2424 1231 2417 1218 2404 C 1188 2374 1143 2413 1170 2446 C 1186 2464 1209 2461 1224 2438 Z"
        fill="#5d8f9c" />
    <path id="path_6"
        d="M 1505 2279 C 1483 2274 1456 2266 1445 2261 C 1329 2209 1279 2178 1225 2125 C 1164 2065 1100 1981 1100 1961 C 1100 1955 1096 1942 1091 1932 C 1052 1856 1040 1800 1040 1695 C 1041 1567 1048 1535 1111 1405 C 1160 1306 1260 1208 1371 1153 C 1469 1105 1531 1090 1640 1090 C 1749 1090 1811 1105 1909 1153 C 2049 1222 2131 1315 2211 1495 C 2229 1536 2240 1608 2240 1695 C 2240 1800 2228 1856 2189 1932 C 2184 1942 2180 1955 2180 1961 C 2180 1981 2116 2065 2054 2125 C 2000 2178 1945 2212 1835 2261 C 1772 2289 1593 2299 1505 2279 Z M 1762 1748 C 1883 1626 1988 1516 1995 1505 C 2004 1492 2005 1477 1999 1463 C 1992 1445 1983 1440 1953 1440 C 1917 1440 1905 1451 1713 1643 L 1511 1846 L 1423 1757 C 1375 1708 1328 1664 1319 1659 C 1300 1649 1270 1657 1258 1674 C 1236 1706 1253 1734 1368 1850 C 1461 1945 1491 1969 1513 1969 C 1538 1970 1575 1936 1762 1748 Z"
        fill="#5d8f9c" />
    <path id="path_7"
        d="M 2393 2040 C 2390 2029 2379 2020 2369 2020 C 2358 2020 2350 2013 2350 2005 C 2350 1997 2359 1990 2370 1990 C 2383 1990 2390 1983 2390 1970 C 2390 1959 2397 1950 2405 1950 C 2413 1950 2420 1959 2420 1970 C 2420 1983 2427 1990 2440 1990 C 2451 1990 2460 1997 2460 2005 C 2460 2013 2451 2020 2440 2020 C 2427 2020 2420 2027 2420 2040 C 2420 2051 2415 2060 2409 2060 C 2403 2060 2396 2051 2393 2040 Z"
        fill="#5d8f9c" />
    <path id="path_8"
        d="M 613 1924 C 610 1915 612 1899 619 1888 C 629 1872 628 1865 614 1849 C 596 1829 601 1800 622 1800 C 629 1800 644 1807 654 1815 C 671 1828 676 1828 690 1815 C 700 1806 715 1802 724 1806 C 744 1814 745 1843 725 1860 C 712 1871 713 1874 732 1890 C 745 1900 751 1913 747 1923 C 739 1944 707 1945 690 1925 C 678 1911 675 1911 660 1925 C 638 1945 621 1944 613 1924 Z"
        fill="#5d8f9c" />
    <path id="path_9"
        d="M 2736 1803 C 2732 1793 2739 1777 2757 1758 L 2784 1730 L 2757 1702 C 2739 1683 2732 1667 2736 1657 C 2744 1634 2773 1636 2795 1660 C 2805 1671 2818 1680 2825 1680 C 2832 1680 2845 1671 2855 1660 C 2877 1636 2906 1634 2914 1657 C 2918 1667 2911 1683 2895 1700 L 2869 1727 L 2896 1759 C 2917 1785 2920 1793 2910 1805 C 2893 1825 2877 1824 2855 1800 C 2845 1789 2832 1780 2825 1780 C 2818 1780 2805 1789 2795 1800 C 2773 1824 2744 1826 2736 1803 Z"
        fill="#5d8f9c" />
    <path id="path_10"
        d="M 364 1457 C 335 1431 327 1415 323 1377 C 318 1333 320 1328 358 1290 C 392 1256 404 1250 440 1250 C 476 1250 488 1256 522 1290 C 560 1328 562 1333 557 1377 C 550 1441 499 1490 440 1490 C 408 1490 392 1483 364 1457 Z M 487 1401 C 503 1381 503 1377 488 1346 C 468 1300 412 1300 392 1345 C 363 1408 445 1456 487 1401 Z"
        fill="#5d8f9c" />
    <path id="path_11"
        d="M 2227 1049 C 2210 1039 2210 1037 2225 1014 C 2239 992 2239 988 2224 965 C 2198 925 2233 902 2270 935 C 2285 949 2288 949 2300 935 C 2328 901 2370 932 2344 968 C 2331 987 2331 992 2345 1014 C 2354 1028 2359 1044 2355 1050 C 2347 1062 2310 1064 2310 1051 C 2310 1034 2276 1029 2268 1045 C 2258 1063 2252 1063 2227 1049 Z"
        fill="#5d8f9c" />
    <path id="path_12"
        d="M 754 813 C 756 778 758 776 792 774 C 827 771 827 772 827 811 C 827 851 822 858 803 839 C 795 831 790 831 786 839 C 770 865 751 850 754 813 Z"
        fill="#5d8f9c" />
    <path id="path_13"
        d="M 1353 750 C 1309 732 1314 629 1360 615 C 1372 611 1397 611 1416 615 C 1457 622 1475 656 1465 707 C 1456 755 1410 773 1353 750 Z M 1426 694 C 1430 677 1428 665 1419 659 C 1393 643 1371 649 1364 674 C 1356 706 1366 720 1395 720 C 1413 720 1421 713 1426 694 Z"
        fill="#5d8f9c" />
    <path id="path_14"
        d="M 1804 710 C 1805 686 1809 682 1836 682 C 1863 682 1867 685 1867 710 C 1867 735 1863 738 1835 738 C 1806 738 1803 735 1804 710 Z"
        fill="#5d8f9c" />
    <path id="path_15"
        d="M 2270 570 C 2246 546 2245 522 2266 492 C 2285 464 2323 463 2350 490 C 2377 517 2376 555 2348 574 C 2318 595 2294 594 2270 570 Z M 2330 544 C 2341 532 2340 526 2327 512 C 2311 497 2309 497 2293 512 C 2280 526 2279 532 2290 544 C 2297 553 2306 560 2310 560 C 2314 560 2323 553 2330 544 Z"
        fill="#5d8f9c" />
    <path id="path_16"
        d="M 2290 3134 C 2290 3124 2318 3100 2329 3100 C 2343 3100 2343 3113 2328 3128 C 2316 3140 2290 3145 2290 3134 Z"
        fill="#cee534" />
    <path id="path_17"
        d="M 2586 2558 C 2577 2546 2570 2529 2570 2520 C 2570 2511 2577 2494 2586 2482 C 2617 2437 2690 2465 2690 2522 C 2690 2575 2616 2601 2586 2558 Z M 2650 2534 C 2661 2522 2660 2516 2647 2502 C 2631 2487 2629 2487 2613 2502 C 2600 2516 2599 2522 2610 2534 C 2617 2543 2626 2550 2630 2550 C 2634 2550 2643 2543 2650 2534 Z"
        fill="#cee534" />
    <path id="path_18"
        d="M 433 2480 C 433 2441 442 2429 455 2450 C 460 2458 466 2457 475 2450 C 495 2434 515 2447 499 2466 C 490 2477 490 2483 499 2494 C 515 2513 495 2526 475 2510 C 466 2503 460 2502 455 2510 C 442 2531 433 2519 433 2480 Z"
        fill="#cee534" />
    <path id="path_19"
        d="M 1145 2475 C 1131 2462 1120 2439 1120 2425 C 1120 2392 1162 2350 1195 2350 C 1228 2350 1270 2392 1270 2425 C 1270 2439 1259 2462 1245 2475 C 1232 2489 1209 2500 1195 2500 C 1181 2500 1158 2489 1145 2475 Z M 1224 2438 C 1232 2424 1231 2417 1218 2404 C 1188 2374 1143 2413 1170 2446 C 1186 2464 1209 2461 1224 2438 Z"
        fill="#cee534" />
    <path id="path_20"
        d="M 1492 2270 C 1383 2241 1305 2196 1220 2110 C 1133 2024 1089 1947 1060 1834 C 1024 1693 1042 1540 1112 1407 C 1154 1326 1276 1204 1357 1162 C 1490 1092 1643 1074 1784 1110 C 1897 1139 1974 1183 2060 1270 C 2147 1356 2191 1433 2220 1546 C 2256 1687 2238 1840 2168 1973 C 2126 2054 2004 2176 1923 2218 C 1791 2287 1632 2306 1492 2270 Z M 1768 1746 C 1963 1552 2003 1508 2003 1485 C 2003 1454 1978 1430 1947 1430 C 1934 1430 1848 1508 1721 1635 L 1514 1840 L 1420 1745 C 1323 1647 1297 1634 1266 1666 C 1230 1702 1245 1729 1373 1857 C 1444 1929 1504 1980 1515 1980 C 1527 1980 1626 1888 1768 1746 Z"
        fill="#cee534" />
    <path id="path_21"
        d="M 2393 2040 C 2390 2029 2379 2020 2369 2020 C 2358 2020 2350 2013 2350 2005 C 2350 1997 2358 1990 2369 1990 C 2379 1990 2390 1981 2393 1970 C 2396 1959 2403 1950 2409 1950 C 2415 1950 2420 1959 2420 1970 C 2420 1983 2427 1990 2440 1990 C 2451 1990 2460 1997 2460 2005 C 2460 2013 2451 2020 2440 2020 C 2427 2020 2420 2027 2420 2040 C 2420 2051 2415 2060 2409 2060 C 2403 2060 2396 2051 2393 2040 Z"
        fill="#cee534" />
    <path id="path_22"
        d="M 614 1925 C 610 1916 616 1900 625 1890 C 642 1871 642 1869 627 1852 C 593 1815 618 1785 654 1819 C 676 1840 677 1840 694 1821 C 712 1801 740 1803 740 1823 C 740 1829 733 1842 723 1852 C 708 1869 708 1871 723 1888 C 758 1926 732 1955 695 1920 C 681 1906 670 1902 665 1909 C 662 1915 650 1925 639 1930 C 624 1939 618 1937 614 1925 Z"
        fill="#cee534" />
    <path id="path_23"
        d="M 364 1457 C 335 1431 327 1415 323 1377 C 318 1333 320 1328 358 1290 C 392 1256 404 1250 440 1250 C 476 1250 488 1256 522 1290 C 560 1328 562 1333 557 1377 C 550 1441 499 1490 440 1490 C 408 1490 392 1483 364 1457 Z M 487 1401 C 503 1381 503 1377 488 1346 C 468 1300 412 1300 392 1345 C 363 1408 445 1456 487 1401 Z"
        fill="#cee534" />
    <path id="path_24"
        d="M 2233 1053 C 2215 1047 2217 1030 2237 1008 C 2252 991 2252 989 2235 970 C 2218 951 2220 920 2238 920 C 2243 920 2255 929 2265 940 L 2283 960 L 2306 939 C 2342 905 2367 935 2333 972 C 2318 989 2318 991 2335 1010 C 2352 1029 2350 1060 2332 1060 C 2327 1060 2315 1051 2305 1040 C 2287 1020 2286 1020 2266 1039 C 2254 1049 2239 1055 2233 1053 Z"
        fill="#cee534" />
    <path id="path_25"
        d="M 757 843 C 753 840 755 831 761 823 C 770 814 769 806 761 796 C 745 777 765 764 785 780 C 794 787 800 788 805 780 C 818 759 827 771 827 810 C 827 851 822 858 803 839 C 795 831 790 831 786 839 C 778 851 766 853 757 843 Z"
        fill="#cee534" />
    <path id="path_26"
        d="M 1345 735 C 1331 722 1320 699 1320 685 C 1320 652 1362 610 1395 610 C 1428 610 1470 652 1470 685 C 1470 718 1428 760 1395 760 C 1381 760 1358 749 1345 735 Z M 1426 694 C 1430 677 1428 665 1419 659 C 1393 643 1371 649 1364 674 C 1356 706 1366 720 1395 720 C 1413 720 1421 713 1426 694 Z"
        fill="#cee534" />
    <path id="path_27"
        d="M 2270 570 C 2246 546 2245 522 2266 492 C 2285 464 2323 463 2350 490 C 2377 517 2376 555 2348 574 C 2318 595 2294 594 2270 570 Z M 2330 544 C 2341 532 2340 526 2327 512 C 2311 497 2309 497 2293 512 C 2280 526 2279 532 2290 544 C 2297 553 2306 560 2310 560 C 2314 560 2323 553 2330 544 Z"
        fill="#cee534" />
    <path id="path_28"
        d="M 2290 3134 C 2290 3124 2318 3100 2329 3100 C 2343 3100 2343 3113 2328 3128 C 2316 3140 2290 3145 2290 3134 Z"
        fill="#3cbefb" />
    <path id="path_29"
        d="M 2586 2558 C 2577 2546 2570 2529 2570 2520 C 2570 2511 2577 2494 2586 2482 C 2617 2437 2690 2465 2690 2522 C 2690 2575 2616 2601 2586 2558 Z M 2650 2534 C 2661 2522 2660 2516 2647 2502 C 2631 2487 2629 2487 2613 2502 C 2600 2516 2599 2522 2610 2534 C 2617 2543 2626 2550 2630 2550 C 2634 2550 2643 2543 2650 2534 Z"
        fill="#3cbefb" />
    <path id="path_30"
        d="M 433 2480 C 433 2441 442 2429 455 2450 C 460 2458 466 2457 475 2450 C 495 2434 515 2447 499 2466 C 490 2477 490 2483 499 2494 C 515 2513 495 2526 475 2510 C 466 2503 460 2502 455 2510 C 442 2531 433 2519 433 2480 Z"
        fill="#3cbefb" />
    <path id="path_31"
        d="M 364 1457 C 335 1431 327 1415 323 1377 C 318 1333 320 1328 358 1290 C 392 1256 404 1250 440 1250 C 476 1250 488 1256 522 1290 C 560 1328 562 1333 557 1377 C 550 1441 499 1490 440 1490 C 408 1490 392 1483 364 1457 Z M 487 1401 C 503 1381 503 1377 488 1346 C 468 1300 412 1300 392 1345 C 363 1408 445 1456 487 1401 Z"
        fill="#3cbefb" />
    <path id="path_32"
        d="M 2270 570 C 2246 546 2245 522 2266 492 C 2285 464 2323 463 2350 490 C 2377 517 2376 555 2348 574 C 2318 595 2294 594 2270 570 Z M 2330 544 C 2341 532 2340 526 2327 512 C 2311 497 2309 497 2293 512 C 2280 526 2279 532 2290 544 C 2297 553 2306 560 2310 560 C 2314 560 2323 553 2330 544 Z"
        fill="#3cbefb" />
</svg>
