<svg
    xmlns="http://www.w3.org/2000/svg"
    viewBox="0 0 3220 3220"
    id="vector">
    <path
        id="path"
        d="M 1987 2684 C 1983 2680 1980 2666 1980 2654 C 1980 2636 1972 2629 1948 2622 C 1906 2611 1906 2589 1947 2578 C 1972 2572 1979 2564 1982 2542 C 1986 2505 2013 2507 2020 2545 C 2024 2569 2031 2576 2055 2580 C 2072 2583 2085 2591 2085 2600 C 2085 2609 2072 2617 2055 2620 C 2032 2624 2024 2631 2020 2654 C 2015 2683 2000 2697 1987 2684 Z"
        fill="#3977b6"
        stroke-width="1"/>
    <path
        id="path_1"
        d="M 2586 2558 C 2577 2546 2570 2529 2570 2520 C 2570 2511 2577 2494 2586 2482 C 2617 2437 2690 2465 2690 2522 C 2690 2575 2616 2601 2586 2558 Z"
        fill="#3977b6"
        stroke-width="1"/>
    <path
        id="path_2"
        d="M 427 2513 C 423 2510 425 2501 431 2493 C 440 2484 439 2476 431 2466 C 416 2448 436 2432 453 2449 C 460 2456 467 2456 476 2449 C 495 2433 514 2448 499 2466 C 490 2477 490 2483 499 2494 C 515 2513 495 2526 475 2510 C 466 2503 460 2502 455 2510 C 448 2521 436 2523 427 2513 Z"
        fill="#3977b6"
        stroke-width="1"/>
    <path
        id="path_3"
        d="M 1142 2484 C 1126 2473 1120 2459 1120 2432 C 1120 2374 1142 2350 1195 2350 C 1246 2350 1270 2374 1270 2427 C 1270 2490 1197 2523 1142 2484 Z M 1220 2440 C 1233 2416 1228 2404 1200 2397 C 1174 2390 1153 2424 1171 2446 C 1187 2466 1207 2463 1220 2440 Z"
        fill="#3977b6"
        stroke-width="1"/>
    <path
        id="path_4"
        d="M 2390 2045 C 2390 2027 2385 2020 2371 2020 C 2361 2020 2350 2012 2348 2002 C 2344 1987 2347 1984 2367 1988 C 2388 1992 2391 1989 2388 1972 C 2387 1960 2388 1951 2393 1950 C 2423 1949 2428 1951 2423 1970 C 2419 1985 2423 1990 2439 1990 C 2451 1990 2460 1996 2460 2005 C 2460 2013 2451 2020 2440 2020 C 2427 2020 2420 2027 2420 2039 C 2420 2049 2413 2060 2405 2064 C 2394 2068 2390 2063 2390 2045 Z"
        fill="#3977b6"
        stroke-width="1"/>
    <path
        id="path_5"
        d="M 617 1932 C 602 1915 602 1912 616 1891 C 631 1871 631 1867 615 1850 C 581 1813 623 1781 660 1815 C 675 1829 678 1829 690 1815 C 706 1796 724 1796 740 1815 C 750 1828 750 1834 735 1850 C 718 1869 718 1871 733 1888 C 754 1911 754 1924 736 1939 C 726 1948 717 1946 699 1931 C 675 1912 675 1912 654 1931 C 634 1950 633 1950 617 1932 Z"
        fill="#3977b6"
        stroke-width="1"/>
    <path
        id="path_6"
        d="M 2747 1819 C 2725 1806 2726 1789 2750 1762 C 2761 1750 2770 1738 2770 1734 C 2770 1731 2761 1717 2750 1703 C 2720 1664 2724 1640 2760 1640 C 2777 1640 2790 1643 2790 1648 C 2790 1652 2799 1661 2811 1668 C 2829 1680 2834 1679 2847 1661 C 2866 1633 2920 1632 2920 1658 C 2920 1669 2911 1685 2900 1695 C 2875 1717 2875 1728 2900 1760 C 2925 1792 2925 1807 2900 1820 C 2883 1829 2875 1826 2854 1805 L 2828 1779 L 2796 1804 C 2772 1822 2760 1826 2747 1819 Z"
        fill="#3977b6"
        stroke-width="1"/>
    <path
        id="path_7"
        d="M 376 1471 C 274 1403 322 1250 445 1250 C 475 1250 490 1258 521 1289 C 553 1321 560 1334 560 1366 C 559 1437 508 1490 440 1490 C 421 1490 392 1481 376 1471 Z M 461 1419 C 488 1405 500 1370 487 1343 C 477 1320 464 1315 425 1319 C 385 1322 376 1389 412 1414 C 439 1433 436 1433 461 1419 Z"
        fill="#3977b6"
        stroke-width="1"/>
    <path
        id="path_8"
        d="M 2220 1045 C 2210 1032 2210 1026 2225 1010 C 2242 991 2242 989 2225 970 C 2191 933 2232 901 2270 935 C 2285 949 2288 949 2300 935 C 2316 916 2334 916 2350 935 C 2360 948 2359 954 2345 970 C 2327 990 2327 991 2348 1013 C 2365 1031 2367 1039 2358 1048 C 2341 1065 2315 1063 2300 1045 C 2288 1031 2285 1031 2270 1045 C 2249 1064 2236 1064 2220 1045 Z"
        fill="#3977b6"
        stroke-width="1"/>
    <path
        id="path_9"
        d="M 753 808 C 753 773 755 769 773 774 C 785 777 799 775 805 770 C 811 765 822 765 830 770 C 842 777 842 781 830 795 C 819 809 819 813 829 820 C 852 834 831 849 791 848 C 753 848 753 847 753 808 Z"
        fill="#3977b6"
        stroke-width="1"/>
    <path
        id="path_10"
        d="M 1336 738 C 1296 682 1330 610 1395 610 C 1417 610 1438 618 1450 630 C 1462 642 1470 663 1470 685 C 1470 733 1441 760 1391 760 C 1361 760 1347 754 1336 738 Z M 1416 687 C 1417 655 1396 645 1375 667 C 1360 681 1361 684 1376 701 C 1399 726 1415 720 1416 687 Z"
        fill="#3977b6"
        stroke-width="1"/>
    <path
        id="path_11"
        d="M 1796 742 C 1794 738 1795 728 1800 720 C 1805 711 1805 701 1799 694 C 1785 677 1807 665 1825 680 C 1833 687 1840 687 1844 681 C 1848 675 1857 673 1865 676 C 1873 680 1877 687 1873 694 C 1869 700 1867 715 1869 728 C 1870 743 1866 750 1856 750 C 1847 750 1840 745 1840 738 C 1840 729 1837 729 1828 738 C 1814 752 1803 753 1796 742 Z"
        fill="#3977b6"
        stroke-width="1"/>
    <path
        id="path_12"
        d="M 2267 572 C 2245 548 2246 507 2268 487 C 2308 451 2370 478 2370 532 C 2370 583 2301 610 2267 572 Z M 2329 546 C 2338 535 2337 528 2324 515 C 2309 500 2306 500 2292 514 C 2279 526 2279 532 2290 544 C 2305 564 2314 564 2329 546 Z"
        fill="#3977b6"
        stroke-width="1"/>
    <path
        id="path_13"
        d="M 1987 2684 C 1983 2680 1980 2665 1980 2651 C 1980 2629 1975 2624 1953 2622 C 1899 2618 1897 2585 1950 2578 C 1969 2576 1976 2568 1980 2545 C 1987 2504 2014 2505 2018 2547 C 2021 2575 2025 2579 2053 2582 C 2073 2584 2085 2590 2085 2600 C 2085 2610 2073 2616 2053 2618 C 2026 2621 2021 2625 2018 2652 C 2015 2683 2001 2697 1987 2684 Z"
        fill="#589d94"
        stroke-width="1"/>
    <path
        id="path_14"
        d="M 2590 2560 C 2579 2549 2570 2531 2570 2520 C 2570 2493 2605 2460 2633 2460 C 2683 2460 2709 2530 2672 2563 C 2647 2586 2614 2584 2590 2560 Z M 2650 2534 C 2661 2522 2660 2516 2647 2502 C 2631 2487 2629 2487 2613 2502 C 2600 2516 2599 2522 2610 2534 C 2617 2543 2626 2550 2630 2550 C 2634 2550 2643 2543 2650 2534 Z"
        fill="#589d94"
        stroke-width="1"/>
    <path
        id="path_15"
        d="M 433 2480 C 433 2441 442 2429 455 2450 C 460 2458 466 2457 475 2450 C 495 2434 515 2447 499 2466 C 490 2477 490 2483 499 2494 C 515 2513 495 2526 475 2510 C 466 2503 460 2502 455 2510 C 442 2531 433 2519 433 2480 Z"
        fill="#589d94"
        stroke-width="1"/>
    <path
        id="path_16"
        d="M 1140 2478 C 1116 2452 1114 2403 1136 2372 C 1159 2339 1232 2341 1254 2375 C 1291 2432 1259 2500 1195 2500 C 1173 2500 1154 2492 1140 2478 Z M 1224 2438 C 1232 2424 1231 2417 1218 2404 C 1188 2374 1143 2413 1170 2446 C 1186 2464 1209 2461 1224 2438 Z"
        fill="#589d94"
        stroke-width="1"/>
    <path
        id="path_17"
        d="M 1488 2275 C 1277 2217 1109 2049 1056 1842 C 1035 1765 1036 1621 1056 1545 C 1065 1512 1073 1480 1074 1475 C 1075 1469 1084 1449 1095 1430 C 1106 1411 1122 1382 1130 1365 C 1138 1349 1177 1303 1215 1265 C 1334 1146 1469 1090 1640 1090 C 1811 1090 1946 1146 2065 1265 C 2104 1303 2142 1349 2150 1365 C 2158 1382 2174 1411 2185 1430 C 2236 1515 2256 1722 2224 1842 C 2170 2052 2002 2219 1788 2276 C 1722 2293 1552 2293 1488 2275 Z M 1648 2179 C 1651 2156 1658 2153 1719 2142 C 1856 2119 1993 2013 2056 1883 C 2080 1833 2085 1810 2088 1718 C 2094 1560 2056 1462 1951 1364 C 1906 1322 1882 1314 1863 1333 C 1845 1351 1858 1383 1890 1400 C 1923 1418 1989 1513 2011 1576 C 2040 1660 2034 1773 1996 1854 C 1945 1961 1856 2037 1748 2066 C 1668 2087 1650 2085 1650 2055 C 1650 2041 1644 2030 1638 2030 C 1619 2031 1515 2105 1515 2118 C 1515 2133 1621 2210 1635 2206 C 1641 2205 1646 2192 1648 2179 Z M 1416 2054 C 1422 2032 1414 2019 1368 1972 C 1334 1937 1302 1890 1284 1850 C 1259 1793 1255 1773 1255 1695 C 1256 1619 1260 1596 1283 1547 C 1337 1428 1461 1332 1583 1315 L 1630 1308 L 1630 1339 C 1630 1356 1634 1370 1638 1370 C 1653 1370 1772 1283 1768 1274 C 1763 1261 1642 1182 1635 1188 C 1632 1191 1630 1204 1630 1216 C 1630 1234 1623 1241 1603 1245 C 1451 1275 1375 1314 1292 1404 C 1130 1580 1146 1859 1327 2031 C 1385 2086 1407 2092 1416 2054 Z M 1642 1813 C 1756 1722 1860 1627 1860 1613 C 1860 1583 1839 1560 1812 1560 C 1793 1560 1754 1586 1675 1650 L 1565 1741 L 1530 1700 C 1496 1661 1472 1652 1436 1666 C 1412 1675 1417 1719 1447 1764 C 1522 1878 1551 1885 1642 1813 Z"
        fill="#589d94"
        stroke-width="1"/>
    <path
        id="path_18"
        d="M 2390 2045 C 2390 2027 2385 2020 2370 2020 C 2359 2020 2350 2013 2350 2005 C 2350 1997 2359 1990 2371 1990 C 2385 1990 2390 1985 2388 1970 C 2386 1960 2388 1951 2393 1950 C 2416 1949 2420 1952 2420 1970 C 2420 1983 2427 1990 2440 1990 C 2451 1990 2460 1997 2460 2005 C 2460 2013 2451 2020 2440 2020 C 2427 2020 2420 2027 2420 2039 C 2420 2049 2413 2060 2405 2064 C 2394 2068 2390 2063 2390 2045 Z"
        fill="#589d94"
        stroke-width="1"/>
    <path
        id="path_19"
        d="M 613 1924 C 610 1916 613 1897 621 1883 C 633 1861 632 1857 617 1849 C 608 1843 600 1832 600 1824 C 600 1802 626 1796 651 1814 C 672 1828 675 1828 692 1814 C 701 1805 716 1800 725 1803 C 744 1811 744 1844 725 1860 C 711 1871 712 1874 730 1887 C 773 1917 740 1955 696 1926 C 675 1913 670 1913 660 1925 C 644 1945 621 1944 613 1924 Z"
        fill="#589d94"
        stroke-width="1"/>
    <path
        id="path_20"
        d="M 2746 1814 C 2725 1793 2726 1787 2755 1757 L 2781 1732 L 2755 1706 C 2741 1692 2730 1672 2730 1660 C 2730 1630 2777 1633 2802 1666 L 2823 1691 L 2849 1666 C 2881 1635 2920 1631 2920 1658 C 2920 1669 2911 1685 2900 1695 C 2874 1718 2875 1738 2901 1767 C 2919 1785 2921 1792 2910 1805 C 2893 1825 2874 1824 2850 1800 C 2830 1780 2810 1774 2810 1788 C 2810 1792 2799 1803 2785 1812 C 2764 1828 2760 1828 2746 1814 Z"
        fill="#589d94"
        stroke-width="1"/>
    <path
        id="path_21"
        d="M 362 1456 C 328 1425 325 1417 325 1370 C 325 1323 328 1315 362 1284 C 392 1257 408 1250 441 1250 C 476 1250 489 1256 522 1290 C 560 1328 562 1333 557 1377 C 553 1415 545 1431 516 1457 C 465 1504 414 1503 362 1456 Z M 470 1420 C 490 1409 503 1369 494 1345 C 485 1322 445 1309 416 1319 C 388 1330 377 1365 392 1394 C 411 1430 435 1439 470 1420 Z"
        fill="#589d94"
        stroke-width="1"/>
    <path
        id="path_22"
        d="M 2222 1047 C 2213 1037 2215 1028 2226 1012 C 2239 993 2239 988 2225 966 C 2198 925 2233 902 2270 935 C 2285 949 2288 949 2300 935 C 2316 916 2334 916 2350 935 C 2360 948 2360 954 2345 970 C 2328 989 2328 991 2345 1010 C 2365 1032 2359 1060 2334 1060 C 2325 1060 2311 1052 2305 1043 C 2292 1026 2291 1026 2273 1043 C 2250 1063 2236 1065 2222 1047 Z"
        fill="#589d94"
        stroke-width="1"/>
    <path
        id="path_23"
        d="M 753 811 L 753 772 L 794 775 C 846 778 845 777 830 795 C 820 807 820 813 829 824 C 845 843 825 856 805 840 C 796 833 790 832 785 840 C 770 864 753 849 753 811 Z"
        fill="#589d94"
        stroke-width="1"/>
    <path
        id="path_24"
        d="M 1338 738 C 1295 685 1329 610 1395 610 C 1417 610 1438 618 1450 630 C 1462 642 1470 663 1470 685 C 1470 732 1441 760 1393 760 C 1366 760 1350 753 1338 738 Z M 1423 698 C 1431 686 1430 677 1421 666 C 1403 644 1383 646 1370 671 C 1348 711 1399 737 1423 698 Z"
        fill="#589d94"
        stroke-width="1"/>
    <path
        id="path_25"
        d="M 1840 739 C 1840 733 1832 731 1821 735 C 1806 739 1803 735 1804 710 C 1805 686 1809 680 1822 684 C 1832 686 1843 684 1846 679 C 1856 663 1867 678 1868 709 C 1868 726 1863 741 1854 744 C 1846 747 1840 745 1840 739 Z"
        fill="#589d94"
        stroke-width="1"/>
    <path
        id="path_26"
        d="M 2270 570 C 2259 559 2250 541 2250 530 C 2250 503 2285 470 2313 470 C 2342 470 2370 499 2370 528 C 2370 556 2336 590 2310 590 C 2299 590 2281 581 2270 570 Z M 2330 544 C 2341 532 2340 526 2327 512 C 2311 497 2309 497 2293 512 C 2280 526 2279 532 2290 544 C 2297 553 2306 560 2310 560 C 2314 560 2323 553 2330 544 Z"
        fill="#589d94"
        stroke-width="1"/>
    <path
        id="path_27"
        d="M 2590 2560 C 2579 2549 2570 2531 2570 2520 C 2570 2493 2605 2460 2633 2460 C 2683 2460 2709 2530 2672 2563 C 2647 2586 2614 2584 2590 2560 Z M 2650 2534 C 2661 2522 2660 2516 2647 2502 C 2631 2487 2629 2487 2613 2502 C 2600 2516 2599 2522 2610 2534 C 2617 2543 2626 2550 2630 2550 C 2634 2550 2643 2543 2650 2534 Z"
        fill="#6fbb75"
        stroke-width="1"/>
    <path
        id="path_28"
        d="M 433 2480 C 433 2441 442 2429 455 2450 C 460 2458 466 2457 475 2450 C 495 2434 515 2447 499 2466 C 490 2477 490 2483 499 2494 C 515 2513 495 2526 475 2510 C 466 2503 460 2502 455 2510 C 442 2531 433 2519 433 2480 Z"
        fill="#6fbb75"
        stroke-width="1"/>
    <path
        id="path_29"
        d="M 1142 2477 C 1113 2446 1114 2405 1145 2375 C 1176 2343 1219 2342 1248 2373 C 1276 2402 1276 2440 1249 2474 C 1222 2508 1172 2510 1142 2477 Z M 1224 2438 C 1232 2424 1231 2417 1218 2404 C 1188 2374 1143 2413 1170 2446 C 1186 2464 1209 2461 1224 2438 Z"
        fill="#6fbb75"
        stroke-width="1"/>
    <path
        id="path_30"
        d="M 1504 2275 C 1471 2268 1414 2248 1378 2230 C 987 2039 922 1507 1256 1229 C 1477 1045 1803 1045 2024 1229 C 2357 1506 2293 2039 1904 2229 C 1783 2288 1639 2305 1504 2275 Z M 1650 2180 C 1650 2154 1654 2150 1676 2150 C 1709 2150 1810 2124 1843 2107 C 1857 2100 1893 2075 1922 2052 C 2138 1886 2157 1565 1962 1374 C 1919 1331 1901 1320 1881 1322 C 1836 1327 1844 1357 1904 1415 C 2009 1515 2051 1655 2015 1786 C 1979 1918 1882 2023 1759 2061 C 1670 2089 1650 2087 1650 2050 C 1650 2034 1647 2020 1643 2020 C 1629 2020 1505 2111 1505 2120 C 1505 2131 1620 2208 1638 2209 C 1645 2210 1650 2198 1650 2180 Z M 1418 2068 C 1439 2047 1431 2030 1375 1975 C 1339 1940 1308 1898 1288 1853 C 1260 1793 1256 1775 1255 1695 C 1255 1616 1258 1598 1283 1547 C 1341 1429 1474 1330 1579 1326 C 1620 1325 1625 1328 1628 1348 C 1630 1360 1636 1370 1642 1370 C 1657 1370 1743 1314 1764 1291 C 1780 1274 1777 1271 1711 1226 C 1673 1201 1639 1180 1636 1180 C 1633 1180 1630 1193 1630 1209 C 1630 1236 1627 1238 1567 1248 C 1423 1271 1290 1372 1223 1507 C 1194 1566 1187 1592 1183 1663 C 1173 1812 1216 1925 1318 2023 C 1380 2081 1397 2089 1418 2068 Z M 1586 1857 C 1598 1850 1665 1798 1734 1741 C 1840 1653 1860 1632 1860 1609 C 1860 1581 1830 1550 1803 1550 C 1796 1550 1740 1592 1678 1643 L 1565 1737 L 1532 1693 C 1498 1648 1470 1639 1439 1663 C 1397 1695 1416 1745 1503 1838 C 1536 1872 1553 1876 1586 1857 Z"
        fill="#6fbb75"
        stroke-width="1"/>
    <path
        id="path_31"
        d="M 2390 2040 C 2390 2027 2383 2020 2370 2020 C 2359 2020 2350 2013 2350 2005 C 2350 1997 2358 1990 2369 1990 C 2379 1990 2390 1981 2393 1970 C 2396 1959 2403 1950 2409 1950 C 2415 1950 2420 1959 2420 1970 C 2420 1983 2427 1990 2440 1990 C 2451 1990 2460 1997 2460 2005 C 2460 2013 2451 2020 2440 2020 C 2427 2020 2420 2027 2420 2040 C 2420 2051 2413 2060 2405 2060 C 2397 2060 2390 2051 2390 2040 Z"
        fill="#6fbb75"
        stroke-width="1"/>
    <path
        id="path_32"
        d="M 614 1925 C 610 1916 616 1900 625 1890 C 643 1871 643 1869 622 1847 C 607 1831 604 1820 610 1810 C 618 1798 623 1797 637 1808 C 671 1831 681 1832 700 1815 C 710 1806 724 1801 729 1805 C 746 1815 742 1841 723 1856 C 706 1868 706 1870 728 1893 C 748 1914 749 1918 735 1930 C 722 1941 716 1940 699 1924 C 680 1907 678 1907 650 1924 C 623 1940 619 1940 614 1925 Z"
        fill="#6fbb75"
        stroke-width="1"/>
    <path
        id="path_33"
        d="M 362 1456 C 328 1425 325 1417 325 1370 C 325 1323 328 1315 362 1284 C 392 1257 408 1250 441 1250 C 476 1250 489 1256 522 1290 C 560 1328 562 1333 557 1377 C 553 1415 545 1431 516 1457 C 465 1504 414 1503 362 1456 Z M 470 1420 C 490 1409 503 1369 494 1345 C 485 1322 445 1309 416 1319 C 388 1330 377 1365 392 1394 C 411 1430 435 1439 470 1420 Z"
        fill="#6fbb75"
        stroke-width="1"/>
    <path
        id="path_34"
        d="M 2223 1045 C 2220 1036 2226 1020 2235 1010 C 2252 991 2252 989 2235 970 C 2218 951 2220 920 2238 920 C 2243 920 2253 927 2260 935 C 2267 943 2278 950 2285 950 C 2292 950 2303 943 2310 935 C 2317 927 2327 920 2332 920 C 2350 920 2352 951 2335 970 C 2317 989 2318 991 2339 1014 C 2358 1034 2359 1038 2345 1050 C 2332 1061 2326 1060 2312 1046 C 2289 1026 2276 1026 2260 1045 C 2244 1064 2231 1064 2223 1045 Z"
        fill="#6fbb75"
        stroke-width="1"/>
    <path
        id="path_35"
        d="M 757 843 C 753 840 755 831 761 823 C 770 814 769 806 761 796 C 746 778 766 762 783 779 C 790 786 797 786 806 779 C 823 765 844 778 831 794 C 825 801 823 816 827 828 C 833 851 821 857 803 839 C 795 831 790 831 786 839 C 778 851 766 853 757 843 Z"
        fill="#6fbb75"
        stroke-width="1"/>
    <path
        id="path_36"
        d="M 1342 737 C 1297 689 1331 610 1397 610 C 1429 610 1470 652 1470 685 C 1470 720 1428 760 1392 760 C 1375 760 1355 751 1342 737 Z M 1423 698 C 1431 686 1430 677 1421 666 C 1403 644 1383 646 1370 671 C 1348 711 1399 737 1423 698 Z"
        fill="#6fbb75"
        stroke-width="1"/>
    <path
        id="path_37"
        d="M 2270 570 C 2259 559 2250 541 2250 530 C 2250 503 2285 470 2313 470 C 2342 470 2370 499 2370 528 C 2370 556 2336 590 2310 590 C 2299 590 2281 581 2270 570 Z M 2330 544 C 2341 532 2340 526 2327 512 C 2311 497 2309 497 2293 512 C 2280 526 2279 532 2290 544 C 2297 553 2306 560 2310 560 C 2314 560 2323 553 2330 544 Z"
        fill="#6fbb75"
        stroke-width="1"/>
    <path
        id="path_38"
        d="M 2590 2560 C 2579 2549 2570 2531 2570 2520 C 2570 2493 2605 2460 2633 2460 C 2683 2460 2709 2530 2672 2563 C 2647 2586 2614 2584 2590 2560 Z M 2650 2534 C 2661 2522 2660 2516 2647 2502 C 2631 2487 2629 2487 2613 2502 C 2600 2516 2599 2522 2610 2534 C 2617 2543 2626 2550 2630 2550 C 2634 2550 2643 2543 2650 2534 Z"
        fill="#cce535"
        stroke-width="1"/>
    <path
        id="path_39"
        d="M 433 2480 C 433 2441 442 2429 455 2450 C 460 2458 466 2457 475 2450 C 495 2434 515 2447 499 2466 C 490 2477 490 2483 499 2494 C 515 2513 495 2526 475 2510 C 466 2503 460 2502 455 2510 C 442 2531 433 2519 433 2480 Z"
        fill="#cce535"
        stroke-width="1"/>
    <path
        id="path_40"
        d="M 1145 2475 C 1131 2462 1120 2439 1120 2425 C 1120 2392 1162 2350 1195 2350 C 1228 2350 1270 2392 1270 2425 C 1270 2439 1259 2462 1245 2475 C 1232 2489 1209 2500 1195 2500 C 1181 2500 1158 2489 1145 2475 Z M 1225 2425 C 1225 2398 1222 2395 1195 2395 C 1174 2395 1164 2400 1162 2413 C 1156 2446 1168 2462 1197 2458 C 1221 2455 1225 2450 1225 2425 Z"
        fill="#cce535"
        stroke-width="1"/>
    <path
        id="path_41"
        d="M 1510 2274 C 1244 2217 1040 1963 1040 1690 C 1040 1367 1317 1090 1640 1090 C 1915 1090 2168 1296 2225 1565 C 2268 1769 2209 1962 2061 2111 C 1912 2260 1714 2318 1510 2274 Z M 1650 2180 C 1650 2153 1653 2150 1683 2150 C 1788 2150 1932 2070 2004 1972 C 2144 1780 2128 1542 1963 1372 C 1921 1329 1905 1319 1883 1322 C 1836 1327 1843 1356 1903 1413 C 1970 1478 2006 1547 2022 1640 C 2033 1702 2032 1720 2017 1778 C 1993 1869 1946 1944 1881 1995 C 1828 2038 1724 2080 1675 2080 C 1654 2080 1650 2075 1650 2049 C 1650 2025 1646 2019 1635 2024 C 1608 2034 1500 2110 1500 2119 C 1500 2130 1621 2210 1638 2210 C 1645 2210 1650 2197 1650 2180 Z M 1418 2068 C 1439 2047 1431 2030 1375 1975 C 1173 1778 1229 1468 1487 1351 C 1516 1337 1559 1326 1582 1326 C 1619 1325 1625 1328 1628 1348 C 1632 1377 1644 1376 1700 1340 C 1788 1283 1788 1281 1714 1227 C 1679 1201 1645 1180 1640 1180 C 1634 1180 1630 1193 1630 1209 C 1630 1236 1627 1237 1565 1248 C 1232 1303 1071 1675 1257 1957 C 1295 2014 1366 2079 1391 2080 C 1399 2080 1411 2075 1418 2068 Z M 1586 1857 C 1598 1850 1665 1798 1734 1741 C 1840 1653 1860 1632 1860 1609 C 1860 1581 1830 1550 1803 1550 C 1796 1550 1740 1592 1678 1643 L 1565 1737 L 1532 1693 C 1510 1665 1491 1650 1476 1650 C 1451 1650 1410 1683 1410 1704 C 1410 1720 1461 1793 1503 1838 C 1536 1872 1553 1876 1586 1857 Z"
        fill="#cce535"
        stroke-width="1"/>
    <path
        id="path_42"
        d="M 2393 2040 C 2390 2029 2379 2020 2369 2020 C 2358 2020 2350 2013 2350 2005 C 2350 1997 2358 1990 2369 1990 C 2380 1990 2390 1981 2393 1969 C 2399 1946 2420 1952 2420 1976 C 2420 1984 2429 1990 2440 1990 C 2451 1990 2460 1997 2460 2005 C 2460 2013 2451 2020 2440 2020 C 2427 2020 2420 2027 2420 2040 C 2420 2051 2415 2060 2409 2060 C 2403 2060 2396 2051 2393 2040 Z"
        fill="#cce535"
        stroke-width="1"/>
    <path
        id="path_43"
        d="M 614 1925 C 610 1916 616 1900 625 1890 C 642 1871 642 1869 627 1852 C 593 1815 618 1785 654 1819 C 676 1840 677 1840 694 1821 C 712 1801 740 1803 740 1823 C 740 1829 733 1842 723 1852 C 708 1869 708 1871 723 1888 C 758 1926 732 1955 695 1920 C 681 1906 670 1902 665 1909 C 662 1915 650 1925 639 1930 C 624 1939 618 1937 614 1925 Z"
        fill="#cce535"
        stroke-width="1"/>
    <path
        id="path_44"
        d="M 362 1456 C 328 1425 325 1417 325 1370 C 325 1323 328 1315 362 1284 C 392 1257 408 1250 441 1250 C 476 1250 489 1256 522 1290 C 560 1328 562 1333 557 1377 C 553 1415 545 1431 516 1457 C 465 1504 414 1503 362 1456 Z M 470 1420 C 490 1409 503 1369 494 1345 C 485 1322 445 1309 416 1319 C 388 1330 377 1365 392 1394 C 411 1430 435 1439 470 1420 Z"
        fill="#cce535"
        stroke-width="1"/>
    <path
        id="path_45"
        d="M 2233 1053 C 2215 1047 2217 1030 2237 1008 C 2252 991 2252 989 2237 972 C 2203 935 2228 905 2264 939 C 2286 960 2287 960 2304 941 C 2322 921 2350 923 2350 943 C 2350 949 2343 962 2333 972 C 2318 989 2318 991 2335 1010 C 2352 1029 2350 1060 2332 1060 C 2327 1060 2315 1051 2305 1040 C 2287 1020 2286 1020 2266 1039 C 2254 1049 2239 1055 2233 1053 Z"
        fill="#cce535"
        stroke-width="1"/>
    <path
        id="path_46"
        d="M 757 843 C 753 840 755 831 761 823 C 770 814 769 806 761 796 C 745 777 765 764 785 780 C 794 787 800 788 805 780 C 818 759 827 771 827 810 C 827 851 822 858 803 839 C 795 831 790 831 786 839 C 778 851 766 853 757 843 Z"
        fill="#cce535"
        stroke-width="1"/>
    <path
        id="path_47"
        d="M 1345 735 C 1331 722 1320 699 1320 685 C 1320 652 1362 610 1395 610 C 1428 610 1470 652 1470 685 C 1470 718 1428 760 1395 760 C 1381 760 1358 749 1345 735 Z M 1425 685 C 1425 658 1422 655 1395 655 C 1374 655 1364 660 1362 673 C 1356 706 1368 722 1397 718 C 1421 715 1425 710 1425 685 Z"
        fill="#cce535"
        stroke-width="1"/>
    <path
        id="path_48"
        d="M 2270 570 C 2259 559 2250 541 2250 530 C 2250 503 2285 470 2313 470 C 2342 470 2370 499 2370 528 C 2370 556 2336 590 2310 590 C 2299 590 2281 581 2270 570 Z M 2330 544 C 2341 532 2340 526 2327 512 C 2311 497 2309 497 2293 512 C 2280 526 2279 532 2290 544 C 2297 553 2306 560 2310 560 C 2314 560 2323 553 2330 544 Z"
        fill="#cce535"
        stroke-width="1"/>
    <path
        id="path_49"
        d="M 2590 2560 C 2579 2549 2570 2531 2570 2520 C 2570 2493 2605 2460 2633 2460 C 2683 2460 2709 2530 2672 2563 C 2647 2586 2614 2584 2590 2560 Z M 2650 2534 C 2661 2522 2660 2516 2647 2502 C 2631 2487 2629 2487 2613 2502 C 2600 2516 2599 2522 2610 2534 C 2617 2543 2626 2550 2630 2550 C 2634 2550 2643 2543 2650 2534 Z"
        fill="#3bbcfc"
        stroke-width="1"/>
    <path
        id="path_50"
        d="M 433 2480 C 433 2441 442 2429 455 2450 C 460 2458 466 2457 475 2450 C 495 2434 515 2447 499 2466 C 490 2477 490 2483 499 2494 C 515 2513 495 2526 475 2510 C 466 2503 460 2502 455 2510 C 442 2531 433 2519 433 2480 Z"
        fill="#3bbcfc"
        stroke-width="1"/>
    <path
        id="path_51"
        d="M 362 1456 C 328 1425 325 1417 325 1370 C 325 1323 328 1315 362 1284 C 392 1257 408 1250 441 1250 C 476 1250 489 1256 522 1290 C 560 1328 562 1333 557 1377 C 553 1415 545 1431 516 1457 C 465 1504 414 1503 362 1456 Z M 470 1420 C 490 1409 503 1369 494 1345 C 485 1322 445 1309 416 1319 C 388 1330 377 1365 392 1394 C 411 1430 435 1439 470 1420 Z"
        fill="#3bbcfc"
        stroke-width="1"/>
    <path
        id="path_52"
        d="M 2270 570 C 2259 559 2250 541 2250 530 C 2250 503 2285 470 2313 470 C 2342 470 2370 499 2370 528 C 2370 556 2336 590 2310 590 C 2299 590 2281 581 2270 570 Z M 2330 544 C 2341 532 2340 526 2327 512 C 2311 497 2309 497 2293 512 C 2280 526 2279 532 2290 544 C 2297 553 2306 560 2310 560 C 2314 560 2323 553 2330 544 Z"
        fill="#3bbcfc"
        stroke-width="1"/>
</svg>
