<svg width="100" height="100" xmlns="http://www.w3.org/2000/svg" data-name="Layer 1">

    <g>
        <title>Layer 1</title>
        <g id="svg_1" opacity="0.1" class="cls-1">
            <circle id="svg_2" fill="#4db5ac" r="50" cy="50" cx="50" class="cls-2"/>
        </g>
        <line id="svg_3" stroke-width="4px" stroke-linejoin="round" stroke-linecap="round" stroke="#4db5ac" fill="none" y2="72.15" x2="52.99" y1="72.15" x1="27.88" class="cls-3"/>
        <line id="svg_4" stroke-width="4px" stroke-linejoin="round" stroke-linecap="round" stroke="#4db5ac" fill="none" y2="61.52" x2="44.93" y1="61.52" x1="27.88" class="cls-3"/>
        <path id="svg_5" stroke-width="4px" stroke-linejoin="round" stroke-linecap="round" stroke="#4db5ac" fill="none" d="m66.22,57.84l0,19.94a4.1,4.1 0 0 1 -4.11,4.1l-41.9,0a4.1,4.1 0 0 1 -4.11,-4.1l0,-55.66a4,4 0 0 1 4,-4l42,0a4.1,4.1 0 0 1 4.11,4.1l0,19.54" class="cls-3"/>
        <polyline id="svg_6" stroke-width="4px" stroke-linejoin="round" stroke-linecap="round" stroke="#4db5ac" fill="none" points="47.38 42.9 47.38 48.94 27.88 48.94 27.88 29.43 42.2 29.43" class="cls-3"/>
        <polyline id="svg_7" stroke-width="4px" stroke-linejoin="round" stroke-linecap="round" stroke="#4db5ac" fill="none" points="52.21 27.94 45.94 35.75 39.67 43.57 33.4 35.75" class="cls-3"/>
        <path id="svg_8" stroke-width="4px" stroke-linejoin="round" stroke-linecap="round" stroke="#4db5ac" fill="none" d="m54.21,66l0,0l3.42,-10.74l17.23,-22.65l2.24,-2.95a3.8,3.8 0 0 1 5.31,-0.72l0,0a3.8,3.8 0 0 1 0.72,5.31l-2.25,3l-17.24,22.6l-9.43,6.15z" class="cls-3"/>
        <line id="svg_9" stroke-width="4px" stroke-linejoin="round" stroke-linecap="round" stroke="#4db5ac" fill="none" y2="59.77" x2="63.7" y1="55.18" x1="57.68" class="cls-3"/>
        <line id="svg_10" stroke-width="4px" stroke-linejoin="round" stroke-linecap="round" stroke="#4db5ac" fill="none" y2="37.17" x2="80.91" y1="32.58" x1="74.88" class="cls-3"/>
    </g>
</svg>