<svg width="100" height="100" xmlns="http://www.w3.org/2000/svg" data-name="Layer 1">

    <g>
        <title>Layer 1</title>
        <g id="svg_1" opacity="0.1" class="cls-1">
            <circle id="svg_2" fill="#4db5ac" r="50" cy="50" cx="50" class="cls-2"/>
        </g>
        <path id="svg_3" stroke-width="4px" stroke-linejoin="round" stroke-linecap="round" stroke="#4db5ac" fill="none" d="m58.28,81.93l-29.62,0a4.18,4.18 0 0 1 -4.18,-4.19l0,-56.58a4.18,4.18 0 0 1 4.18,-4.16l32.69,0l0,14.14l14.17,0l0,19.77" class="cls-3"/>
        <path id="svg_4" stroke-width="4px" stroke-linejoin="round" stroke-linecap="round" stroke="#4db5ac" fill="none" d="m41.72,81.93l29.62,0a4.18,4.18 0 0 0 4.18,-4.19l0,-31.61" class="cls-3"/>
        <line id="svg_5" stroke-width="4px" stroke-linejoin="round" stroke-linecap="round" stroke="#4db5ac" fill="none" y2="30.3" x2="75.52" y1="16.98" x1="62.19" class="cls-3"/>
        <line id="svg_6" stroke-width="4px" stroke-linejoin="round" stroke-linecap="round" stroke="#4db5ac" fill="none" y2="42.2" x2="62.53" y1="42.2" x1="36.95" class="cls-3"/>
        <line id="svg_7" stroke-width="4px" stroke-linejoin="round" stroke-linecap="round" stroke="#4db5ac" fill="none" y2="64.81" x2="62.53" y1="64.81" x1="36.95" class="cls-3"/>
        <line id="svg_8" stroke-width="4px" stroke-linejoin="round" stroke-linecap="round" stroke="#4db5ac" fill="none" y2="53.99" x2="54.32" y1="53.99" x1="36.95" class="cls-3"/>
    </g>
</svg>