<svg width="100" height="100" xmlns="http://www.w3.org/2000/svg" data-name="Layer 1">

    <g>
        <title>Layer 1</title>
        <g id="svg_1" opacity="0.1" class="cls-1">
            <circle id="svg_2" fill="#4db5ac" r="50" cy="50" cx="50" class="cls-2"/>
        </g>
        <line id="svg_3" stroke-width="4px" stroke-linejoin="round" stroke-linecap="round" stroke="#4db5ac" fill="none" y2="73.2" x2="65.1" y1="73.2" x1="38.8" class="cls-3"/>
        <line id="svg_4" stroke-width="4px" stroke-linejoin="round" stroke-linecap="round" stroke="#4db5ac" fill="none" y2="63.71" x2="64.47" y1="63.71" x1="38.8" class="cls-3"/>
        <rect id="svg_5" stroke-width="4px" stroke-linejoin="round" stroke-linecap="round" stroke="#4db5ac" fill="none" rx="4" height="66.8" width="52.51" y="16.6" x="25.59" class="cls-3"/>
        <path id="svg_6" stroke-width="2px" stroke-linejoin="round" stroke-linecap="round" stroke="#4db5ac" fill="none" d="m48.56,49.66l6.31,0a0,0 0 0 1 0,0l0,2a3.16,3.16 0 0 1 -3.16,3.16l0,0a3.16,3.16 0 0 1 -3.16,-3.16l0,-2a0,0 0 0 1 0,0l0.01,0z" class="cls-4"/>
        <path id="svg_7" stroke-width="2px" stroke-linejoin="round" stroke-linecap="round" stroke="#4db5ac" fill="none" d="m58.85,36.69a7.16,7.16 0 1 0 -11.73,5.51a1.85,1.85 0 0 1 0.66,1.14l0.48,2.86a1.47,1.47 0 0 0 1.45,1.23l4,0a1.46,1.46 0 0 0 1.45,-1.23l0.48,-2.86a1.87,1.87 0 0 1 0.67,-1.14a7.18,7.18 0 0 0 2.54,-5.51z" class="cls-4"/>
        <polyline id="svg_8" stroke-width="2px" stroke-linejoin="round" stroke-linecap="round" stroke="#4db5ac" fill="none" points="48.68 38.68 51.64 41.64 54.7 38.58" class="cls-4"/>
        <line id="svg_9" stroke-width="2px" stroke-linejoin="round" stroke-linecap="round" stroke="#4db5ac" fill="none" y2="41.67" x2="51.69" y1="47.43" x1="51.69" class="cls-4"/>
        <line id="svg_10" stroke-width="2px" stroke-linejoin="round" stroke-linecap="round" stroke="#4db5ac" fill="none" y2="26.17" x2="52.01" y1="23.35" x1="52.01" class="cls-4"/>
        <line id="svg_11" stroke-width="2px" stroke-linejoin="round" stroke-linecap="round" stroke="#4db5ac" fill="none" y2="23.35" x2="52.01" y1="26.17" x1="52.01" class="cls-4"/>
        <line id="svg_12" stroke-width="2px" stroke-linejoin="round" stroke-linecap="round" stroke="#4db5ac" fill="none" y2="24.36" x2="56.43" y1="27.01" x1="55.58" class="cls-4"/>
        <line id="svg_13" stroke-width="2px" stroke-linejoin="round" stroke-linecap="round" stroke="#4db5ac" fill="none" y2="27.01" x2="60.29" y1="29.17" x1="58.68" class="cls-4"/>
        <line id="svg_14" stroke-width="2px" stroke-linejoin="round" stroke-linecap="round" stroke="#4db5ac" fill="none" y2="30.99" x2="63.1" y1="32.4" x1="60.93" class="cls-4"/>
        <line id="svg_15" stroke-width="2px" stroke-linejoin="round" stroke-linecap="round" stroke="#4db5ac" fill="none" y2="30.34" x2="40.58" y1="31.76" x1="42.75" class="cls-4"/>
        <line id="svg_16" stroke-width="2px" stroke-linejoin="round" stroke-linecap="round" stroke="#4db5ac" fill="none" y2="26.53" x2="43.57" y1="28.69" x1="45.18" class="cls-4"/>
        <line id="svg_17" stroke-width="2px" stroke-linejoin="round" stroke-linecap="round" stroke="#4db5ac" fill="none" y2="24.1" x2="47.54" y1="26.76" x1="48.4" class="cls-4"/>
    </g>
</svg>