<svg width="100" height="100" xmlns="http://www.w3.org/2000/svg" data-name="Layer 1">

    <g>
        <title>Layer 1</title>
        <g id="svg_1" opacity="0.1" class="cls-1">
            <circle id="svg_2" fill="#4db5ac" r="50" cy="50" cx="50" class="cls-2" />
        </g>
        <path id="svg_3" stroke-width="4px" stroke-linejoin="round" stroke-linecap="round"
            stroke="#4db5ac" fill="none"
            d="m44,26.94l0,-6.94a3.24,3.24 0 0 1 3.24,-3.24l25.31,0l0,11l11,0l0,15.24"
            class="cls-3" />
        <path id="svg_4" stroke-width="4px" stroke-linejoin="round" stroke-linecap="round"
            stroke="#4db5ac" fill="none" d="m74.69,67l5.59,0a3.24,3.24 0 0 0 3.24,-3.24l0,-24.47"
            class="cls-3" />
        <line id="svg_5" stroke-width="4px" stroke-linejoin="round" stroke-linecap="round"
            stroke="#4db5ac" fill="none" y2="27.04" x2="83.52" y1="16.73" x1="73.2" class="cls-3" />
        <line id="svg_6" stroke-width="4px" stroke-linejoin="round" stroke-linecap="round"
            stroke="#4db5ac" fill="none" y2="36.25" x2="78.19" y1="36.25" x1="63.05"
            class="cls-3" />
        <line id="svg_7" stroke-width="4px" stroke-linejoin="round" stroke-linecap="round"
            stroke="#4db5ac" fill="none" y2="53.76" x2="78.19" y1="53.76" x1="63.05"
            class="cls-3" />
        <line id="svg_8" stroke-width="4px" stroke-linejoin="round" stroke-linecap="round"
            stroke="#4db5ac" fill="none" y2="45.38" x2="73.33" y1="45.38" x1="63.05"
            class="cls-3" />
        <path id="svg_9" stroke-width="4px" stroke-linejoin="round" stroke-linecap="round"
            stroke="#4db5ac" fill="none"
            d="m44.54,78.51l-22.94,0a3.23,3.23 0 0 1 -3.24,-3.24l0,-43.8a3.24,3.24 0 0 1 3.24,-3.24l25.31,0l0,11l11,0l0,15.27"
            class="cls-3" />
        <line id="svg_10" stroke-width="4px" stroke-linejoin="round" stroke-linecap="round"
            stroke="#4db5ac" fill="none" y2="38.54" x2="57.88" y1="28.23" x1="47.56"
            class="cls-3" />
        <line id="svg_11" stroke-width="4px" stroke-linejoin="round" stroke-linecap="round"
            stroke="#4db5ac" fill="none" y2="47.75" x2="42.24" y1="47.75" x1="25.61"
            class="cls-3" />
        <line id="svg_12" stroke-width="4px" stroke-linejoin="round" stroke-linecap="round"
            stroke="#4db5ac" fill="none" y2="65.26" x2="38.97" y1="65.26" x1="25.61"
            class="cls-3" />
        <line id="svg_13" stroke-width="4px" stroke-linejoin="round" stroke-linecap="round"
            stroke="#4db5ac" fill="none" y2="56.88" x2="36.9" y1="56.88" x1="25.61" class="cls-3" />
        <line id="svg_14" stroke-width="4px" stroke-linejoin="round" stroke-linecap="round"
            stroke="#4db5ac" fill="none" y2="74.16" x2="69.5" y1="74.16" x1="53.42" class="cls-3" />
        <polyline id="svg_15" stroke-width="4px" stroke-linejoin="round" stroke-linecap="round"
            stroke="#4db5ac" fill="none"
            points="67.06 68.61 70.19 71.38 73.32 74.16 70.19 76.94 67.06 79.71" class="cls-3" />
        <line id="svg_16" stroke-width="4px" stroke-linejoin="round" stroke-linecap="round"
            stroke="#4db5ac" fill="none" y2="63.12" x2="49.64" y1="63.12" x1="63.48"
            class="cls-3" />
        <polyline id="svg_17" stroke-width="4px" stroke-linejoin="round" stroke-linecap="round"
            stroke="#4db5ac" fill="none"
            points="52.08 68.67 48.95 65.9 45.83 63.12 48.95 60.34 52.08 57.57" class="cls-3" />
    </g>
</svg>