<svg width="100" height="100" xmlns="http://www.w3.org/2000/svg" data-name="Layer 1">

    <g>
        <title>Layer 1</title>
        <g id="svg_1" opacity="0.1" class="cls-1">
            <circle id="svg_2" fill="#4db5ac" r="50" cy="50" cx="50" class="cls-2" />
        </g>
        <path id="svg_3" stroke-width="4px" stroke-linejoin="round" stroke-linecap="round"
            stroke="#4db5ac" fill="none"
            d="m65.9,44.71l0,-22.16a4.06,4.06 0 0 0 -4.06,-4.06l-41.49,0a4,4 0 0 0 -4,4l0,55a4.05,4.05 0 0 0 4.05,4.06l41.44,0a4.06,4.06 0 0 0 4.06,-4.06l0,-18.89"
            class="cls-3" />
        <line id="svg_4" stroke-width="4px" stroke-linejoin="round" stroke-linecap="round"
            stroke="#4db5ac" fill="none" y2="51.62" x2="53.29" y1="51.62" x1="28.48"
            class="cls-3" />
        <line id="svg_5" stroke-width="4px" stroke-linejoin="round" stroke-linecap="round"
            stroke="#4db5ac" fill="none" y2="34.65" x2="53.29" y1="34.65" x1="28.48"
            class="cls-3" />
        <line id="svg_6" stroke-width="4px" stroke-linejoin="round" stroke-linecap="round"
            stroke="#4db5ac" fill="none" y2="68.58" x2="39.48" y1="68.58" x1="28.48"
            class="cls-3" />
        <path id="svg_7" stroke-width="3.21px" stroke-linejoin="round" stroke-linecap="round"
            stroke="#4db5ac" fill="none"
            d="m54,67.3l0,0l3.42,-10.74l17.19,-22.64l2.24,-3a3.79,3.79 0 0 1 5.31,-0.72l0,0a3.8,3.8 0 0 1 0.72,5.31l-2.25,2.95l-17.24,22.7l-9.39,6.14z"
            class="cls-4" />
        <line id="svg_8" stroke-width="3.21px" stroke-linejoin="round" stroke-linecap="round"
            stroke="#4db5ac" fill="none" y2="61.08" x2="63.45" y1="56.49" x1="57.43"
            class="cls-4" />
        <line id="svg_9" stroke-width="3.21px" stroke-linejoin="round" stroke-linecap="round"
            stroke="#4db5ac" fill="none" y2="38.48" x2="80.66" y1="33.89" x1="74.63"
            class="cls-4" />
    </g>
</svg>