<svg width="100" height="100" xmlns="http://www.w3.org/2000/svg" data-name="Layer 1">

    <g>
        <title>Layer 1</title>
        <g id="svg_1" opacity="0.1" class="cls-1">
            <circle id="svg_2" fill="#4db5ac" r="50" cy="50" cx="50" class="cls-2" />
        </g>
        <line id="svg_3" stroke-width="4px" stroke-linejoin="round" stroke-linecap="round"
            stroke="#4db5ac" fill="none" y2="72.89" x2="53.33" y1="72.89" x1="28.06"
            class="cls-3" />
        <line id="svg_4" stroke-width="4px" stroke-linejoin="round" stroke-linecap="round"
            stroke="#4db5ac" fill="none" y2="63.76" x2="52.53" y1="63.76" x1="28.06"
            class="cls-3" />
        <line id="svg_5" stroke-width="4px" stroke-linejoin="round" stroke-linecap="round"
            stroke="#4db5ac" fill="none" y2="55.2" x2="39.5" y1="55.2" x1="28.06" class="cls-3" />
        <line id="svg_6" stroke-width="4px" stroke-linejoin="round" stroke-linecap="round"
            stroke="#4db5ac" fill="none" y2="47.53" x2="34.79" y1="47.53" x1="28.06"
            class="cls-3" />
        <path id="svg_7" stroke-width="4px" stroke-linejoin="round" stroke-linecap="round"
            stroke="#4db5ac" fill="none"
            d="m63.32,56.74l0,21a3.53,3.53 0 0 1 -3.53,3.53l-36,0a3.53,3.53 0 0 1 -3.53,-3.53l0,-47.74a3.53,3.53 0 0 1 3.53,-3.53l22,0"
            class="cls-3" />
        <path id="svg_8" stroke-width="2px" stroke-linejoin="round" stroke-linecap="round"
            stroke="#4db5ac" fill="none"
            d="m67.22,35a10,10 0 0 0 0.66,-2l2.24,-0.65a12.13,12.13 0 0 0 0,-3l-2.24,-0.65a10,10 0 0 0 -0.66,-2l1.43,-1.84a12.09,12.09 0 0 0 -1.74,-2.39l-2.19,0.79a10.65,10.65 0 0 0 -1.72,-1.26l0.07,-2.33a12.08,12.08 0 0 0 -2.8,-0.91l-1.27,1.92a9.46,9.46 0 0 0 -1.07,-0.06a9.28,9.28 0 0 0 -1.06,0.06l-1.31,-1.93a12,12 0 0 0 -2.81,0.91l0.04,2.34a10.73,10.73 0 0 0 -1.73,1.25l-2.19,-0.79a12.09,12.09 0 0 0 -1.74,2.39l1.43,1.84a10,10 0 0 0 -0.66,2l-2.24,0.65a12.13,12.13 0 0 0 0,3l2.24,0.66a10,10 0 0 0 0.66,2l-1.43,1.84a12.09,12.09 0 0 0 1.74,2.39l2.19,-0.79a10.73,10.73 0 0 0 1.73,1.25l-0.08,2.31a12,12 0 0 0 2.81,0.91l1.31,-1.91a9.28,9.28 0 0 0 1.06,0.06a9.46,9.46 0 0 0 1.11,-0.06l1.31,1.93a12.08,12.08 0 0 0 2.8,-0.91l-0.11,-2.34a10.65,10.65 0 0 0 1.72,-1.25l2.19,0.79a12.09,12.09 0 0 0 1.74,-2.39l-1.43,-1.83z"
            class="cls-4" />
        <circle id="svg_9" stroke-width="2px" stroke-linejoin="round" stroke-linecap="round"
            stroke="#4db5ac" fill="none" r="6.42" cy="30.84" cx="57.89" class="cls-4" />
        <path id="svg_10" stroke-width="2px" stroke-linejoin="round" stroke-linecap="round"
            stroke="#4db5ac" fill="none"
            d="m78.21,50.82a6.62,6.62 0 0 0 0.11,-1.48l1.42,-0.81a9.09,9.09 0 0 0 -0.18,-1a8.13,8.13 0 0 0 -0.31,-1l-1.63,-0.08a6.79,6.79 0 0 0 -0.78,-1.26l0.67,-1.49a8.43,8.43 0 0 0 -1.58,-1.34l-1.36,0.9a6.68,6.68 0 0 0 -1.38,-0.57l-0.33,-1.6a8.82,8.82 0 0 0 -2.06,-0.16l-0.57,1.53c-0.25,0 -0.49,0.08 -0.73,0.14s-0.49,0.13 -0.72,0.21l-1.21,-1.09a8.31,8.31 0 0 0 -1.76,1.08l0.44,1.57a7.5,7.5 0 0 0 -1,1.14l-1.62,-0.18a8.64,8.64 0 0 0 -0.79,1.91l1.28,1a7.37,7.37 0 0 0 -0.12,1.5l-1.41,0.81a9.09,9.09 0 0 0 0.18,1a8.13,8.13 0 0 0 0.31,1l1.62,0.07a7.13,7.13 0 0 0 0.79,1.27l-0.67,1.49a8.7,8.7 0 0 0 1.57,1.34l1.37,-0.9a7.16,7.16 0 0 0 1.37,0.56l0.37,1.62a8.31,8.31 0 0 0 2.06,0.16l0.57,-1.53a6.26,6.26 0 0 0 0.73,-0.14a5.46,5.46 0 0 0 0.72,-0.21l1.21,1.1a8.67,8.67 0 0 0 1.75,-1.08l-0.43,-1.58a6.91,6.91 0 0 0 1,-1.13l1.63,0.17a9.15,9.15 0 0 0 0.79,-1.91l-1.32,-1.03z"
            class="cls-4" />
        <circle id="svg_11" stroke-width="2px" stroke-linejoin="round" stroke-linecap="round"
            stroke="#4db5ac" fill="none" r="4.49" cy="49.54" cx="71.18" class="cls-4" />
    </g>
</svg>