<svg width="100" height="100" xmlns="http://www.w3.org/2000/svg" data-name="Layer 1">

    <g>
        <title>Layer 1</title>
        <g id="svg_1" opacity="0.1" class="cls-1">
            <circle id="svg_2" fill="#4db5ac" r="50" cy="50" cx="50" class="cls-2" />
        </g>
        <path id="svg_3" stroke-width="4px" stroke-linejoin="round" stroke-linecap="round"
            stroke="#4db5ac" fill="none"
            d="m68.61,75.59l-18.28,0l-17.83,4.83a4,4 0 0 1 -5.11,-3.84l0,-51.07a4,4 0 0 1 5.06,-3.86l18,4.93l18.16,0a4,4 0 0 1 4,4l0,41a4,4 0 0 1 -4,4.01z"
            class="cls-3" />
        <line id="svg_4" stroke-width="4px" stroke-linejoin="round" stroke-linecap="round"
            stroke="#4db5ac" fill="none" y2="38.63" x2="66.84" y1="38.63" x1="55" class="cls-3" />
        <line id="svg_5" stroke-width="4px" stroke-linejoin="round" stroke-linecap="round"
            stroke="#4db5ac" fill="none" y2="51.04" x2="66.84" y1="51.04" x1="55" class="cls-3" />
        <line id="svg_6" stroke-width="4px" stroke-linejoin="round" stroke-linecap="round"
            stroke="#4db5ac" fill="none" y2="63.45" x2="66.84" y1="63.45" x1="55" class="cls-3" />
        <line id="svg_7" stroke-width="4px" stroke-linejoin="round" stroke-linecap="round"
            stroke="#4db5ac" fill="none" y2="51.04" x2="38.58" y1="51.04" x1="27.34"
            class="cls-3" />
        <polyline id="svg_8" stroke-width="4px" stroke-linejoin="round" stroke-linecap="round"
            stroke="#4db5ac" fill="none"
            points="35.89 44.93 39.34 47.99 42.78 51.04 39.34 54.1 35.89 57.16" class="cls-3" />
    </g>
</svg>