<svg width="100" height="100" xmlns="http://www.w3.org/2000/svg" data-name="Layer 1">

    <g>
        <title>Layer 1</title>
        <g id="svg_1" opacity="0.1" class="cls-1">
            <circle id="svg_2" fill="#4db5ac" r="50" cy="50" cx="50" class="cls-2" />
        </g>
        <polyline id="svg_3" stroke-width="4px" stroke-linejoin="round" stroke-linecap="round"
            stroke="#4db5ac" fill="none" points="78.12 76.4 47.02 76.4 47.02 18.75" class="cls-3" />
        <polyline id="svg_4" stroke-width="4px" stroke-linejoin="round" stroke-linecap="round"
            stroke="#4db5ac" fill="none"
            points="40.97 23.4 44.03 19.96 47.09 16.51 50.15 19.96 53.21 23.4" class="cls-3" />
        <polyline id="svg_5" stroke-width="4px" stroke-linejoin="round" stroke-linecap="round"
            stroke="#4db5ac" fill="none"
            points="75.37 70.6 78.81 73.66 82.26 76.71 78.81 79.77 75.37 82.83" class="cls-3" />
        <line id="svg_6" stroke-width="4px" stroke-linejoin="round" stroke-linecap="round"
            stroke="#4db5ac" fill="none" y2="76.4" x2="52.7" y1="76.4" x1="17.74" class="cls-3" />
        <path id="svg_7" stroke-width="4px" stroke-linejoin="round" stroke-linecap="round"
            stroke="#4db5ac" fill="none"
            d="m73,27.21c0,16.12 -11.37,40.42 -25.39,40.42s-25.35,-24.3 -25.35,-40.42"
            class="cls-3" />
        <line id="svg_8" stroke-width="1.69px" stroke-linejoin="round" stroke-linecap="round"
            stroke="#4db5ac" fill="none" y2="57.4" x2="50.09" y1="57.4" x1="44.09" class="cls-4" />
        <line id="svg_9" stroke-width="1.69px" stroke-linejoin="round" stroke-linecap="round"
            stroke="#4db5ac" fill="none" y2="45.65" x2="50.09" y1="45.65" x1="44.09"
            class="cls-4" />
        <line id="svg_10" stroke-width="1.69px" stroke-linejoin="round" stroke-linecap="round"
            stroke="#4db5ac" fill="none" y2="33.91" x2="50.09" y1="33.91" x1="44.09"
            class="cls-4" />
        <line id="svg_11" stroke-width="1.68px" stroke-linejoin="round" stroke-linecap="round"
            stroke="#4db5ac" fill="none" y2="79.54" x2="55.85" y1="73.54" x1="55.85"
            class="cls-5" />
        <line id="svg_12" stroke-width="1.68px" stroke-linejoin="round" stroke-linecap="round"
            stroke="#4db5ac" fill="none" y2="79.54" x2="67.4" y1="73.54" x1="67.4" class="cls-5" />
        <line id="svg_13" stroke-width="1.68px" stroke-linejoin="round" stroke-linecap="round"
            stroke="#4db5ac" fill="none" y2="79.54" x2="26.4" y1="73.54" x1="26.4" class="cls-5" />
        <line id="svg_14" stroke-width="1.68px" stroke-linejoin="round" stroke-linecap="round"
            stroke="#4db5ac" fill="none" y2="79.54" x2="37.95" y1="73.54" x1="37.95"
            class="cls-5" />
    </g>
</svg>