<svg width="100" height="100" xmlns="http://www.w3.org/2000/svg" data-name="Layer 1">

    <g>
        <title>Layer 1</title>
        <g id="svg_1" opacity="0.1" class="cls-1">
            <circle id="svg_2" fill="#4db5ac" r="50" cy="50" cx="50" class="cls-2" />
        </g>
        <path id="svg_3" stroke-width="4px" stroke-linejoin="round" stroke-linecap="round"
            stroke="#4db5ac" fill="none"
            d="m72.65,26.29a3.71,3.71 0 0 0 -3.71,-3.71l-29,0l0,12.57l-12.59,0l0,41.36a3.71,3.71 0 0 0 3.71,3.71l37.88,0a3.7,3.7 0 0 0 3.71,-3.71l0,-50.22z"
            class="cls-3" />
        <line id="svg_4" stroke-width="4px" stroke-linejoin="round" stroke-linecap="round"
            stroke="#4db5ac" fill="none" y2="34.41" x2="27.35" y1="22.59" x1="39.18"
            class="cls-3" />
        <line id="svg_5" stroke-width="4px" stroke-linejoin="round" stroke-linecap="round"
            stroke="#4db5ac" fill="none" y2="70.28" x2="62.95" y1="70.28" x1="33.58"
            class="cls-3" />
        <path id="svg_6" stroke-width="2px" stroke-linejoin="round" stroke-linecap="round"
            stroke="#4db5ac" fill="none" d="m48.13,41.3s-3.47,-1.51 -5,3.2s0.19,13.5 -4.44,15.5"
            class="cls-4" />
        <line id="svg_7" stroke-width="2px" stroke-linejoin="round" stroke-linecap="round"
            stroke="#4db5ac" fill="none" y2="46.26" x2="41.19" y1="46.26" x1="46.39"
            class="cls-4" />
        <path id="svg_8" stroke-width="2px" stroke-linejoin="round" stroke-linecap="round"
            stroke="#4db5ac" fill="none" d="m56.86,51c-0.08,0 -4.75,4.78 -4.75,4.78"
            class="cls-4" />
        <path id="svg_9" stroke-width="2px" stroke-linejoin="round" stroke-linecap="round"
            stroke="#4db5ac" fill="none" d="m56.88,55.78c-0.06,-0.08 -4.79,-4.78 -4.79,-4.78"
            class="cls-4" />
        <path id="svg_10" stroke-width="2px" stroke-linejoin="round" stroke-linecap="round"
            stroke="#4db5ac" fill="none"
            d="m51.73,59.77c-2.32,-0.61 -4.07,-3.3 -4.07,-6.53c0,-2.84 1.34,-5.24 3.28,-6.24"
            class="cls-4" />
        <path id="svg_11" stroke-width="2px" stroke-linejoin="round" stroke-linecap="round"
            stroke="#4db5ac" fill="none"
            d="m57.24,59.77c2.32,-0.61 4.07,-3.3 4.07,-6.53c0,-2.84 -1.37,-5.24 -3.31,-6.24"
            class="cls-4" />
    </g>
</svg>