<svg width="100" height="100" xmlns="http://www.w3.org/2000/svg" data-name="Layer 1">

    <g>
        <title>Layer 1</title>
        <g id="svg_1" opacity="0.1" class="cls-1">
            <circle id="svg_2" fill="#4db5ac" r="50" cy="50" cx="50" class="cls-2" />
        </g>
        <path id="svg_3" stroke-width="4px" stroke-linejoin="round" stroke-linecap="round"
            stroke="#4db5ac" fill="none"
            d="m69.64,75.38c0,1.71 -0.6,4.74 -3.64,4.74l-36,0a3.61,3.61 0 0 1 -3.61,-3.61l0,-50.7"
            class="cls-3" />
        <path id="svg_4" stroke-width="4px" stroke-linejoin="round" stroke-linecap="round"
            stroke="#4db5ac" fill="none"
            d="m32.59,19.63l38.05,0a3.61,3.61 0 0 1 3.61,3.61l0,46.66a3.61,3.61 0 0 1 -3.61,3.61l-34.45,0a3.61,3.61 0 0 1 -3.61,-3.61l0,-50.27a0,0 0 0 1 0.01,0z"
            class="cls-3" />
        <path id="svg_5" stroke-width="4px" stroke-linejoin="round" stroke-linecap="round"
            stroke="#4db5ac" fill="none"
            d="m31.81,80.14a4.19,4.19 0 0 1 -4,-4.33l0,0a4.1,4.1 0 0 1 4.19,-4.11" class="cls-3" />
        <path id="svg_6" stroke-width="4px" stroke-linejoin="round" stroke-linecap="round"
            stroke="#4db5ac" fill="none" d="m26.37,25.87c0,-5.07 2.81,-6.18 5.64,-6.18"
            class="cls-3" />
        <polygon id="svg_7" stroke-width="4px" stroke-linejoin="round" stroke-linecap="round"
            stroke="#4db5ac" fill="none" points="66.5 50.97 43.15 50.97 43.15 27.61 66.5 50.97"
            class="cls-3" />
        <line id="svg_8" stroke-width="4px" stroke-linejoin="round" stroke-linecap="round"
            stroke="#4db5ac" fill="none" y2="58.6" x2="52.37" y1="58.6" x1="44.4" class="cls-3" />
        <line id="svg_9" stroke-width="4px" stroke-linejoin="round" stroke-linecap="round"
            stroke="#4db5ac" fill="none" y2="58.6" x2="65.25" y1="58.6" x1="57.27" class="cls-3" />
        <line id="svg_10" stroke-width="4px" stroke-linejoin="round" stroke-linecap="round"
            stroke="#4db5ac" fill="none" y2="65.61" x2="65.76" y1="65.61" x1="43.89"
            class="cls-3" />
    </g>
</svg>