<svg width="100" height="100" xmlns="http://www.w3.org/2000/svg" data-name="Layer 1">

    <g>
        <title>Layer 1</title>
        <g id="svg_1" opacity="0.1" class="cls-1">
            <circle id="svg_2" fill="#4db5ac" r="50" cy="50" cx="50" class="cls-2" />
        </g>
        <path id="svg_3" stroke-width="4px" stroke-linejoin="round" stroke-linecap="round"
            stroke="#4db5ac" fill="none"
            d="m77.23,76c-8.4,-4.3 -17.67,-3.91 -27.16,0c-8.72,-3.64 -17.7,-3.31 -27.3,0l-0.43,-5.37l-3.41,-42.9c10.93,-4.75 21.2,-5.15 30.64,0c10.22,-4.52 20.75,-4 31.5,0l-3.41,42.91l-0.43,5.36z"
            class="cls-3" />
        <line id="svg_4" stroke-width="2px" stroke-linejoin="round" stroke-linecap="round"
            stroke="#4db5ac" fill="none" y2="69.65" x2="50" y1="34.22" x1="50" class="cls-4" />
        <path id="svg_5" stroke-width="2px" stroke-linejoin="round" stroke-linecap="round"
            stroke="#4db5ac" fill="none" d="m30.32,48.43a3.26,3.26 0 0 1 2.91,-2.37l8.32,0"
            class="cls-4" />
        <path id="svg_6" stroke-width="2px" stroke-linejoin="round" stroke-linecap="round"
            stroke="#4db5ac" fill="none"
            d="m38.37,47.81l-0.84,7.33a2.72,2.72 0 0 0 0.56,2.07c0.9,1 3,0 3.39,-1.51"
            class="cls-4" />
        <path id="svg_7" stroke-width="2px" stroke-linejoin="round" stroke-linecap="round"
            stroke="#4db5ac" fill="none"
            d="m34.49,47.86l-1.32,7.87a2.55,2.55 0 0 1 -1.08,1.75a1.93,1.93 0 0 1 -2.1,0"
            class="cls-4" />
        <path id="svg_8" stroke-width="2px" stroke-linejoin="round" stroke-linecap="round"
            stroke="#4db5ac" fill="none" d="m61.88,41.94s-3.47,-1.51 -5,3.21s0.18,13.53 -4.45,15.49"
            class="cls-4" />
        <line id="svg_9" stroke-width="2px" stroke-linejoin="round" stroke-linecap="round"
            stroke="#4db5ac" fill="none" y2="46.9" x2="54.93" y1="46.9" x1="60.14" class="cls-4" />
        <path id="svg_10" stroke-width="2px" stroke-linejoin="round" stroke-linecap="round"
            stroke="#4db5ac" fill="none" d="m70.61,51.64c-0.08,0 -4.76,4.79 -4.76,4.79"
            class="cls-4" />
        <path id="svg_11" stroke-width="2px" stroke-linejoin="round" stroke-linecap="round"
            stroke="#4db5ac" fill="none" d="m70.62,56.43c-0.05,-0.08 -4.78,-4.76 -4.78,-4.76"
            class="cls-4" />
        <path id="svg_12" stroke-width="2px" stroke-linejoin="round" stroke-linecap="round"
            stroke="#4db5ac" fill="none"
            d="m65.48,60.41c-2.32,-0.61 -4.07,-3.3 -4.07,-6.53c0,-2.84 1.36,-5.27 3.28,-6.22"
            class="cls-4" />
        <path id="svg_13" stroke-width="2px" stroke-linejoin="round" stroke-linecap="round"
            stroke="#4db5ac" fill="none"
            d="m71,60.41c2.32,-0.61 4.07,-3.3 4.07,-6.53c0,-2.84 -1.36,-5.27 -3.27,-6.22"
            class="cls-4" />
    </g>
</svg>