<?xml version="1.0" encoding="UTF-8" ?>
<svg width="256" height="256" viewBox="0 0 256 256" version="1.1"
    xmlns="http://www.w3.org/2000/svg">
    <g id="#000000ff">
        <path fill="#000000" opacity="1.00"
            d=" M 73.83 0.00 L 76.18 0.00 C 79.97 0.35 83.48 2.16 86.05 4.95 C 123.69 42.63 161.41 80.23 199.02 117.93 C 204.50 123.17 204.51 132.77 198.99 137.98 C 161.19 175.85 123.34 213.65 85.51 251.48 C 83.10 254.02 79.83 255.51 76.39 256.00 L 74.16 256.00 C 66.57 255.38 62.32 248.45 57.17 243.79 C 51.60 238.70 51.39 229.10 56.82 223.84 C 88.72 191.83 120.72 159.92 152.64 127.94 C 120.90 96.14 89.09 64.41 57.35 32.61 C 54.27 29.59 52.48 25.21 53.02 20.88 C 53.36 16.84 55.84 13.41 58.72 10.72 C 63.22 6.51 67.19 0.76 73.83 0.00 Z" />
    </g>
</svg>
