<svg
    xmlns="http://www.w3.org/2000/svg"
    viewBox="0 0 477 477"
    id="vector">
    <path
        id="path"
        d="M 374.099 385.518 C 445.836 310.659 443.306 191.82 368.447 120.083 C 293.588 48.346 174.749 50.877 103.012 125.735 C 33.426 198.35 33.426 312.903 103.012 385.518 L 54.235 450.542 C 48.58 458.083 50.108 468.78 57.648 474.435 C 65.188 480.09 75.886 478.562 81.541 471.022 L 128.816 407.978 C 194.216 455.629 282.894 455.629 348.293 407.978 L 395.568 471.022 C 401.223 478.563 411.921 480.091 419.461 474.435 C 427.002 468.78 428.53 458.082 422.874 450.542 L 374.099 385.518 Z M 255.623 255.982 C 255.623 259.675 254.425 263.268 252.21 266.222 L 201.01 334.489 C 195.355 342.03 184.657 343.558 177.117 337.902 C 169.577 332.246 168.048 321.549 173.704 314.009 L 221.491 250.299 L 221.491 153.582 C 221.491 144.156 229.132 136.515 238.558 136.515 C 247.984 136.515 255.625 144.156 255.625 153.582 L 255.625 255.982 Z"
        fill="#32bea6"/>
    <path
        id="path_1"
        d="M 145.286 24.984 C 111.544 -7.918 57.519 -7.237 24.616 26.505 C -7.698 59.644 -7.702 112.502 24.608 145.646 C 31.273 152.309 42.076 152.309 48.74 145.646 L 145.286 49.117 C 151.949 42.452 151.949 31.649 145.286 24.984 Z"
        fill="#32bea6"/>
    <path
        id="path_2"
        d="M 452.486 24.984 C 419.163 -8.329 365.147 -8.329 331.825 24.984 C 325.162 31.649 325.162 42.452 331.825 49.116 L 428.354 145.645 C 435.019 152.308 445.822 152.308 452.486 145.645 C 485.799 112.323 485.799 58.307 452.486 24.984 Z"
        fill="#32bea6"/>
</svg>
