<svg width="100" height="100" xmlns="http://www.w3.org/2000/svg" data-name="Layer 1">

    <g>
        <title>Layer 1</title>
        <path id="svg_1" fill="#74ccbd"
            d="m50,13.76l0,72.6l-24.9,0a4.87,4.87 0 0 1 -4.88,-4.88l0,-62.83a4.89,4.89 0 0 1 4.88,-4.89l24.9,0z"
            class="cls-1" />
        <path id="svg_2" fill="#5ec5b4"
            d="m75.85,13.64a3.91,3.91 0 0 1 3.93,3.9l0,63.94a4.87,4.87 0 0 1 -4.88,4.88l-24.9,0l0,-72.6l25.85,-0.12z"
            class="cls-2" />
        <rect id="svg_3" fill="#fff" height="14.78" width="47.77" y="19.57" x="26.12"
            class="cls-3" />
        <rect id="svg_4" fill="#fff" rx="2" height="6.26" width="9.13" y="40.31" x="26.45"
            class="cls-3" />
        <rect id="svg_5" fill="#fff" rx="2" height="6.26" width="9.13" y="40.31" x="39.11"
            class="cls-3" />
        <rect id="svg_6" fill="#fff" rx="2" height="6.26" width="9.13" y="40.31" x="51.77"
            class="cls-3" />
        <rect id="svg_7" fill="#fff" rx="2" height="6.26" width="9.13" y="40.31" x="64.43"
            class="cls-3" />
        <rect id="svg_8" fill="#fff" rx="2" height="6.26" width="9.13" y="51.3" x="26.45"
            class="cls-3" />
        <rect id="svg_9" fill="#fff" rx="2" height="6.26" width="9.13" y="51.3" x="39.11"
            class="cls-3" />
        <rect id="svg_10" fill="#fff" rx="2" height="6.26" width="9.13" y="51.3" x="51.77"
            class="cls-3" />
        <rect id="svg_11" fill="#fff" rx="2" height="6.26" width="9.13" y="51.3" x="64.43"
            class="cls-3" />
        <rect id="svg_12" fill="#fff" rx="2" height="6.26" width="9.13" y="62.29" x="26.45"
            class="cls-3" />
        <rect id="svg_13" fill="#fff" rx="2" height="6.26" width="9.13" y="62.29" x="39.11"
            class="cls-3" />
        <rect id="svg_14" fill="#fff" rx="2" height="6.26" width="9.13" y="62.29" x="51.77"
            class="cls-3" />
        <rect id="svg_15" fill="#fff" rx="2" height="6.26" width="9.13" y="62.29" x="64.43"
            class="cls-3" />
        <rect id="svg_16" fill="#fff" rx="2" height="6.26" width="21.79" y="73.28" x="26.45"
            class="cls-3" />
        <rect id="svg_17" fill="#fff" rx="2" height="6.26" width="9.13" y="73.28" x="51.77"
            class="cls-3" />
        <rect id="svg_18" fill="#ee8d4d" rx="2" height="6.26" width="9.13" y="73.28" x="64.43"
            class="cls-4" />
    </g>
</svg>