<svg xmlns="http://www.w3.org/2000/svg" viewBox="0 0 128 128" id="vector">
    <path id="path"
        d="M 27.82 0 L 100.06 0 C 104.67 0.18 108.34 4.28 107.97 8.88 C 108.02 45.63 108.03 82.39 107.96 119.14 C 108.33 123.7 104.71 127.76 100.16 128 L 27.95 128 C 23.34 127.83 19.68 123.74 20.03 119.14 C 19.98 82.38 19.97 45.6 20.04 8.84 C 19.68 4.29 23.28 0.25 27.82 0 M 28 16 C 28 45.33 28 74.67 28 104 C 52 104 76 104 100 104 C 100 74.67 100 45.34 100 16 C 76 16 52 16 28 16 Z"
        fill="#000000" />
    <path id="path_1"
        d="M 38.37 32.38 C 44.47 31.63 50.74 31.97 56.89 32.18 C 61.83 33.74 59.47 40.16 60 44 C 59.46 47.83 61.81 54.18 56.95 55.81 C 51 56.14 44.99 56.15 39.04 55.81 C 34.17 54.16 36.54 47.79 36 43.95 C 36.53 40.19 34.38 34.73 38.37 32.38 Z"
        fill="#000000" />
    <path id="path_2"
        d="M 70.3 32.41 C 75.84 31.51 81.55 32.18 87.16 32.02 C 89.5 31.74 92.03 33.44 91.92 35.96 C 92.07 41.33 92.08 46.71 91.92 52.08 C 92 54.6 89.47 56.27 87.13 55.98 C 81.57 55.85 75.92 56.44 70.4 55.63 C 66.37 53.31 68.53 47.8 68 44.02 C 68.54 40.25 66.39 34.82 70.3 32.41 Z"
        fill="#000000" />
    <path id="path_3"
        d="M 38.35 64.39 C 43.87 63.53 49.55 64.17 55.14 64.02 C 57.94 63.6 60.4 66.07 59.98 68.88 C 59.83 74.46 60.47 80.14 59.61 85.67 C 57.23 89.6 51.8 87.47 48.05 88 C 44.26 87.46 38.77 89.63 36.39 85.65 C 35.53 81.18 36.22 76.57 35.97 72.05 C 36.08 69.42 35.39 65.74 38.35 64.39 Z"
        fill="#000000" />
</svg>
