<?xml version="1.0" encoding="UTF-8" ?>
<svg width="256" height="256" viewBox="0 0 256 256" version="1.1"
    xmlns="http://www.w3.org/2000/svg">
    <g id="#000000ff">
        <path fill="#000000" opacity="1.00"
            d=" M 177.17 0.00 L 179.11 0.00 C 179.32 5.35 179.25 10.77 178.07 16.02 C 175.43 29.45 166.85 40.90 156.77 49.80 C 148.74 56.62 138.07 59.80 127.61 59.01 C 126.84 47.07 129.89 34.78 137.07 25.11 C 146.09 11.57 161.24 2.65 177.17 0.00 Z" />
        <path fill="#000000" opacity="1.00"
            d=" M 78.95 62.94 C 92.02 60.77 104.93 65.30 116.86 70.19 C 122.66 72.72 129.35 74.77 135.55 72.36 C 148.60 67.49 161.83 61.82 176.00 61.77 C 195.15 62.27 215.12 70.63 225.60 87.31 C 215.47 93.83 206.40 102.73 201.95 114.12 C 196.63 127.72 197.09 143.30 202.00 156.95 C 207.13 171.13 219.13 181.68 232.50 187.99 C 225.98 207.77 214.87 225.72 201.66 241.71 C 195.61 248.74 187.49 254.77 177.95 255.50 C 167.26 256.67 157.48 251.45 147.61 248.27 C 141.03 245.82 133.86 245.09 126.92 246.06 C 115.11 247.75 104.64 254.26 92.85 256.00 L 87.56 256.00 C 78.54 254.46 71.02 248.55 64.87 242.09 C 39.78 214.26 24.71 177.50 23.62 140.00 C 23.14 120.69 28.49 100.85 40.68 85.63 C 50.05 73.67 64.02 65.55 78.95 62.94 Z" />
    </g>
</svg>
