<svg width="409" height="409" xmlns="http://www.w3.org/2000/svg" xml:space="preserve" version="1.1">

 <g>
  <title>Layer 1</title>
     <g id="_x23_ef5350ff">
   <path id="svg_1" fill="#EF5350"
       d="m0,409l0,-409l409,0l0,1.5c-135.9,135.8 -271.7,271.7 -407.5,407.5l-1.5,0m77.8,-132.9c0.4,1.9 3.2,2.9 4.5,1.2c4.3,-4.4 8.8,-8.5 12.9,-13.1c-3.4,-7.7 -6.3,-15.6 -9.5,-23.4c7.1,-7.1 14.1,-14.4 21.3,-21.4c7.7,3.3 15.5,6.4 23.3,9.7c4.6,-4 8.7,-8.6 13.1,-12.9c1.2,-0.9 0.4,-2.4 0.4,-3.6c-30.9,-12.6 -61.6,-25.3 -92.4,-37.6c-3.6,3.6 -7.3,7.1 -10.7,10.9c12.2,30.1 24.9,60 37.1,90.2m45.1,-104.1c10.4,10.2 20.5,20.8 31,30.9c0.7,0 2,-0.1 2.7,-0.1c4.1,-3.9 8.1,-8 12.1,-12c7.6,-8 15.6,-16.2 19.1,-26.9c6.2,-19 -2.3,-41.1 -18.7,-52.1c-12.1,-8.5 -28.4,-11.4 -42.3,-6c-14.1,5.8 -24,17.9 -34.6,28.3c-1.2,1.3 -3.2,2.7 -2.3,4.8c10.8,11.3 22.1,22 33,33.1m40.6,-94c1.3,8.5 7.6,15.8 15.3,19.3c5,2.4 10.7,2.5 16.1,1.8c8.2,-1.5 14.7,-7.5 22.9,-8.9c5.1,-1 9.8,2.7 11.7,7.2c2.3,7 -4.6,14.7 -11.8,13.8c-2.7,0.2 -4.3,-2.3 -6.8,-3c-1.8,0.3 -2.8,1.9 -4,3c-3.1,3.3 -6.6,6.3 -9.5,9.8c-0.7,2.5 1.8,3.8 3.4,5.1c6.6,5 15.4,6.1 23.4,4.6c9.5,-1.9 17.9,-8.5 22.1,-17.2c3.6,-7.7 4,-16.9 1,-24.9c-3.3,-8.4 -10.7,-15.2 -19.5,-17.6c-8.9,-2.3 -18.1,0.6 -26,4.8c-3.8,1.7 -7.6,4.2 -11.9,4.1c-3.4,0.1 -6.1,-2.9 -7.1,-5.9c-1.8,-4.8 3.2,-9.9 8,-9.6c2.6,-0.2 4.6,1.8 7,2.6c4.4,-4.3 8.9,-8.5 13,-13.1c0,-0.4 -0.1,-1.3 -0.1,-1.7c-2.8,-3.8 -7.4,-5.9 -11.9,-7.2c-7.6,-1.5 -16,-0.8 -22.6,3.5c-9.5,6 -15,18.2 -12.7,29.5z"
       class="st0" />
         <path id="svg_2" fill="#EF5350"
             d="m68.3,203.6c-0.1,-0.4 -0.2,-1.2 -0.2,-1.6c6.5,2.6 12.7,5.9 19,8.9c-3.2,3.6 -6.6,7.2 -10.3,10.3c-2.9,-5.8 -5.7,-11.7 -8.5,-17.6z"
             class="st0" />
         <path id="svg_3" fill="#EF5350"
             d="m152.6,173.3c-11.8,-12.1 -24,-23.9 -35.8,-36.1c6.3,-6 13.2,-12.6 22.1,-13.8c16,-2.2 31.8,12.4 30.6,28.6c-0.3,9.8 -7.4,17.1 -13.6,23.8c-1.4,-0.1 -2.2,-1.7 -3.3,-2.5z"
             class="st0" />
  </g>
     <g id="_x23_f1d863ff">
   <path id="svg_4" fill="#F1D863"
       d="m77.8,276.1c-12.2,-30.1 -24.8,-60.1 -37.1,-90.1c3.4,-3.8 7.1,-7.3 10.7,-10.9c30.9,12.3 61.6,24.9 92.3,37.5c0,1.2 0.8,2.7 -0.4,3.6c-4.4,4.3 -8.5,8.9 -13.1,12.9c-7.7,-3.3 -15.5,-6.4 -23.3,-9.7c-7.2,7 -14.2,14.2 -21.3,21.4c3.2,7.8 6.1,15.7 9.5,23.4c-4.1,4.6 -8.6,8.8 -12.9,13.1c-1.2,1.6 -4.1,0.7 -4.4,-1.2m-9.5,-72.5c2.8,5.9 5.6,11.8 8.4,17.6c3.8,-3.1 7.1,-6.7 10.3,-10.3c-6.3,-3 -12.5,-6.2 -19,-8.9c0.2,0.5 0.3,1.2 0.3,1.6z"
       class="st1" />
         <path id="svg_5" fill="#F1D863"
             d="m122.9,172c-10.9,-11.1 -22.2,-21.9 -33,-33.1c-0.9,-2.1 1,-3.4 2.3,-4.8c10.7,-10.4 20.5,-22.5 34.6,-28.3c13.9,-5.4 30.3,-2.6 42.3,6c16.4,11 24.9,33.1 18.7,52.1c-3.4,10.7 -11.5,18.9 -19.1,26.9c-4,4 -8,8.1 -12.1,12c-0.7,0 -2,0.1 -2.7,0.1c-10.5,-10.1 -20.6,-20.6 -31,-30.9m29.7,1.3c1.1,0.9 1.8,2.5 3.4,2.5c6.1,-6.8 13.2,-14.1 13.6,-23.8c1.2,-16.1 -14.7,-30.8 -30.6,-28.6c-9,1.2 -15.8,7.8 -22.1,13.8c11.7,12.1 23.9,23.9 35.7,36.1z"
             class="st1" />
         <path id="svg_6" fill="#F1D863"
             d="m163.5,78c-2.4,-11.2 3.1,-23.4 12.8,-29.5c6.6,-4.3 15,-5 22.6,-3.5c4.4,1.3 9.1,3.4 11.9,7.2c0,0.4 0.1,1.3 0.1,1.7c-4.1,4.6 -8.6,8.8 -13,13.1c-2.4,-0.7 -4.3,-2.8 -7,-2.6c-4.8,-0.3 -9.8,4.8 -8,9.6c1,3 3.7,6 7.1,5.9c4.3,0.1 8.1,-2.4 11.9,-4.1c7.9,-4.1 17.1,-7.1 26,-4.8c8.8,2.4 16.2,9.1 19.5,17.6c3,8 2.7,17.2 -1,24.9c-4.2,8.8 -12.6,15.3 -22.1,17.2c-8,1.5 -16.8,0.4 -23.4,-4.6c-1.6,-1.3 -4,-2.7 -3.4,-5.1c2.9,-3.5 6.4,-6.5 9.5,-9.8c1.2,-1.1 2.3,-2.7 4,-3c2.4,0.6 4.1,3.2 6.8,3c7.2,0.9 14.1,-6.8 11.8,-13.8c-1.9,-4.5 -6.7,-8.1 -11.7,-7.2c-8.2,1.4 -14.8,7.4 -22.9,8.9c-5.4,0.8 -11.1,0.6 -16.1,-1.8c-7.8,-3.5 -14.1,-10.8 -15.4,-19.3z"
             class="st1" />
  </g>
 </g>
</svg>