<svg xmlns="http://www.w3.org/2000/svg" viewBox="0 0 491 491" id="vector">
    <path id="path"
        d="M 484.132 124.986 L 468.016 108.758 C 462.944 103.69 456.196 100.898 448.984 100.898 C 441.776 100.898 435.02 103.69 429.948 108.758 L 246.108 292.606 L 62.056 108.554 C 56.992 103.486 50.236 100.698 43.028 100.698 C 35.82 100.698 29.06 103.486 23.992 108.554 L 7.872 124.682 C -2.624 135.17 -2.624 152.254 7.872 162.742 L 227.008 382.666 C 232.072 387.73 238.82 391.298 246.092 391.298 L 246.176 391.298 C 253.388 391.298 260.136 387.726 265.2 382.666 L 484.132 163.338 C 489.204 158.274 491.988 151.322 491.996 144.114 C 491.996 136.902 489.204 130.046 484.132 124.986 Z"
        fill="#303030" />
</svg>
