<svg width="100" height="100" xmlns="http://www.w3.org/2000/svg" data-name="Layer 1">

    <g>
        <title>Layer 1</title>
        <path id="svg_1" fill="#74ccbd"
            d="m68.53,36.09a3.47,3.47 0 0 0 0,-4.9l-8.67,-8.67a3.47,3.47 0 0 0 -4.91,0l-7.95,7.94l13.6,13.54l7.93,-7.91z"
            class="cls-1" />
        <path id="svg_2" fill="#74ccbd"
            d="m12.86,65.05l13.14,13.15a3.54,3.54 0 0 1 -1.26,0.25l-11.24,0a0.87,0.87 0 0 1 -0.87,-0.87l0,-11.21a3.38,3.38 0 0 1 0.23,-1.32z"
            class="cls-1" />
        <rect id="svg_3" transform="rotate(-45.02 -27.77 41.87)" fill="#74ccbd" height="19.2"
            width="45.15" y="86.71" x="-13.71" class="cls-1" />
        <path id="svg_4" fill="#48beac"
            d="m68.53,36.09a3.47,3.47 0 0 0 0,-4.9l-4.34,-4.33l-10.38,10.38l6.79,6.76l7.93,-7.91z"
            class="cls-2" />
        <path id="svg_5" fill="#48beac"
            d="m13.52,78.43l11.24,0a3.54,3.54 0 0 0 1.24,-0.23l-6.57,-6.57l-6.54,6.55a0.89,0.89 0 0 0 0.63,0.25z"
            class="cls-2" />
        <rect id="svg_6" transform="rotate(-45.02 -29.17 45.27)" fill="#48beac" height="9.6"
            width="45.15" y="98.3" x="-11.72" class="cls-2" />
        <path id="svg_7" fill="#ee8d4d"
            d="m83.85,73.53l-9.5,-9.42a2,2 0 0 1 0.19,-3l0,0a2,2 0 0 1 2.61,0.16l9.5,9.42a2,2 0 0 1 0,2.83l0,0a2,2 0 0 1 -2.8,0.01z"
            class="cls-3" />
        <path id="svg_8" fill="#ee8d4d"
            d="m77,73.53l9.5,-9.42a2,2 0 0 0 -0.18,-3l0,0a2,2 0 0 0 -2.62,0.16l-9.5,9.42a2,2 0 0 0 0,2.83l0,0a2,2 0 0 0 2.8,0.01z"
            class="cls-3" />
        <path id="svg_9" fill="#ee8d4d"
            d="m85.29,42.47l-14.72,0a4,4 0 0 0 -3.84,2.89l-7.49,26.09l-4.24,-8.45a4,4 0 0 0 -3.57,-2.19l-3.43,0a2.09,2.09 0 0 0 -2.08,1.67a2,2 0 0 0 2,2.33l3.56,0l6,11.91a2.67,2.67 0 0 0 0.82,0.94a2.05,2.05 0 0 0 1,0.71a2.12,2.12 0 0 0 2.55,-1.49l8.76,-30.45l14.8,0a2,2 0 0 0 2,-2.34a2.08,2.08 0 0 0 -2.12,-1.62z"
            class="cls-3" />
    </g>
</svg>