<svg xmlns="http://www.w3.org/2000/svg" viewBox="0 0 5120 5120" id="vector">
    <path id="path"
        d="M 2226 5104 C 1672 5033 1141 4772 745 4375 C 367 3998 126 3530 29 2983 C 2 2834 -8 2458 9 2288 C 69 1707 330 1158 744 744 C 1122 367 1590 126 2137 29 C 2286 2 2662 -8 2832 9 C 3320 60 3802 260 4187 571 C 4287 652 4468 833 4549 933 C 4860 1318 5060 1801 5111 2288 C 5128 2458 5118 2834 5091 2983 C 4981 3600 4677 4136 4220 4519 C 3834 4843 3374 5044 2880 5105 C 2725 5124 2378 5123 2226 5104 Z"
        fill="#48bcaa" stroke-width="1" />
    <path id="path_1"
        d="M 2049 3717 C 2008 3698 1061 2671 1051 2635 C 1037 2582 1056 2550 1162 2443 C 1271 2333 1308 2312 1358 2331 C 1395 2345 1411 2361 1762 2738 C 2025 3019 2077 3070 2100 3070 C 2124 3070 2245 2949 2911 2258 C 3342 1811 3709 1437 3727 1428 C 3745 1418 3779 1410 3801 1410 C 3841 1410 3849 1416 3956 1521 C 4074 1638 4088 1662 4065 1716 C 4058 1733 3625 2190 3102 2732 C 2074 3799 2124 3752 2049 3717 Z"
        fill="#ffffff" stroke-width="1" />
</svg>
