<svg xmlns="http://www.w3.org/2000/svg" viewBox="0 0 512 512" id="vector">
    <path id="path"
        d="M 111.996 141.41 C 111.996 109.867 137.66 84.203 169.207 84.203 C 200.75 84.203 226.418 109.867 226.418 141.41 L 226.418 187.515 C 242.309 182.656 253.906 167.855 253.906 150.39 L 253.906 38.812 C 253.906 17.41 236.492 -0.001 215.09 -0.001 L 123.324 -0.001 C 101.922 -0.001 84.508 17.409 84.508 38.812 L 84.508 150.39 C 84.508 167.855 96.102 182.656 111.996 187.515 Z M 111.996 141.41"
        fill="#000000" />
    <path id="path_1"
        d="M 405.297 0 L 313.527 0 C 292.125 0 274.714 17.41 274.714 38.813 L 274.714 150.391 C 274.714 171.793 292.124 189.204 313.527 189.204 L 405.297 189.204 C 426.699 189.204 444.113 171.794 444.113 150.391 L 444.113 38.813 C 444.113 17.411 426.699 0 405.297 0 Z M 405.297 0"
        fill="#000000" />
    <path id="path_2"
        d="M 334.211 241.145 C 319.02 241.145 306.711 253.458 306.711 268.645 L 306.711 254.637 C 306.711 239.449 294.398 227.137 279.207 227.137 C 264.019 227.137 251.707 239.446 251.707 254.637 L 251.707 242.856 C 251.707 228.411 240.57 216.579 226.418 215.45 C 225.688 215.395 224.953 215.356 224.207 215.356 C 213.121 215.356 203.574 221.922 199.223 231.372 C 197.614 234.868 196.707 238.755 196.707 242.856 L 196.707 141.411 C 196.707 126.223 184.394 113.911 169.207 113.911 C 154.02 113.911 141.707 126.224 141.707 141.411 L 141.707 377.505 L 140.516 377.353 L 123.575 304.837 C 120.118 290.048 105.325 280.857 90.536 284.314 C 75.005 284.314 65.188 296.689 68.72 311.814 L 88.365 395.888 C 98.638 461.669 151.814 512.001 151.814 512.001 L 318.892 512.001 C 346.81 469.54 361.689 419.837 361.697 369.017 L 361.713 268.646 C 361.713 253.458 349.4 241.146 334.213 241.146 Z M 334.211 241.145"
        fill="#000000" />
</svg>
