<?xml version="1.0" encoding="UTF-8" ?>
<svg width="256" height="256" viewBox="0 0 256 256" version="1.1"
    xmlns="http://www.w3.org/2000/svg">
    <g id="#000000ff">
        <path fill="#000000" opacity="1.00"
            d=" M 0.00 15.16 C 0.79 8.21 6.12 2.00 13.04 0.60 C 18.64 -0.72 24.73 1.28 28.67 5.42 C 61.78 38.53 94.90 71.64 128.01 104.75 C 159.65 73.15 191.26 41.51 222.89 9.88 C 225.40 7.41 227.71 4.68 230.67 2.72 C 236.34 -0.95 244.25 -0.52 249.54 3.67 C 253.14 6.35 255.25 10.58 256.00 14.94 L 256.00 18.20 C 255.50 22.20 253.76 26.00 250.84 28.81 C 217.73 61.95 184.58 95.07 151.46 128.21 C 184.53 161.26 217.58 194.34 250.65 227.38 C 253.56 230.15 255.36 233.88 256.00 237.84 L 256.00 241.07 C 255.31 248.38 249.56 254.67 242.34 256.00 L 236.59 256.00 C 233.00 255.27 229.70 253.50 227.18 250.85 C 194.14 217.76 161.08 184.70 128.01 151.66 C 96.94 182.71 65.89 213.78 34.82 244.84 C 30.27 249.23 26.13 254.88 19.47 256.00 L 13.76 256.00 C 6.56 254.76 0.84 248.54 0.00 241.32 L 0.00 238.04 C 0.50 232.92 3.64 228.70 7.36 225.39 C 39.79 193.03 72.17 160.61 104.56 128.20 C 71.44 95.07 38.31 61.94 5.18 28.82 C 2.29 26.07 0.56 22.34 0.00 18.42 L 0.00 15.16 Z" />
    </g>
</svg>
