<svg width="51" height="51" xmlns="http://www.w3.org/2000/svg" xml:space="preserve" version="1.1">
 <g>
  <title>Layer 1</title>
     <path fill="#FFFFFF"
         d="m43.5,7.5c-9.9,-9.9 -26.1,-9.9 -36.1,0s-9.9,26.1 0,36.1s26.1,9.9 36.1,0c10,-10 10,-26.2 0,-36.1zm-7.9,28.1c-0.8,0.8 -2,0.8 -2.8,0l-7.3,-7.3l-7.6,7.6c-0.8,0.8 -2,0.8 -2.8,0c-0.8,-0.8 -0.8,-2 0,-2.8l7.6,-7.6l-7.3,-7.3c-0.8,-0.8 -0.8,-2 0,-2.8c0.8,-0.8 2,-0.8 2.8,0l7.3,7.3l6.9,-6.9c0.8,-0.8 2,-0.8 2.8,0c0.8,0.8 0.8,2 0,2.8l-6.9,6.9l7.3,7.3c0.7,0.8 0.7,2 0,2.8z"
         class="st0" id="path" />
 </g>
</svg>