<svg xmlns="http://www.w3.org/2000/svg" viewBox="0 0 512 512" id="vector">
    <path id="path"
        d="M 24.45 0 L 27.93 0 C 34.37 0.46 40.63 3.16 45.17 7.79 C 115.51 78.08 185.79 148.44 256.14 218.72 C 326.43 148.46 396.67 78.16 466.97 7.91 C 471.45 3.32 477.6 0.56 483.98 0 L 487.3 0 C 499.91 0.58 510.95 11.18 512 23.76 L 512 28.75 C 511.41 34.93 508.6 40.83 504.18 45.19 C 433.95 115.48 363.64 185.7 293.41 256 C 363.17 325.78 432.92 395.56 502.71 465.3 C 507.77 469.88 511.31 476.15 512 483 L 512 488.11 C 511.03 500.64 500.13 511.14 487.65 512 L 484.36 512 C 477.88 511.54 471.58 508.77 467.03 504.11 C 396.73 433.83 326.46 363.53 256.16 293.26 C 185.8 363.53 115.54 433.9 45.18 504.18 C 40.75 508.66 34.74 511.32 28.5 512 L 24.88 512 C 13.64 511.37 3.41 502.89 0.89 491.9 C -1.34 483.09 1.43 473.29 7.93 466.95 C 78.23 396.61 148.57 326.31 218.88 255.98 C 148.58 185.64 78.23 115.35 7.92 45.01 C -0.03 37.36 -2.18 24.53 2.85 14.7 C 6.82 6.44 15.36 0.81 24.45 0 Z"
        fill="#000000" />
</svg>
