<?xml version="1.0" encoding="UTF-8" ?>
<svg width="256" height="256" viewBox="0 0 256 256" version="1.1"
    xmlns="http://www.w3.org/2000/svg">
    <g id="#f44336ff">
        <path fill="#f44336" opacity="1.00"
            d=" M 12.88 34.80 C 18.90 31.47 25.98 32.00 32.60 32.00 C 34.19 33.54 35.84 35.02 37.56 36.41 C 64.39 57.57 91.21 78.76 118.03 99.94 C 121.28 102.58 124.56 105.20 128.00 107.61 C 129.47 106.54 130.95 105.48 132.40 104.38 C 157.86 84.17 183.42 64.08 208.91 43.91 C 213.77 39.99 218.92 36.39 223.40 32.00 C 230.02 32.00 237.10 31.47 243.12 34.80 C 250.51 38.57 255.32 46.36 256.00 54.56 L 256.00 201.43 C 255.32 209.63 250.51 217.43 243.12 221.20 C 237.32 224.40 230.50 224.05 224.11 224.00 C 223.77 174.23 224.24 124.44 223.88 74.67 C 219.24 77.70 214.99 81.27 210.58 84.62 C 183.03 105.79 155.54 127.03 127.96 148.15 C 100.06 126.69 72.16 105.23 44.26 83.77 C 40.24 80.70 36.33 77.47 32.11 74.68 C 31.85 124.45 32.08 174.23 32.00 224.01 C 25.57 224.02 18.71 224.43 12.88 221.20 C 5.49 217.43 0.68 209.64 0.00 201.44 L 0.00 54.58 C 0.68 46.37 5.49 38.57 12.88 34.80 Z" />
    </g>
    <g id="#eceff1ff">
        <path fill="#eceff1" opacity="1.00"
            d=" M 32.60 32.00 C 96.20 32.00 159.80 32.00 223.40 32.00 C 218.92 36.39 213.77 39.99 208.91 43.91 C 183.42 64.08 157.86 84.17 132.40 104.38 C 130.95 105.48 129.47 106.54 128.00 107.61 C 124.56 105.20 121.28 102.58 118.03 99.94 C 91.21 78.76 64.39 57.57 37.56 36.41 C 35.84 35.02 34.19 33.54 32.60 32.00 Z" />
        <path fill="#eceff1" opacity="1.00"
            d=" M 32.11 74.68 C 36.33 77.47 40.24 80.70 44.26 83.77 C 72.16 105.23 100.06 126.69 127.96 148.15 C 155.68 170.05 183.42 191.93 211.14 213.84 C 215.36 216.99 219.50 220.25 223.24 223.98 C 159.49 224.03 95.75 223.98 32.00 224.01 C 32.08 174.23 31.85 124.45 32.11 74.68 Z" />
    </g>
    <g id="#cfd8dcff">
        <path fill="#cfd8dc" opacity="1.00"
            d=" M 210.58 84.62 C 214.99 81.27 219.24 77.70 223.88 74.67 C 224.24 124.44 223.77 174.23 224.11 224.00 L 223.24 223.98 C 219.50 220.25 215.36 216.99 211.14 213.84 C 183.42 191.93 155.68 170.05 127.96 148.15 C 155.54 127.03 183.03 105.79 210.58 84.62 Z" />
    </g>
</svg>
