<svg width="100" height="100" xmlns="http://www.w3.org/2000/svg" data-name="Layer 1">

    <g>
        <title>Layer 1</title>
        <path id="svg_1" fill="#74ccbd"
            d="m50,60a16.88,16.88 0 0 1 -16.76,-15.52l-0.52,-7a16.8,16.8 0 0 1 16.76,-18.06l1,0a16.8,16.8 0 0 1 16.8,18.06l-0.52,7a16.88,16.88 0 0 1 -16.76,15.52zm-0.52,-36.62a12.79,12.79 0 0 0 -12.77,13.8l0.52,7a12.8,12.8 0 0 0 25.54,0l0.52,-7a12.79,12.79 0 0 0 -12.77,-13.76l-1.04,-0.04z"
            class="cls-1" />
        <path id="svg_2" fill="#74ccbd"
            d="m34.71,37.33a14.81,14.81 0 0 1 14.77,-15.91l1,0a14.81,14.81 0 0 1 14.81,15.91l-21.66,0l-1.52,-4.91l-1.89,4.91l-5.51,0z"
            class="cls-1" />
        <path id="svg_3" fill="#74ccbd"
            d="m62.19,58.88a2.37,2.37 0 0 0 -2.15,0.17a18.47,18.47 0 0 1 -10,3l0,0a18.47,18.47 0 0 1 -10,-3a2.37,2.37 0 0 0 -2.15,-0.17l-9.39,3.78a11.55,11.55 0 0 0 -7.24,10.72l0,6.68a4.63,4.63 0 0 0 3.58,4.5a107.24,107.24 0 0 0 50.5,0a4.63,4.63 0 0 0 3.56,-4.49l0,-6.7a11.55,11.55 0 0 0 -7.24,-10.72l-9.47,-3.77z"
            class="cls-1" />
        <path id="svg_4" fill="none"
            d="m42.11,32.42l-1.89,4.91l-3.5,0l0.51,6.85a12.87,12.87 0 0 0 12.77,11.82l0,0l0,-18.67l-6.37,0l-1.52,-4.91z"
            class="cls-2" />
        <path id="svg_5" fill="none"
            d="m62.77,44.18l0.51,-6.85l-13.28,0l0,18.67a12.86,12.86 0 0 0 12.77,-11.82z"
            class="cls-2" />
        <path id="svg_6" fill="#48beac"
            d="m66.76,44.48l0.52,-7a16.8,16.8 0 0 0 -16.76,-18.06l-0.52,0l0,17.91l13.28,0l-0.51,6.85a12.86,12.86 0 0 1 -12.77,11.82l0,4a16.88,16.88 0 0 0 16.76,-15.52z"
            class="cls-3" />
        <path id="svg_7" fill="#48beac"
            d="m71.58,62.66l-9.39,-3.78a2.37,2.37 0 0 0 -2.15,0.17a18.47,18.47 0 0 1 -10,3l0,25.53a106.64,106.64 0 0 0 25.26,-3a4.63,4.63 0 0 0 3.56,-4.49l0,-6.7a11.55,11.55 0 0 0 -7.28,-10.73z"
            class="cls-3" />
        <circle id="svg_8" stroke-width="2px" stroke-miterlimit="10" stroke="#ee8d4d" fill="#fff"
            r="12.43" cy="22.94" cx="69.48" class="cls-4" />
        <rect id="svg_9" transform="rotate(0.69 0.36 -0.83)" fill="#74ccbd" rx="0.45" height="0.9"
            width="4.97" y="28.49" x="67.23" class="cls-1" />
        <path id="svg_10" transform="rotate(0.69 0.38 -0.83)" fill="#74ccbd"
            d="m67.93,29.85l3.61,0a0,0 0 0 1 0,0l0,0a0.9,0.9 0 0 1 -0.9,0.9l-1.81,0a0.9,0.9 0 0 1 -0.9,-0.9l0,0a0,0 0 0 1 0,0z"
            class="cls-1" />
        <path id="svg_11" fill="#74ccbd"
            d="m74.29,22.9a4.85,4.85 0 0 0 -9.69,-0.38a4.8,4.8 0 0 0 1,3.27a6,6 0 0 1 1,1.9l0.2,0.67a0.7,0.7 0 0 0 0.64,0.48l3.92,0.05a0.69,0.69 0 0 0 0.65,-0.47l0.22,-0.66a5.71,5.71 0 0 1 1,-1.89a4.8,4.8 0 0 0 1.06,-2.97z"
            class="cls-1" />
        <path id="svg_12" fill="#fff"
            d="m66.24,24.76a0.23,0.23 0 0 1 -0.19,-0.11a3.92,3.92 0 0 1 -0.55,-2a3.8,3.8 0 0 1 1.15,-2.65a0.23,0.23 0 0 1 0.32,0.32a3.37,3.37 0 0 0 -0.53,4.14a0.23,0.23 0 0 1 -0.08,0.31a0.24,0.24 0 0 1 -0.12,-0.01z"
            class="cls-5" />
        <path id="svg_13" fill="#5ec5b4"
            d="m71.39,30.25a0.45,0.45 0 0 0 0.45,-0.45a0.44,0.44 0 0 0 -0.44,-0.45l-2,0l0,0.91l1.99,-0.01z"
            class="cls-6" />
        <path id="svg_14" fill="#5ec5b4"
            d="m70.25,31.6a0.92,0.92 0 0 0 0.92,-0.9l-1.82,0l0,0.9l0.9,0z" class="cls-6" />
        <path id="svg_15" fill="#5ec5b4"
            d="m69.5,18l-0.13,10.87l2,0a0.69,0.69 0 0 0 0.65,-0.47l0.22,-0.66a5.71,5.71 0 0 1 1,-1.89a4.8,4.8 0 0 0 1.06,-3a4.85,4.85 0 0 0 -4.8,-4.85z"
            class="cls-6" />
        <rect id="svg_16" transform="rotate(0.69 0.19 -0.84)" fill="#ee8d4d" rx="0.45" height="2.26"
            width="0.9" y="13.75" x="69.14" class="cls-7" />
        <rect id="svg_17" transform="rotate(30.69 18.83 -35.1)" fill="#ee8d4d" rx="0.45"
            height="2.26" width="0.9" y="-19.47" x="91.74" class="cls-7" />
        <rect id="svg_18" transform="rotate(60.69 56.07 -56.48)" fill="#ee8d4d" rx="0.45"
            height="2.26" width="0.9" y="-37.96" x="131.9" class="cls-7" />
        <rect id="svg_19" transform="rotate(90.69 101.89 -53.47)" fill="#ee8d4d" rx="0.45"
            height="2.26" width="0.9" y="-31" x="178.8" class="cls-7" />
        <rect id="svg_20" transform="rotate(-89.31 37.1 84.92)" fill="#ee8d4d" rx="0.45"
            height="2.26" width="0.9" y="107.47" x="98.17" class="cls-7" />
        <rect id="svg_21" transform="rotate(-59.31 13.68 63.46)" fill="#ee8d4d" rx="0.45"
            height="2.26" width="0.9" y="82.05" x="75.79" class="cls-7" />
        <rect id="svg_22" transform="rotate(-29.31 0.15 34.19)" fill="#ee8d4d" rx="0.45"
            height="2.26" width="0.9" y="49.86" x="65.15" class="cls-7" />
    </g>
</svg>