<svg xmlns="http://www.w3.org/2000/svg" viewBox="0 0 35 33" id="vector">
    <path id="path"
        d="M 22.027 32.491 L 2.912 32.491 C 2.23 32.491 1.575 32.206 1.093 31.701 C 0.61 31.195 0.339 30.509 0.338 29.793 L 0.338 7.877 C 0.338 7.682 0.412 7.496 0.543 7.358 C 0.673 7.221 0.851 7.143 1.036 7.143 L 6.686 7.143 L 6.686 1.224 C 6.686 1.029 6.76 0.843 6.891 0.705 C 7.022 0.568 7.2 0.491 7.385 0.491 L 22.027 0.491 C 22.708 0.492 23.361 0.776 23.843 1.282 C 24.325 1.788 24.596 2.473 24.597 3.188 L 24.597 12.741 C 24.597 12.935 24.523 13.122 24.392 13.259 C 24.261 13.397 24.084 13.474 23.899 13.474 C 23.713 13.474 23.536 13.397 23.405 13.259 C 23.274 13.122 23.2 12.935 23.2 12.741 L 23.2 3.188 C 23.199 2.862 23.075 2.549 22.855 2.319 C 22.636 2.088 22.338 1.958 22.027 1.957 L 8.083 1.957 L 8.083 7.877 C 8.083 8.071 8.01 8.257 7.879 8.395 C 7.748 8.532 7.57 8.61 7.385 8.61 L 1.735 8.61 L 1.735 29.789 C 1.736 30.116 1.86 30.429 2.081 30.66 C 2.301 30.891 2.6 31.021 2.912 31.021 L 22.027 31.021 C 22.338 31.02 22.636 30.89 22.855 30.659 C 23.075 30.428 23.199 30.115 23.2 29.789 L 23.2 21.982 C 23.2 21.787 23.274 21.601 23.405 21.463 C 23.536 21.326 23.713 21.248 23.899 21.248 C 24.084 21.248 24.261 21.326 24.392 21.463 C 24.523 21.601 24.597 21.787 24.597 21.982 L 24.597 29.789 C 24.597 30.505 24.326 31.191 23.844 31.698 C 23.362 32.204 22.709 32.49 22.027 32.491 Z"
        fill="#4db5ac" />
    <path id="path_1"
        d="M 1.036 8.243 C 0.852 8.242 0.674 8.165 0.544 8.027 C 0.479 7.959 0.428 7.878 0.392 7.789 C 0.357 7.7 0.339 7.605 0.339 7.508 C 0.339 7.412 0.357 7.316 0.392 7.227 C 0.428 7.138 0.479 7.058 0.544 6.99 L 6.515 0.729 C 6.58 0.661 6.657 0.607 6.742 0.57 C 6.827 0.533 6.918 0.514 7.01 0.514 C 7.101 0.514 7.192 0.533 7.277 0.57 C 7.362 0.607 7.439 0.661 7.504 0.729 C 7.569 0.797 7.62 0.878 7.655 0.967 C 7.69 1.056 7.708 1.151 7.708 1.247 C 7.708 1.344 7.69 1.439 7.655 1.528 C 7.62 1.617 7.569 1.698 7.504 1.766 L 1.529 8.027 C 1.398 8.165 1.221 8.242 1.036 8.243 Z"
        fill="#4db5ac" />
    <path id="path_2"
        d="M 18.077 15.666 L 6.624 15.666 C 6.438 15.666 6.261 15.589 6.13 15.451 C 5.999 15.314 5.925 15.127 5.925 14.933 C 5.925 14.738 5.999 14.552 6.13 14.414 C 6.261 14.277 6.438 14.2 6.624 14.2 L 18.077 14.2 C 18.263 14.2 18.44 14.277 18.571 14.414 C 18.702 14.552 18.776 14.738 18.776 14.933 C 18.776 15.127 18.702 15.314 18.571 15.451 C 18.44 15.589 18.263 15.666 18.077 15.666 Z"
        fill="#ee8d4d" />
    <path id="path_3"
        d="M 11.704 21.208 L 6.624 21.208 C 6.438 21.208 6.261 21.131 6.13 20.993 C 5.999 20.856 5.925 20.669 5.925 20.475 C 5.925 20.281 5.999 20.094 6.13 19.957 C 6.261 19.819 6.438 19.742 6.624 19.742 L 11.704 19.742 C 11.89 19.742 12.067 19.819 12.198 19.957 C 12.329 20.094 12.403 20.281 12.403 20.475 C 12.403 20.669 12.329 20.856 12.198 20.993 C 12.067 21.131 11.89 21.208 11.704 21.208 Z"
        fill="#ee8d4d" />
    <path id="path_4"
        d="M 16.705 27.857 C 16.552 27.857 16.404 27.804 16.283 27.707 C 16.167 27.616 16.082 27.489 16.038 27.345 C 15.995 27.2 15.994 27.045 16.038 26.901 L 18.004 20.416 C 18.028 20.337 18.065 20.263 18.112 20.196 L 29.308 4.757 C 29.536 4.441 29.822 4.175 30.148 3.976 C 30.475 3.777 30.836 3.647 31.211 3.595 C 31.585 3.54 31.966 3.564 32.332 3.664 C 32.698 3.765 33.041 3.941 33.341 4.182 C 33.947 4.668 34.344 5.387 34.446 6.181 C 34.548 6.974 34.347 7.778 33.886 8.415 L 22.684 23.862 C 22.634 23.928 22.575 23.987 22.509 24.034 L 17.086 27.736 C 16.973 27.815 16.84 27.857 16.705 27.857 Z M 19.296 20.985 L 17.962 25.383 L 21.646 22.865 L 32.775 7.517 C 33.012 7.19 33.115 6.777 33.062 6.369 C 33.009 5.962 32.804 5.593 32.493 5.344 C 32.339 5.219 32.163 5.129 31.975 5.076 C 31.788 5.024 31.592 5.012 31.4 5.04 C 31.207 5.066 31.021 5.132 30.853 5.235 C 30.686 5.338 30.539 5.474 30.422 5.637 L 19.296 20.985 Z"
        fill="#4db5ac" />
    <path id="path_5"
        d="M 22.163 24.104 C 22.01 24.104 21.862 24.051 21.74 23.954 L 18.273 21.182 C 18.126 21.065 18.029 20.89 18.004 20.698 C 17.979 20.506 18.028 20.311 18.14 20.156 C 18.196 20.079 18.265 20.014 18.345 19.966 C 18.424 19.917 18.512 19.885 18.603 19.872 C 18.694 19.859 18.787 19.865 18.876 19.89 C 18.965 19.915 19.048 19.958 19.121 20.017 L 22.585 22.784 C 22.659 22.843 22.72 22.916 22.767 22.999 C 22.813 23.082 22.843 23.175 22.856 23.27 C 22.868 23.366 22.862 23.463 22.839 23.557 C 22.815 23.65 22.774 23.738 22.718 23.814 C 22.653 23.904 22.569 23.977 22.473 24.027 C 22.376 24.077 22.27 24.104 22.163 24.104 Z"
        fill="#4db5ac" />
    <path id="path_6"
        d="M 32.053 10.461 C 31.9 10.462 31.752 10.41 31.63 10.314 L 28.166 7.543 C 28.019 7.425 27.922 7.251 27.897 7.059 C 27.873 6.866 27.921 6.671 28.033 6.517 C 28.146 6.362 28.311 6.261 28.495 6.235 C 28.678 6.209 28.864 6.26 29.011 6.377 L 32.479 9.145 C 32.552 9.203 32.614 9.276 32.66 9.36 C 32.707 9.443 32.737 9.535 32.749 9.631 C 32.761 9.727 32.756 9.824 32.732 9.917 C 32.708 10.011 32.667 10.098 32.611 10.175 C 32.546 10.265 32.461 10.337 32.364 10.387 C 32.267 10.436 32.16 10.462 32.053 10.461 Z"
        fill="#4db5ac" />
</svg>
