<?xml version="1.0" encoding="UTF-8" ?>
<svg width="256" height="256" viewBox="0 0 256 256" version="1.1"
    xmlns="http://www.w3.org/2000/svg">
    <g id="#000000ff">
        <path fill="#000000" opacity="1.00"
            d=" M 12.90 40.27 C 16.39 38.68 20.20 37.96 24.03 38.00 C 93.36 38.00 162.70 38.00 232.03 38.00 C 235.84 37.97 239.62 38.69 243.10 40.26 C 210.24 72.98 177.38 105.70 144.49 138.40 C 139.28 143.84 131.38 146.59 123.94 145.13 C 118.96 144.32 114.54 141.53 111.06 137.97 C 78.34 105.40 45.61 72.84 12.90 40.27 Z" />
        <path fill="#000000" opacity="1.00"
            d=" M 2.25 50.89 C 28.14 76.58 54.02 102.28 79.89 128.00 C 54.02 153.72 28.14 179.43 2.24 205.11 C 1.20 202.42 0.32 199.66 0.00 196.79 L 0.00 59.55 C 0.26 56.56 1.14 53.67 2.25 50.89 Z" />
        <path fill="#000000" opacity="1.00"
            d=" M 176.11 128.00 C 201.98 102.28 227.86 76.58 253.75 50.89 C 254.79 53.57 255.68 56.33 256.00 59.20 L 256.00 196.45 C 255.73 199.44 254.86 202.33 253.75 205.11 C 227.85 179.42 201.98 153.71 176.11 128.00 Z" />
        <path fill="#000000" opacity="1.00"
            d=" M 12.90 215.74 C 38.75 190.02 64.62 164.32 90.48 138.61 C 95.66 143.52 100.32 148.99 106.03 153.30 C 115.65 160.41 128.79 162.41 140.08 158.43 C 150.72 155.12 157.76 146.03 165.50 138.61 C 191.39 164.30 217.25 190.03 243.12 215.75 C 239.60 217.31 235.79 218.05 231.94 218.00 C 162.64 218.00 93.33 218.00 24.02 218.00 C 20.19 218.04 16.39 217.32 12.90 215.74 Z" />
    </g>
</svg>
