<svg width="15" height="18" xmlns="http://www.w3.org/2000/svg" xml:space="preserve" version="1.1">

 <g>
  <title>Layer 1</title>
     <path fill="none" d="m-1,-1l582,0l0,402l-582,0l0,-402z" class="st0" id="path" />
     <path fill="none" d="m7.8,5.2l0,-4.6" class="st0" id="path_1" />
     <path fill="#FF7A00"
         d="m7.5,5.5c-0.2,0 -0.4,-0.4 -0.4,-0.9l0,-3.5c0,-0.5 0.2,-0.9 0.4,-0.9c0.2,0 0.4,0.4 0.4,0.9l0,3.6c0,0.4 -0.2,0.8 -0.4,0.8z"
         class="st1" id="path_2" />
     <path fill="none" d="m4.1,0.6l6.9,0" class="st0" id="path_3" />
     <path fill="#FF7A00"
         d="m10.9,1.1l-6.8,0c-0.1,0 -0.2,-0.1 -0.3,-0.2c0,0 -0.1,-0.2 -0.1,-0.3s0,-0.2 0.1,-0.3c0.1,-0.1 0.2,-0.1 0.3,-0.1l6.8,0c0.1,0 0.2,0 0.3,0.1c0.1,0.1 0.1,0.2 0.1,0.3s0,0.2 -0.1,0.3c0,0.1 -0.1,0.2 -0.3,0.2z"
         class="st1" id="path_4" />
     <path fill="#FF7A00"
         d="m7.5,17.8c-1.7,0 -3.3,-0.6 -4.7,-1.6c-1.3,-1.1 -2.3,-2.5 -2.6,-4.2c-0.4,-1.7 -0.2,-3.4 0.5,-4.9c0.7,-1.5 2,-2.8 3.5,-3.5c1.6,-0.8 3.3,-1 4.9,-0.6s3.1,1.3 4.2,2.6c1.1,1.3 1.6,3 1.6,4.7c0,2 -0.8,3.9 -2.2,5.3c-1.3,1.4 -3.2,2.2 -5.2,2.2zm0,-11.8c-0.1,0 -0.2,0 -0.3,0.1c-0.1,0.1 -0.1,0.2 -0.1,0.3l0,4.8c0,0.1 0,0.2 0.1,0.3c0.1,0.1 0.2,0.1 0.3,0.1l3.3,0.4l0.1,0c0.1,0 0.2,0 0.3,-0.1c0.1,-0.1 0.1,-0.2 0.1,-0.3c0,-0.1 0,-0.2 -0.1,-0.3c-0.1,-0.1 -0.2,-0.1 -0.3,-0.1l-3,-0.4l0,-4.4c0,-0.1 0,-0.2 -0.1,-0.3c-0.1,-0.1 -0.2,-0.1 -0.3,-0.1z"
         class="st1" id="path_5" />
 </g>
</svg>