<?xml version="1.0" encoding="UTF-8" ?>
<svg width="256" height="256" viewBox="0 0 256 256" version="1.1"
    xmlns="http://www.w3.org/2000/svg">
    <g id="#f0f0f0ff">
        <path fill="#f0f0f0" opacity="1.00"
            d=" M 124.29 0.00 L 131.70 0.00 C 163.07 0.90 193.93 13.70 216.49 35.54 C 240.86 58.64 255.32 91.63 256.00 125.18 L 256.00 129.92 C 255.58 160.47 243.82 190.69 223.33 213.38 C 199.91 239.80 165.17 255.63 129.86 256.00 L 126.17 256.00 C 96.78 255.59 67.65 244.74 45.29 225.63 C 17.55 202.42 0.66 166.99 0.00 130.82 L 0.00 126.15 C 0.34 91.29 15.78 56.99 41.60 33.59 C 63.97 12.95 93.89 0.92 124.29 0.00 M 29.23 90.42 C 31.34 92.00 33.53 93.47 35.78 94.85 C 44.59 81.51 53.59 68.30 62.31 54.90 C 60.17 53.47 58.03 52.04 55.88 50.61 C 46.86 63.78 38.16 77.17 29.23 90.42 M 193.90 55.96 C 197.81 61.65 201.44 67.53 205.50 73.11 C 207.58 71.64 209.70 70.21 211.85 68.84 C 208.32 62.98 204.19 57.51 200.66 51.66 C 198.28 52.88 196.07 54.41 193.90 55.96 M 65.40 57.79 C 56.84 71.23 47.66 84.28 39.04 97.69 C 41.24 99.11 43.42 100.57 45.64 101.95 C 54.43 88.65 63.29 75.39 72.16 62.15 C 70.00 60.56 67.80 59.01 65.40 57.79 M 183.89 62.42 C 192.54 75.85 201.64 88.97 210.33 102.36 C 212.66 101.10 214.86 99.61 216.99 98.04 C 208.10 84.77 199.38 71.37 190.33 58.21 C 188.22 59.67 186.09 61.09 183.89 62.42 M 49.38 104.17 C 51.53 105.57 53.66 106.98 55.82 108.36 C 64.69 95.03 73.82 81.86 82.35 68.31 C 80.20 66.94 78.08 65.55 75.94 64.18 C 67.02 77.46 58.00 90.69 49.38 104.17 M 174.08 68.71 C 177.86 74.46 181.63 80.21 185.54 85.86 C 187.74 84.46 189.90 83.00 192.03 81.48 C 188.09 75.82 184.57 69.86 180.38 64.37 C 178.31 65.86 176.19 67.28 174.08 68.71 M 209.11 77.93 C 212.91 83.65 216.68 89.39 220.56 95.07 C 222.74 93.63 224.92 92.18 227.09 90.72 C 223.35 85.00 219.46 79.38 215.77 73.63 C 213.44 74.88 211.24 76.37 209.11 77.93 M 100.79 88.75 C 87.21 98.02 79.16 114.66 80.33 131.07 C 80.91 135.08 81.06 139.51 83.01 143.08 L 83.15 144.15 L 82.76 144.94 C 83.12 145.15 83.84 145.57 84.19 145.78 L 84.49 147.37 C 84.51 147.43 84.55 147.54 84.57 147.60 C 85.16 148.88 85.80 150.13 86.48 151.36 C 86.51 151.42 86.58 151.53 86.61 151.59 C 90.96 159.23 97.43 165.71 105.10 170.02 C 116.20 176.30 129.87 177.52 142.05 173.98 C 151.45 170.95 160.76 165.48 165.86 156.74 C 175.28 145.35 177.93 129.05 173.93 114.95 C 169.70 99.64 157.31 86.87 142.06 82.35 C 128.28 78.04 112.61 80.44 100.79 88.75 M 194.71 86.81 C 192.72 88.35 190.63 89.74 188.54 91.15 C 192.26 96.92 196.12 102.60 199.94 108.31 C 202.12 106.92 204.27 105.49 206.41 104.04 C 202.62 98.23 199.06 92.20 194.71 86.81 M 48.82 152.16 C 57.65 165.45 66.57 178.67 75.32 192.00 C 77.58 190.66 79.78 189.22 81.95 187.73 C 73.29 174.36 64.16 161.29 55.58 147.86 C 53.20 149.09 51.00 150.62 48.82 152.16 M 200.26 147.68 C 196.42 153.37 192.61 159.09 188.83 164.83 C 191.02 166.33 193.22 167.81 195.55 169.10 C 199.01 163.48 202.89 158.13 206.43 152.55 C 205.68 150.10 202.22 149.30 200.26 147.68 M 39.01 158.24 C 42.68 164.02 46.62 169.63 50.31 175.40 C 52.67 174.18 54.86 172.68 56.96 171.07 C 53.16 165.36 49.39 159.61 45.50 153.95 C 43.36 155.41 41.19 156.84 39.01 158.24 M 199.15 171.14 C 201.26 172.73 203.45 174.20 205.76 175.49 C 209.51 169.81 213.22 164.12 217.12 158.54 C 215.03 156.93 212.84 155.46 210.60 154.07 C 206.69 159.70 202.97 165.45 199.15 171.14 M 28.98 164.98 C 37.90 178.22 46.60 191.62 55.64 204.80 C 57.78 203.39 59.91 201.97 62.07 200.61 C 53.50 187.14 44.31 174.06 35.66 160.64 C 33.32 161.89 31.11 163.39 28.98 164.98 M 208.98 178.53 C 211.16 179.82 213.27 181.21 215.33 182.69 C 219.38 177.14 223.00 171.28 226.88 165.61 C 224.79 164.06 222.64 162.61 220.47 161.19 C 216.51 166.88 212.54 172.58 208.98 178.53 M 173.52 187.28 C 175.58 188.93 177.78 190.38 180.02 191.78 C 183.95 186.16 187.60 180.36 191.51 174.73 C 189.43 173.10 187.21 171.67 184.94 170.33 C 181.07 175.93 177.45 181.71 173.52 187.28 M 60.42 177.13 C 58.25 178.56 56.08 180.01 53.93 181.47 C 57.85 187.17 61.42 193.11 65.57 198.64 C 67.69 197.19 69.82 195.76 71.91 194.27 C 68.11 188.54 64.36 182.77 60.42 177.13 M 195.23 176.71 C 191.38 182.39 187.60 188.12 183.79 193.84 C 185.97 195.37 188.17 196.89 190.54 198.12 C 194.09 192.30 198.12 186.80 201.75 181.03 C 199.62 179.52 197.44 178.08 195.23 176.71 M 205.39 183.16 C 201.70 188.92 197.79 194.52 194.10 200.26 C 196.23 201.69 198.36 203.12 200.44 204.61 C 204.51 198.98 208.34 193.18 212.00 187.28 C 209.82 185.87 207.65 184.43 205.39 183.16 Z" />
    </g>
    <g id="#00416cff">
        <path fill="#00416c" opacity="1.00"
            d=" M 29.23 90.42 C 38.16 77.17 46.86 63.78 55.88 50.61 C 58.03 52.04 60.17 53.47 62.31 54.90 C 53.59 68.30 44.59 81.51 35.78 94.85 C 33.53 93.47 31.34 92.00 29.23 90.42 Z" />
        <path fill="#00416c" opacity="1.00"
            d=" M 193.90 55.96 C 196.07 54.41 198.28 52.88 200.66 51.66 C 204.19 57.51 208.32 62.98 211.85 68.84 C 209.70 70.21 207.58 71.64 205.50 73.11 C 201.44 67.53 197.81 61.65 193.90 55.96 Z" />
        <path fill="#00416c" opacity="1.00"
            d=" M 65.40 57.79 C 67.80 59.01 70.00 60.56 72.16 62.15 C 63.29 75.39 54.43 88.65 45.64 101.95 C 43.42 100.57 41.24 99.11 39.04 97.69 C 47.66 84.28 56.84 71.23 65.40 57.79 Z" />
        <path fill="#00416c" opacity="1.00"
            d=" M 183.89 62.42 C 186.09 61.09 188.22 59.67 190.33 58.21 C 199.38 71.37 208.10 84.77 216.99 98.04 C 214.86 99.61 212.66 101.10 210.33 102.36 C 201.64 88.97 192.54 75.85 183.89 62.42 Z" />
        <path fill="#00416c" opacity="1.00"
            d=" M 49.38 104.17 C 58.00 90.69 67.02 77.46 75.94 64.18 C 78.08 65.55 80.20 66.94 82.35 68.31 C 73.82 81.86 64.69 95.03 55.82 108.36 C 53.66 106.98 51.53 105.57 49.38 104.17 Z" />
        <path fill="#00416c" opacity="1.00"
            d=" M 174.08 68.71 C 176.19 67.28 178.31 65.86 180.38 64.37 C 184.57 69.86 188.09 75.82 192.03 81.48 C 189.90 83.00 187.74 84.46 185.54 85.86 C 181.63 80.21 177.86 74.46 174.08 68.71 Z" />
        <path fill="#00416c" opacity="1.00"
            d=" M 209.11 77.93 C 211.24 76.37 213.44 74.88 215.77 73.63 C 219.46 79.38 223.35 85.00 227.09 90.72 C 224.92 92.18 222.74 93.63 220.56 95.07 C 216.68 89.39 212.91 83.65 209.11 77.93 Z" />
        <path fill="#00416c" opacity="1.00"
            d=" M 194.71 86.81 C 199.06 92.20 202.62 98.23 206.41 104.04 C 204.27 105.49 202.12 106.92 199.94 108.31 C 196.12 102.60 192.26 96.92 188.54 91.15 C 190.63 89.74 192.72 88.35 194.71 86.81 Z" />
        <path fill="#00416c" opacity="1.00"
            d=" M 80.91 134.06 C 79.51 122.25 82.55 109.89 89.79 100.40 C 88.48 105.78 86.90 111.37 88.51 116.90 C 90.97 127.39 101.27 135.40 112.07 134.99 C 118.30 134.82 124.11 131.81 128.50 127.50 C 133.12 123.02 139.60 120.49 146.05 120.97 C 156.85 121.49 166.42 130.37 168.10 140.99 C 169.09 146.33 167.95 151.80 165.86 156.74 C 160.76 165.48 151.45 170.95 142.05 173.98 C 129.87 177.52 116.20 176.30 105.10 170.02 C 97.43 165.71 90.96 159.23 86.61 151.59 C 86.58 151.53 86.51 151.42 86.48 151.36 C 85.80 150.13 85.16 148.88 84.57 147.60 C 84.55 147.54 84.51 147.43 84.49 147.37 L 84.19 145.78 C 83.93 145.37 83.41 144.56 83.15 144.15 L 83.01 143.08 C 82.83 139.95 81.13 137.17 80.91 134.06 Z" />
        <path fill="#00416c" opacity="1.00"
            d=" M 48.82 152.16 C 51.00 150.62 53.20 149.09 55.58 147.86 C 64.16 161.29 73.29 174.36 81.95 187.73 C 79.78 189.22 77.58 190.66 75.32 192.00 C 66.57 178.67 57.65 165.45 48.82 152.16 Z" />
        <path fill="#00416c" opacity="1.00"
            d=" M 200.26 147.68 C 202.22 149.30 205.68 150.10 206.43 152.55 C 202.89 158.13 199.01 163.48 195.55 169.10 C 193.22 167.81 191.02 166.33 188.83 164.83 C 192.61 159.09 196.42 153.37 200.26 147.68 Z" />
        <path fill="#00416c" opacity="1.00"
            d=" M 39.01 158.24 C 41.19 156.84 43.36 155.41 45.50 153.95 C 49.39 159.61 53.16 165.36 56.96 171.07 C 54.86 172.68 52.67 174.18 50.31 175.40 C 46.62 169.63 42.68 164.02 39.01 158.24 Z" />
        <path fill="#00416c" opacity="1.00"
            d=" M 199.15 171.14 C 202.97 165.45 206.69 159.70 210.60 154.07 C 212.84 155.46 215.03 156.93 217.12 158.54 C 213.22 164.12 209.51 169.81 205.76 175.49 C 203.45 174.20 201.26 172.73 199.15 171.14 Z" />
        <path fill="#00416c" opacity="1.00"
            d=" M 28.98 164.98 C 31.11 163.39 33.32 161.89 35.66 160.64 C 44.31 174.06 53.50 187.14 62.07 200.61 C 59.91 201.97 57.78 203.39 55.64 204.80 C 46.60 191.62 37.90 178.22 28.98 164.98 Z" />
        <path fill="#00416c" opacity="1.00"
            d=" M 208.98 178.53 C 212.54 172.58 216.51 166.88 220.47 161.19 C 222.64 162.61 224.79 164.06 226.88 165.61 C 223.00 171.28 219.38 177.14 215.33 182.69 C 213.27 181.21 211.16 179.82 208.98 178.53 Z" />
        <path fill="#00416c" opacity="1.00"
            d=" M 173.52 187.28 C 177.45 181.71 181.07 175.93 184.94 170.33 C 187.21 171.67 189.43 173.10 191.51 174.73 C 187.60 180.36 183.95 186.16 180.02 191.78 C 177.78 190.38 175.58 188.93 173.52 187.28 Z" />
        <path fill="#00416c" opacity="1.00"
            d=" M 60.42 177.13 C 64.36 182.77 68.11 188.54 71.91 194.27 C 69.82 195.76 67.69 197.19 65.57 198.64 C 61.42 193.11 57.85 187.17 53.93 181.47 C 56.08 180.01 58.25 178.56 60.42 177.13 Z" />
        <path fill="#00416c" opacity="1.00"
            d=" M 195.23 176.71 C 197.44 178.08 199.62 179.52 201.75 181.03 C 198.12 186.80 194.09 192.30 190.54 198.12 C 188.17 196.89 185.97 195.37 183.79 193.84 C 187.60 188.12 191.38 182.39 195.23 176.71 Z" />
        <path fill="#00416c" opacity="1.00"
            d=" M 205.39 183.16 C 207.65 184.43 209.82 185.87 212.00 187.28 C 208.34 193.18 204.51 198.98 200.44 204.61 C 198.36 203.12 196.23 201.69 194.10 200.26 C 197.79 194.52 201.70 188.92 205.39 183.16 Z" />
    </g>
    <g id="#ed1c24ff">
        <path fill="#ed1c24" opacity="1.00"
            d=" M 100.79 88.75 C 112.61 80.44 128.28 78.04 142.06 82.35 C 157.31 86.87 169.70 99.64 173.93 114.95 C 177.93 129.05 175.28 145.35 165.86 156.74 C 167.95 151.80 169.09 146.33 168.10 140.99 C 166.42 130.37 156.85 121.49 146.05 120.97 C 139.60 120.49 133.12 123.02 128.50 127.50 C 124.11 131.81 118.30 134.82 112.07 134.99 C 101.27 135.40 90.97 127.39 88.51 116.90 C 86.90 111.37 88.48 105.78 89.79 100.40 C 82.55 109.89 79.51 122.25 80.91 134.06 C 81.13 137.17 82.83 139.95 83.01 143.08 C 81.06 139.51 80.91 135.08 80.33 131.07 C 79.16 114.66 87.21 98.02 100.79 88.75 Z" />
        <path fill="#ed1c24" opacity="1.00"
            d=" M 83.15 144.15 C 83.41 144.56 83.93 145.37 84.19 145.78 C 83.84 145.57 83.12 145.15 82.76 144.94 L 83.15 144.15 Z" />
        <path fill="#ed1c24" opacity="1.00"
            d=" M 84.49 147.37 C 84.51 147.43 84.55 147.54 84.57 147.60 C 84.55 147.54 84.51 147.43 84.49 147.37 Z" />
        <path fill="#ed1c24" opacity="1.00"
            d=" M 86.48 151.36 C 86.51 151.42 86.58 151.53 86.61 151.59 C 86.58 151.53 86.51 151.42 86.48 151.36 Z" />
    </g>
</svg>
