<?xml version="1.0" encoding="UTF-8" ?>
<svg width="256" height="256" viewBox="0 0 256 256" version="1.1"
    xmlns="http://www.w3.org/2000/svg">
    <g id="#000000ff">
        <path fill="#000000" opacity="1.00"
            d=" M 117.02 64.14 C 126.48 61.61 136.36 62.17 146.05 62.11 C 151.18 62.01 156.51 63.23 160.49 66.62 C 165.32 70.30 167.43 76.30 168.01 82.15 C 191.31 82.21 214.62 82.05 237.92 82.22 C 247.00 82.22 255.27 89.57 256.00 98.69 L 256.00 101.67 C 255.03 110.31 247.47 117.62 238.66 117.65 C 223.36 117.82 208.06 117.69 192.76 117.70 C 194.96 122.08 196.62 127.09 195.29 132.00 C 194.28 137.22 190.38 141.15 186.09 143.95 C 187.89 148.80 188.55 154.35 186.23 159.14 C 184.70 163.02 181.39 165.70 178.07 168.01 C 179.65 172.67 180.62 177.93 178.53 182.60 C 175.80 189.57 168.43 193.95 161.06 193.85 C 146.72 193.94 132.38 193.83 118.05 193.89 C 110.21 193.95 102.35 193.75 94.58 192.74 C 81.09 190.53 68.10 186.20 54.88 182.84 C 52.91 185.30 50.98 188.16 47.78 189.08 C 43.32 190.41 38.59 189.75 34.01 189.89 C 26.20 189.69 18.37 190.25 10.58 189.63 C 4.69 189.23 0.37 183.93 0.00 178.23 L 0.00 105.90 C 0.50 102.44 1.71 98.78 4.71 96.70 C 8.48 93.81 13.51 94.19 17.99 94.15 C 26.89 94.34 35.80 93.93 44.68 94.32 C 48.71 94.39 51.73 97.22 54.28 100.00 C 68.19 91.34 82.09 82.64 95.98 73.94 C 102.51 69.77 109.44 66.00 117.02 64.14 M 118.08 71.60 C 112.36 73.18 107.02 75.89 102.01 79.03 C 89.29 86.99 76.56 94.93 63.84 102.88 C 61.10 104.59 58.35 106.30 55.62 108.03 C 55.56 110.47 55.81 112.96 55.28 115.37 C 54.77 116.94 52.95 117.29 51.73 118.11 C 51.70 120.69 51.70 123.28 51.73 125.87 C 53.47 126.73 55.77 127.75 55.53 130.10 C 55.70 145.15 55.54 160.20 55.60 175.25 C 66.74 178.14 77.74 181.61 88.99 184.05 C 100.78 186.87 112.99 186.32 125.01 186.37 C 137.30 186.27 149.59 186.57 161.87 186.24 C 166.81 186.19 170.63 182.45 172.34 178.08 C 172.72 173.43 170.03 169.68 167.54 166.06 C 168.48 162.63 171.95 162.08 174.79 160.92 C 177.74 159.77 179.06 156.72 180.36 154.07 C 180.75 149.44 178.13 145.63 175.57 142.06 C 176.49 138.26 180.57 138.04 183.48 136.52 C 186.04 135.23 187.15 132.47 188.36 130.06 C 188.31 126.51 187.70 122.62 184.72 120.30 C 181.56 117.12 175.36 119.05 173.92 113.97 C 174.86 112.38 175.79 110.16 178.03 110.31 C 198.01 110.03 218.02 110.39 238.00 110.15 C 242.98 110.31 246.92 106.54 248.42 102.05 C 248.25 99.46 248.36 96.54 246.60 94.42 C 244.26 90.96 239.96 89.59 235.94 89.66 C 205.31 89.60 174.67 89.76 144.04 89.58 C 141.56 89.79 140.68 87.28 139.79 85.49 C 140.96 84.17 141.90 82.09 143.99 82.24 C 149.49 81.97 155.01 82.26 160.51 82.13 C 160.18 78.84 158.78 75.87 156.82 73.25 C 154.19 71.38 151.33 69.47 147.95 69.66 C 137.99 69.76 127.79 68.83 118.08 71.60 M 8.87 102.89 C 7.38 104.14 7.59 106.25 7.48 108.00 C 7.53 130.97 7.47 153.94 7.51 176.91 C 7.16 179.60 9.00 182.52 11.95 182.30 C 21.63 182.50 31.31 182.28 40.99 182.40 C 43.41 182.41 46.67 182.51 47.70 179.77 C 48.39 176.77 48.04 173.65 48.09 170.60 C 48.16 157.05 47.96 143.51 48.18 129.97 C 48.00 127.83 50.09 126.90 51.57 125.90 C 51.62 123.29 51.61 120.69 51.57 118.09 C 46.70 116.41 48.39 110.83 48.06 106.92 C 48.36 104.47 46.70 101.71 44.00 101.79 C 34.62 101.49 25.23 101.85 15.84 101.64 C 13.53 101.86 10.76 101.21 8.87 102.89 Z" />
        <path fill="#000000" opacity="1.00"
            d=" M 153.94 110.91 C 155.66 110.08 157.64 110.22 159.50 110.10 C 162.94 109.92 167.10 110.05 168.31 113.97 C 167.33 115.30 166.69 117.43 164.75 117.54 C 161.57 117.93 158.31 117.92 155.14 117.49 C 152.10 117.05 151.34 112.45 153.94 110.91 Z" />
        <path fill="#000000" opacity="1.00"
            d=" M 153.98 138.92 C 155.71 138.15 157.67 138.27 159.52 138.17 C 162.94 137.98 167.05 138.09 168.32 141.95 C 167.37 143.31 166.73 145.45 164.78 145.59 C 161.59 145.99 158.31 146.00 155.12 145.54 C 152.03 145.08 151.37 140.47 153.98 138.92 Z" />
        <path fill="#000000" opacity="1.00"
            d=" M 17.54 156.63 C 19.57 152.58 24.17 150.11 28.65 150.46 C 30.85 150.84 31.73 153.20 31.63 155.20 C 29.89 157.24 27.20 157.76 24.93 158.95 C 21.95 161.22 24.06 166.71 27.85 166.31 C 30.81 165.77 32.55 162.47 35.73 162.22 C 37.39 163.21 39.11 164.99 38.31 167.09 C 35.75 173.24 27.48 175.61 21.91 172.08 C 16.64 169.18 14.61 161.87 17.54 156.63 Z" />
        <path fill="#000000" opacity="1.00"
            d=" M 153.90 169.10 C 150.86 166.93 152.92 163.14 155.67 161.91 C 157.76 162.57 159.39 164.01 160.32 165.99 C 159.42 168.57 156.59 171.12 153.90 169.10 Z" />
    </g>
    <g id="#f0c087ff">
        <path fill="#f0c087" opacity="1.00"
            d=" M 118.08 71.60 C 127.79 68.83 137.99 69.76 147.95 69.66 C 151.33 69.47 154.19 71.38 156.82 73.25 C 151.60 73.97 146.32 73.70 141.10 74.27 C 137.35 74.49 134.92 79.08 136.62 82.35 C 137.57 83.50 138.71 84.46 139.79 85.49 C 140.68 87.28 141.56 89.79 144.04 89.58 C 174.67 89.76 205.31 89.60 235.94 89.66 C 239.96 89.59 244.26 90.96 246.60 94.42 C 248.36 96.54 248.25 99.46 248.42 102.05 C 222.30 101.85 196.17 102.09 170.05 101.90 C 167.29 102.12 163.96 101.72 161.80 103.81 C 160.55 105.69 160.19 107.98 159.50 110.10 C 157.64 110.22 155.66 110.08 153.94 110.91 C 151.34 112.45 152.10 117.05 155.14 117.49 C 158.31 117.92 161.57 117.93 164.75 117.54 C 166.69 117.43 167.33 115.30 168.31 113.97 C 170.18 113.97 172.05 113.97 173.92 113.97 C 175.36 119.05 181.56 117.12 184.72 120.30 C 187.70 122.62 188.31 126.51 188.36 130.06 C 181.91 130.06 175.45 129.87 169.00 129.95 C 166.58 130.15 163.71 129.96 161.84 131.80 C 160.55 133.69 160.21 136.03 159.52 138.17 C 157.67 138.27 155.71 138.15 153.98 138.92 C 151.37 140.47 152.03 145.08 155.12 145.54 C 158.31 146.00 161.59 145.99 164.78 145.59 C 166.73 145.45 167.37 143.31 168.32 141.95 C 170.73 142.01 173.15 142.06 175.57 142.06 C 178.13 145.63 180.75 149.44 180.36 154.07 C 174.56 154.09 168.75 153.73 162.96 154.10 C 160.99 154.32 158.50 154.48 157.40 156.40 C 156.57 158.15 156.18 160.06 155.67 161.91 C 152.92 163.14 150.86 166.93 153.90 169.10 C 156.59 171.12 159.42 168.57 160.32 165.99 C 162.73 166.03 165.13 166.06 167.54 166.06 C 170.03 169.68 172.72 173.43 172.34 178.08 C 152.22 178.07 132.09 178.08 111.97 178.08 C 101.89 178.07 91.71 176.97 82.10 173.82 C 74.67 171.41 68.43 165.63 65.61 158.33 C 64.04 154.42 63.90 150.14 63.86 145.98 C 63.96 131.61 63.95 117.25 63.84 102.88 C 76.56 94.93 89.29 86.99 102.01 79.03 C 107.02 75.89 112.36 73.18 118.08 71.60 Z" />
        <path fill="#f0c087" opacity="1.00"
            d=" M 31.63 155.20 C 33.97 156.87 35.51 159.30 35.73 162.22 C 32.55 162.47 30.81 165.77 27.85 166.31 C 24.06 166.71 21.95 161.22 24.93 158.95 C 27.20 157.76 29.89 157.24 31.63 155.20 Z" />
    </g>
    <g id="#e6af78ff">
        <path fill="#e6af78" opacity="1.00"
            d=" M 156.82 73.25 C 158.78 75.87 160.18 78.84 160.51 82.13 C 155.01 82.26 149.49 81.97 143.99 82.24 C 141.90 82.09 140.96 84.17 139.79 85.49 C 138.71 84.46 137.57 83.50 136.62 82.35 C 134.92 79.08 137.35 74.49 141.10 74.27 C 146.32 73.70 151.60 73.97 156.82 73.25 Z" />
        <path fill="#e6af78" opacity="1.00"
            d=" M 161.80 103.81 C 163.96 101.72 167.29 102.12 170.05 101.90 C 196.17 102.09 222.30 101.85 248.42 102.05 C 246.92 106.54 242.98 110.31 238.00 110.15 C 218.02 110.39 198.01 110.03 178.03 110.31 C 175.79 110.16 174.86 112.38 173.92 113.97 C 172.05 113.97 170.18 113.97 168.31 113.97 C 167.10 110.05 162.94 109.92 159.50 110.10 C 160.19 107.98 160.55 105.69 161.80 103.81 Z" />
        <path fill="#e6af78" opacity="1.00"
            d=" M 55.62 108.03 C 58.35 106.30 61.10 104.59 63.84 102.88 C 63.95 117.25 63.96 131.61 63.86 145.98 C 63.90 150.14 64.04 154.42 65.61 158.33 C 68.43 165.63 74.67 171.41 82.10 173.82 C 91.71 176.97 101.89 178.07 111.97 178.08 C 132.09 178.08 152.22 178.07 172.34 178.08 C 170.63 182.45 166.81 186.19 161.87 186.24 C 149.59 186.57 137.30 186.27 125.01 186.37 C 112.99 186.32 100.78 186.87 88.99 184.05 C 77.74 181.61 66.74 178.14 55.60 175.25 C 55.54 160.20 55.70 145.15 55.53 130.10 C 55.77 127.75 53.47 126.73 51.73 125.87 C 51.70 123.28 51.70 120.69 51.73 118.11 C 52.95 117.29 54.77 116.94 55.28 115.37 C 55.81 112.96 55.56 110.47 55.62 108.03 Z" />
        <path fill="#e6af78" opacity="1.00"
            d=" M 161.84 131.80 C 163.71 129.96 166.58 130.15 169.00 129.95 C 175.45 129.87 181.91 130.06 188.36 130.06 C 187.15 132.47 186.04 135.23 183.48 136.52 C 180.57 138.04 176.49 138.26 175.57 142.06 C 173.15 142.06 170.73 142.01 168.32 141.95 C 167.05 138.09 162.94 137.98 159.52 138.17 C 160.21 136.03 160.55 133.69 161.84 131.80 Z" />
        <path fill="#e6af78" opacity="1.00"
            d=" M 157.40 156.40 C 158.50 154.48 160.99 154.32 162.96 154.10 C 168.75 153.73 174.56 154.09 180.36 154.07 C 179.06 156.72 177.74 159.77 174.79 160.92 C 171.95 162.08 168.48 162.63 167.54 166.06 C 165.13 166.06 162.73 166.03 160.32 165.99 C 159.39 164.01 157.76 162.57 155.67 161.91 C 156.18 160.06 156.57 158.15 157.40 156.40 Z" />
    </g>
    <g id="#00aaf0ff">
        <path fill="#00aaf0" opacity="1.00"
            d=" M 8.87 102.89 C 10.76 101.21 13.53 101.86 15.84 101.64 C 15.72 113.78 15.96 125.92 15.76 138.06 C 15.72 141.67 16.05 145.28 16.37 148.88 C 20.21 147.78 24.03 146.43 28.04 146.08 C 34.62 146.10 41.10 150.68 42.89 157.10 C 43.96 160.98 43.39 165.04 43.17 169.00 C 44.81 169.53 46.45 170.06 48.09 170.60 C 48.04 173.65 48.39 176.77 47.70 179.77 C 46.67 182.51 43.41 182.41 40.99 182.40 C 31.31 182.28 21.63 182.50 11.95 182.30 C 9.00 182.52 7.16 179.60 7.51 176.91 C 7.47 153.94 7.53 130.97 7.48 108.00 C 7.59 106.25 7.38 104.14 8.87 102.89 M 17.54 156.63 C 14.61 161.87 16.64 169.18 21.91 172.08 C 27.48 175.61 35.75 173.24 38.31 167.09 C 39.11 164.99 37.39 163.21 35.73 162.22 C 35.51 159.30 33.97 156.87 31.63 155.20 C 31.73 153.20 30.85 150.84 28.65 150.46 C 24.17 150.11 19.57 152.58 17.54 156.63 Z" />
    </g>
    <g id="#00c3ffff">
        <path fill="#00c3ff" opacity="1.00"
            d=" M 15.84 101.64 C 25.23 101.85 34.62 101.49 44.00 101.79 C 46.70 101.71 48.36 104.47 48.06 106.92 C 48.39 110.83 46.70 116.41 51.57 118.09 C 51.61 120.69 51.62 123.29 51.57 125.90 C 50.09 126.90 48.00 127.83 48.18 129.97 C 47.96 143.51 48.16 157.05 48.09 170.60 C 46.45 170.06 44.81 169.53 43.17 169.00 C 43.39 165.04 43.96 160.98 42.89 157.10 C 41.10 150.68 34.62 146.10 28.04 146.08 C 24.03 146.43 20.21 147.78 16.37 148.88 C 16.05 145.28 15.72 141.67 15.76 138.06 C 15.96 125.92 15.72 113.78 15.84 101.64 Z" />
    </g>
</svg>
