<svg
    xmlns="http://www.w3.org/2000/svg"
    viewBox="0 0 473 473"
    id="vector">
    <path
        id="path"
        d="M 236.85 0.02 C 367.648 0.02 473.68 106.052 473.68 236.85 C 473.68 367.648 367.648 473.68 236.85 473.68 C 106.052 473.68 0.02 367.648 0.02 236.85 C 0.02 106.052 106.052 0.02 236.85 0.02 Z"
        fill="#d62427"/>
    <path
        id="path_1"
        d="M 0.001 236.842 C 0.001 106.028 106.037 0 236.836 0 C 367.643 0 367.643 473.681 236.836 473.681 C 106.04 473.677 0.001 367.641 0.001 236.842 Z"
        fill="#dc3027"/>
    <path
        id="path_2"
        d="M 136.618 65.207 L 147.669 99.237 L 183.452 99.237 L 154.505 120.257 L 165.563 154.287 L 136.618 133.26 L 107.675 154.287 L 118.732 120.257 L 89.788 99.237 L 125.561 99.237 Z"
        fill="#f8d12e"/>
    <path
        id="path_3"
        d="M 220.081 45.851 L 216.596 57.788 L 226.866 64.792 L 214.443 65.155 L 210.965 77.099 L 206.766 65.39 L 194.335 65.768 L 204.174 58.158 L 199.975 46.457 L 210.251 53.461 Z"
        fill="#f8d12e"/>
    <path
        id="path_4"
        d="M 220.081 152.754 L 216.596 164.687 L 226.866 171.691 L 214.443 172.058 L 210.965 183.998 L 206.766 172.29 L 194.335 172.671 L 204.174 165.061 L 199.975 153.36 L 210.251 160.357 Z"
        fill="#f8d12e"/>
    <path
        id="path_5"
        d="M 250.383 78.434 L 246.898 90.371 L 257.171 97.375 L 244.745 97.745 L 241.262 109.682 L 237.064 97.973 L 224.637 98.351 L 234.469 90.741 L 230.275 79.04 L 240.553 86.044 Z"
        fill="#f8d12e"/>
    <path
        id="path_6"
        d="M 250.383 122.015 L 246.898 133.952 L 257.171 140.956 L 244.745 141.322 L 241.262 153.263 L 237.064 141.558 L 224.637 141.936 L 234.469 134.326 L 230.275 122.624 L 240.553 129.621 Z"
        fill="#f8d12e"/>
</svg>
