<svg
    xmlns="http://www.w3.org/2000/svg"
    viewBox="0 0 473 473"
    id="vector">
    <path
        id="path"
        d="M 1.068 258.99 L 472.628 258.99 L 472.628 258.997 L 1.068 258.997 L 1.068 258.99 Z"
        fill="#c42126"/>
    <path
        id="path_1"
        d="M 25.629 129.7 L 448.049 129.7 L 448.049 129.707 L 25.629 129.707 L 25.629 129.7 Z"
        fill="#c42126"/>
    <path
        id="path_2"
        d="M 8.831 172.79 L 464.831 172.79 L 464.831 172.797 L 8.831 172.797 L 8.831 172.79 Z"
        fill="#c42126"/>
    <path
        id="path_3"
        d="M 101.793 431.36 L 371.888 431.36 L 371.902 431.345 L 101.778 431.345 Z"
        fill="#c42126"/>
    <path
        id="path_4"
        d="M 236.837 0 C 232.185 0 227.57 0.168 222.989 0.43 L 250.688 0.43 C 246.103 0.168 241.489 0 236.837 0 Z"
        fill="#c42126"/>
    <path
        id="path_5"
        d="M 0.978 215.89 L 472.688 215.89 L 472.688 215.897 L 0.978 215.897 L 0.978 215.89 Z"
        fill="#c42126"/>
    <path
        id="path_6"
        d="M 306.838 86.609 L 419.93 86.609 C 406.497 70.256 390.885 55.78 373.589 43.525 L 288.667 43.525 C 295.694 55.888 301.737 70.476 306.838 86.609 Z"
        fill="#e7e7e7"/>
    <path
        id="path_7"
        d="M 288.667 43.525 L 373.589 43.525 C 338.482 18.646 296.333 3.066 250.688 0.43 L 243.396 0.43 C 264.88 3.134 274.748 19.034 288.667 43.525 Z"
        fill="#dc3027"/>
    <path
        id="path_8"
        d="M 464.846 172.794 C 460.635 157.776 454.988 143.367 448.048 129.71 L 317.94 129.71 C 320.576 143.543 322.656 157.992 324.196 172.794 L 464.846 172.794 Z"
        fill="#e7e7e7"/>
    <path
        id="path_9"
        d="M 310.622 129.703 L 448.044 129.703 C 440.213 114.3 430.805 99.846 419.93 86.612 L 299.886 86.612 C 304.119 100.011 307.713 114.465 310.622 129.703 Z"
        fill="#dc3027"/>
    <path
        id="path_10"
        d="M 329.178 258.98 L 472.609 258.98 C 473.29 251.692 473.675 244.306 473.675 236.842 C 473.675 229.778 473.305 222.804 472.699 215.893 L 329.212 215.893 C 329.679 230.223 329.671 244.658 329.178 258.98 Z"
        fill="#e7e7e7"/>
    <path
        id="path_11"
        d="M 472.703 215.886 C 471.405 201.088 468.739 186.691 464.846 172.802 L 318.154 172.802 C 319.627 186.911 320.6 201.346 321.075 215.886 L 472.703 215.886 Z"
        fill="#dc3027"/>
    <path
        id="path_12"
        d="M 315.465 345.166 L 447.427 345.166 C 454.465 331.524 460.201 317.104 464.502 302.075 L 321.845 302.075 C 320.274 316.899 318.142 331.345 315.465 345.166 Z"
        fill="#e7e7e7"/>
    <path
        id="path_13"
        d="M 464.506 302.072 C 468.481 288.187 471.241 273.79 472.613 258.988 L 324.709 258.988 C 324.204 273.539 323.202 287.97 321.699 302.072 L 464.506 302.072 L 464.506 302.072 Z"
        fill="#dc3027"/>
    <path
        id="path_14"
        d="M 371.902 431.345 C 389.448 419.139 405.281 404.648 418.927 388.261 L 307.806 388.261 C 302.612 404.461 296.445 419.026 289.291 431.345 L 371.902 431.345 L 371.902 431.345 Z"
        fill="#e7e7e7"/>
    <path
        id="path_15"
        d="M 303.625 388.258 L 418.927 388.258 C 429.929 375.039 439.48 360.585 447.426 345.167 L 314.496 345.167 C 311.546 360.416 307.915 374.877 303.625 388.258 Z"
        fill="#dc3027"/>
    <path
        id="path_16"
        d="M 228.254 473.509 C 227.775 473.494 227.297 473.472 226.818 473.457 C 227.297 473.471 227.776 473.494 228.254 473.509 Z"
        fill="#dc3027"/>
    <path
        id="path_17"
        d="M 236.837 473.677 C 287.048 473.677 333.572 458.004 371.888 431.36 L 286.173 431.36 C 270.96 457.57 260.923 473.677 236.837 473.677 Z"
        fill="#dc3027"/>
    <path
        id="path_18"
        d="M 236.837 473.677 C 233.961 473.677 231.104 473.61 228.255 473.509 C 231.134 473.606 233.994 473.677 236.837 473.677 Z"
        fill="#c42126"/>
    <path
        id="path_19"
        d="M 296.509 43.525 L 100.092 43.525 C 82.793 55.78 67.184 70.255 53.747 86.609 L 314.676 86.609 C 309.575 70.476 303.536 55.888 296.509 43.525 Z"
        fill="#f3f4f5"/>
    <path
        id="path_20"
        d="M 100.092 43.525 L 296.509 43.525 C 282.587 19.034 264.88 3.134 243.396 0.43 L 222.989 0.43 C 177.344 3.066 135.195 18.646 100.092 43.525 Z"
        fill="#e73625"/>
    <path
        id="path_21"
        d="M 8.835 172.794 L 331.665 172.794 C 330.124 157.989 328.045 143.543 325.409 129.71 L 25.633 129.71 C 18.692 143.368 13.046 157.776 8.835 172.794 Z"
        fill="#f3f4f5"/>
    <path
        id="path_22"
        d="M 53.747 86.609 C 42.88 99.843 33.464 114.296 25.637 129.7 L 325.409 129.7 C 322.503 114.465 318.91 100.012 314.676 86.609 C 314.676 86.609 53.747 86.609 53.747 86.609 Z"
        fill="#e73625"/>
    <path
        id="path_23"
        d="M 0.002 236.842 C 0.002 244.306 0.391 251.692 1.068 258.98 L 334.559 258.98 C 335.053 244.657 335.06 230.226 334.593 215.896 L 0.978 215.896 C 0.372 222.804 0.002 229.778 0.002 236.842 Z"
        fill="#f3f4f5"/>
    <path
        id="path_24"
        d="M 0.978 215.886 L 334.589 215.886 C 334.114 201.343 333.138 186.912 331.668 172.802 L 8.831 172.802 C 4.938 186.694 2.272 201.088 0.978 215.886 Z"
        fill="#e73625"/>
    <path
        id="path_25"
        d="M 331.549 302.072 L 9.175 302.072 C 13.476 317.105 19.216 331.521 26.25 345.163 L 325.169 345.163 C 327.847 331.345 329.974 316.899 331.549 302.072 Z"
        fill="#f3f4f5"/>
    <path
        id="path_26"
        d="M 9.175 302.072 L 331.549 302.072 C 333.049 287.97 334.054 273.535 334.559 258.988 L 1.068 258.988 C 2.44 273.793 5.204 288.187 9.175 302.072 Z"
        fill="#e73625"/>
    <path
        id="path_27"
        d="M 101.778 431.345 L 295.787 431.345 C 302.941 419.023 309.111 404.461 314.302 388.261 L 54.753 388.261 C 68.399 404.648 84.228 419.139 101.778 431.345 Z"
        fill="#f3f4f5"/>
    <path
        id="path_28"
        d="M 26.254 345.166 C 34.201 360.584 43.751 375.038 54.753 388.257 L 314.302 388.257 C 318.588 374.877 322.219 360.416 325.169 345.166 L 26.254 345.166 Z"
        fill="#e73625"/>
    <path
        id="path_29"
        d="M 226.818 473.456 C 227.297 473.471 227.775 473.493 228.254 473.508 C 231.104 473.609 233.961 473.676 236.836 473.676 C 260.923 473.676 280.563 457.57 295.779 431.359 L 101.793 431.359 C 137.54 456.221 180.448 471.523 226.818 473.456 Z"
        fill="#e73625"/>
    <path
        id="path_30"
        d="M 231.941 0.123 C 110.574 2.592 11.654 96.301 1.008 215.5 L 231.945 215.5 L 231.945 0.123 L 231.941 0.123 Z"
        fill="#283991"/>
    <path
        id="path_31"
        d="M 47.39 134.187 L 50.998 145.297 L 62.688 145.297 L 53.231 152.167 L 56.843 163.285 L 47.39 156.411 L 37.94 163.285 L 41.545 152.167 L 32.091 145.297 L 43.781 145.297 Z"
        fill="#efefef"/>
    <path
        id="path_32"
        d="M 47.39 173.438 L 50.998 184.555 L 62.688 184.555 L 53.231 191.425 L 56.843 202.543 L 47.39 195.669 L 37.94 202.543 L 41.545 191.425 L 32.091 184.555 L 43.781 184.555 Z"
        fill="#efefef"/>
    <path
        id="path_33"
        d="M 86.648 75.296 L 90.257 86.41 L 101.943 86.41 L 92.489 93.284 L 96.098 104.394 L 86.648 97.528 L 77.194 104.394 L 80.803 93.284 L 71.345 86.41 L 83.035 86.41 Z"
        fill="#efefef"/>
    <path
        id="path_34"
        d="M 86.648 114.554 L 90.257 125.668 L 101.943 125.668 L 92.489 132.534 L 96.098 143.652 L 86.648 136.786 L 77.194 143.652 L 80.803 132.534 L 71.345 125.668 L 83.035 125.668 Z"
        fill="#efefef"/>
    <path
        id="path_35"
        d="M 86.648 153.812 L 90.257 164.93 L 101.943 164.93 L 92.489 171.792 L 96.098 182.91 L 86.648 176.037 L 77.194 182.91 L 80.803 171.792 L 71.345 164.93 L 83.035 164.93 Z"
        fill="#efefef"/>
    <path
        id="path_36"
        d="M 17.585 182.91 L 13.973 171.792 L 23.427 164.926 L 11.744 164.926 L 11.482 164.115 C 10.199 168.083 9.04 172.099 7.971 176.16 L 8.136 176.037 L 17.585 182.91 Z"
        fill="#efefef"/>
    <path
        id="path_37"
        d="M 37.94 124.027 L 47.39 117.154 L 56.844 124.027 L 53.232 112.909 L 62.686 106.036 L 50.996 106.036 L 47.387 94.926 L 43.778 106.036 L 39.47 106.036 C 38.67 107.248 37.896 108.467 37.118 109.697 L 41.546 112.909 L 37.94 124.027 Z"
        fill="#efefef"/>
    <path
        id="path_38"
        d="M 86.648 58.27 L 96.098 65.136 L 92.489 54.026 L 101.939 47.153 L 95.189 47.153 C 89.456 51.439 83.925 55.975 78.611 60.761 L 77.186 65.136 L 86.648 58.27 Z"
        fill="#efefef"/>
    <path
        id="path_39"
        d="M 116.452 45.511 L 125.906 38.638 L 135.356 45.511 L 131.747 34.393 L 141.197 27.527 L 129.511 27.527 L 129.021 26.031 C 125.061 28.054 121.142 30.159 117.312 32.399 L 120.057 34.392 L 116.452 45.511 Z"
        fill="#efefef"/>
    <path
        id="path_40"
        d="M 125.906 55.671 L 129.515 66.778 L 141.201 66.778 L 131.747 73.651 L 135.356 84.769 L 125.906 77.895 L 116.452 84.769 L 120.061 73.651 L 110.604 66.778 L 122.293 66.778 Z"
        fill="#efefef"/>
    <path
        id="path_41"
        d="M 125.906 94.929 L 129.515 106.036 L 141.201 106.036 L 131.747 112.909 L 135.356 124.027 L 125.906 117.153 L 116.452 124.027 L 120.061 112.909 L 110.604 106.036 L 122.293 106.036 Z"
        fill="#efefef"/>
    <path
        id="path_42"
        d="M 125.906 134.187 L 129.515 145.297 L 141.201 145.297 L 131.747 152.167 L 135.356 163.285 L 125.906 156.411 L 116.452 163.285 L 120.061 152.167 L 110.604 145.297 L 122.293 145.297 Z"
        fill="#efefef"/>
    <path
        id="path_43"
        d="M 125.906 173.438 L 129.515 184.555 L 141.201 184.555 L 131.747 191.425 L 135.356 202.543 L 125.906 195.669 L 116.452 202.543 L 120.061 191.425 L 110.604 184.555 L 122.293 184.555 Z"
        fill="#efefef"/>
    <path
        id="path_44"
        d="M 165.164 36.038 L 168.773 47.152 L 180.459 47.152 L 171.009 54.026 L 174.614 65.136 L 165.164 58.27 L 155.707 65.136 L 159.319 54.026 L 149.862 47.152 L 161.551 47.152 Z"
        fill="#efefef"/>
    <path
        id="path_45"
        d="M 165.164 75.296 L 168.773 86.41 L 180.459 86.41 L 171.009 93.284 L 174.614 104.394 L 165.164 97.528 L 155.707 104.394 L 159.319 93.284 L 149.862 86.41 L 161.551 86.41 Z"
        fill="#efefef"/>
    <path
        id="path_46"
        d="M 165.164 114.554 L 168.773 125.668 L 180.459 125.668 L 171.009 132.534 L 174.614 143.652 L 165.164 136.786 L 155.707 143.652 L 159.319 132.534 L 149.862 125.668 L 161.551 125.668 Z"
        fill="#efefef"/>
    <path
        id="path_47"
        d="M 165.164 153.812 L 168.773 164.93 L 180.459 164.93 L 171.009 171.792 L 174.614 182.91 L 165.164 176.037 L 155.707 182.91 L 159.319 171.792 L 149.862 164.93 L 161.551 164.93 Z"
        fill="#efefef"/>
    <path
        id="path_48"
        d="M 204.422 16.413 L 208.031 27.527 L 219.717 27.527 L 210.263 34.393 L 213.872 45.511 L 204.422 38.637 L 194.965 45.511 L 198.577 34.393 L 189.12 27.527 L 200.806 27.527 Z"
        fill="#efefef"/>
    <path
        id="path_49"
        d="M 204.422 55.671 L 208.031 66.778 L 219.717 66.778 L 210.263 73.651 L 213.872 84.769 L 204.422 77.895 L 194.965 84.769 L 198.577 73.651 L 189.12 66.778 L 200.806 66.778 Z"
        fill="#efefef"/>
    <path
        id="path_50"
        d="M 204.422 94.929 L 208.031 106.036 L 219.717 106.036 L 210.263 112.909 L 213.872 124.027 L 204.422 117.153 L 194.965 124.027 L 198.577 112.909 L 189.12 106.036 L 200.806 106.036 Z"
        fill="#efefef"/>
    <path
        id="path_51"
        d="M 204.422 134.187 L 208.031 145.297 L 219.717 145.297 L 210.263 152.167 L 213.872 163.285 L 204.422 156.411 L 194.965 163.285 L 198.577 152.167 L 189.12 145.297 L 200.806 145.297 Z"
        fill="#efefef"/>
    <path
        id="path_52"
        d="M 204.422 173.438 L 208.031 184.555 L 219.717 184.555 L 210.263 191.425 L 213.872 202.543 L 204.422 195.669 L 194.965 202.543 L 198.577 191.425 L 189.12 184.555 L 200.806 184.555 Z"
        fill="#efefef"/>
</svg>
