<svg
    xmlns="http://www.w3.org/2000/svg"
    viewBox="0 0 473 473"
    id="vector">
    <path
        id="path"
        d="M 236.836 473.673 C 312.615 473.673 380.021 438.054 423.37 382.682 L 298.632 382.682 C 282.529 436.36 273.542 473.673 236.836 473.673 Z"
        fill="#c42126"/>
    <path
        id="path_1"
        d="M 298.632 90.991 L 423.373 90.991 C 380.02 35.627 312.613 0 236.836 0 C 273.542 0 282.529 37.313 298.632 90.991 Z"
        fill="#c42126"/>
    <path
        id="path_2"
        d="M 423.376 90.991 L 298.632 90.991 C 323.807 174.9 323.807 298.784 298.632 382.681 L 423.365 382.681 C 454.852 342.473 473.673 291.873 473.673 236.838 C 473.677 181.807 454.855 131.203 423.376 90.991 Z"
        fill="#ffc40c"/>
    <path
        id="path_3"
        d="M 316.053 382.682 L 50.309 382.682 C 90.932 434.576 152.695 469.122 222.658 473.258 C 222.703 473.258 222.744 473.265 222.789 473.265 C 227.441 473.534 232.123 473.673 236.835 473.673 C 273.542 473.673 299.947 436.36 316.053 382.682 Z"
        fill="#d32030"/>
    <path
        id="path_4"
        d="M 50.309 90.991 L 316.054 90.991 C 299.947 37.313 273.542 0 236.836 0 C 232.124 0 227.442 0.138 222.79 0.415 C 222.745 0.415 222.704 0.422 222.659 0.422 C 152.695 4.555 90.932 39.105 50.309 90.991 Z"
        fill="#d32030"/>
    <path
        id="path_5"
        d="M 0.001 236.838 C 0.001 291.873 18.822 342.473 50.309 382.681 L 316.054 382.681 C 341.229 298.78 341.229 174.895 316.054 90.991 L 50.309 90.991 C 18.822 131.203 0.001 181.807 0.001 236.838 Z"
        fill="#ffd034"/>
</svg>
