<svg
    xmlns="http://www.w3.org/2000/svg"
    viewBox="0 0 512 512"
    id="vector">
    <path
        id="path"
        d="M 462.75 210.479 C 458.771 208.823 454.167 209.739 451.125 212.792 L 385.271 278.625 C 380.792 283.115 375.125 286.135 368.938 287.375 L 315.605 298.042 C 304.98 300.188 294.23 296.813 286.709 289.302 C 279.126 281.708 275.855 270.896 277.959 260.396 L 287.367 213.333 L 117.333 213.333 C 111.437 213.333 106.666 208.562 106.666 202.666 C 106.666 196.77 111.437 191.999 117.333 191.999 L 296.394 191.999 C 296.765 191.588 296.981 191.071 297.374 190.676 L 338.724 149.332 L 117.333 149.332 C 111.437 149.332 106.666 144.561 106.666 138.665 C 106.666 132.769 111.437 127.998 117.333 127.998 L 352 127.998 C 354.271 127.998 356.259 128.864 357.988 130.072 L 427.208 60.862 C 433.041 55.018 440.104 50.424 448.208 47.195 C 451.896 45.726 454.458 42.32 454.854 38.372 C 455.271 34.414 453.437 30.57 450.125 28.382 C 443.104 23.767 435 21.33 426.667 21.33 L 42.667 21.33 C 19.146 21.333 0 40.469 0 64 L 0 480 C 0 484.313 2.604 488.208 6.583 489.854 C 7.896 490.406 9.291 490.667 10.666 490.667 C 13.437 490.667 16.166 489.584 18.208 487.542 L 121.75 384 L 426.667 384 C 450.188 384 469.334 364.865 469.334 341.333 L 469.334 220.333 C 469.333 216.021 466.729 212.125 462.75 210.479 Z M 245.333 277.333 L 117.333 277.333 C 111.437 277.333 106.666 272.562 106.666 266.666 C 106.666 260.77 111.437 255.999 117.333 255.999 L 245.333 255.999 C 251.229 255.999 256 260.77 256 266.666 C 256 272.563 251.229 277.333 245.333 277.333 Z"
        fill="#32bea6"/>
    <path
        id="path_1"
        d="M 471.167 64 C 460.396 64 449.875 68.365 442.292 75.958 L 312.458 205.771 C 310.958 207.261 309.958 209.156 309.541 211.219 L 298.874 264.573 C 298.166 268.073 299.27 271.688 301.791 274.208 C 303.812 276.229 306.541 277.333 309.333 277.333 C 310.021 277.333 310.729 277.26 311.416 277.125 L 364.729 266.458 C 366.812 266.041 368.708 265.031 370.187 263.541 L 500.041 133.708 C 500.041 133.708 500.041 133.708 500.041 133.698 C 507.645 126.094 511.999 115.573 511.999 104.833 C 512 82.313 493.688 64 471.167 64 Z M 454.249 149.332 L 426.662 121.745 L 441.745 106.662 L 469.334 134.251 L 454.249 149.332 Z"
        fill="#32bea6"/>
</svg>
