<svg
    xmlns="http://www.w3.org/2000/svg"
    viewBox="0 0 512 512"
    id="vector">
    <path
        id="path"
        d="M 512 256 C 512 397.384 397.384 512 256 512 C 114.616 512 0 397.384 0 256 C 87.93 168.07 162.504 93.496 256 0 C 397.384 0 512 114.616 512 256 Z"
        fill="#ff4b55"/>
    <path
        id="path_1"
        d="M 256 256 C 256 114.616 256 97.948 256 0 C 114.616 0 0 114.616 0 256 L 256 256 Z"
        fill="#41479b"/>
    <path
        id="path_2"
        d="M 222.609 149.821 L 191.344 164.529 L 207.992 194.808 L 174.043 188.312 L 169.74 222.609 L 146.094 197.385 L 122.446 222.609 L 118.145 188.312 L 84.195 194.806 L 100.843 164.527 L 69.579 149.821 L 100.844 135.116 L 84.195 104.836 L 118.144 111.331 L 122.447 77.035 L 146.094 102.259 L 169.741 77.035 L 174.043 111.331 L 207.993 104.836 L 191.344 135.117 Z"
        fill="#f5f5f5"/>
    <path
        id="path_3"
        d="M 146.098 102.163 C 172.416 102.163 193.751 123.498 193.751 149.816 C 193.751 176.134 172.416 197.469 146.098 197.469 C 119.78 197.469 98.445 176.134 98.445 149.816 C 98.445 123.498 119.78 102.163 146.098 102.163 Z"
        fill="#41479b"/>
    <path
        id="path_4"
        d="M 146.094 175.213 C 132.093 175.213 120.703 163.822 120.703 149.821 C 120.703 135.82 132.094 124.429 146.094 124.429 C 160.095 124.429 171.486 135.82 171.486 149.821 C 171.485 163.822 160.093 175.213 146.094 175.213 Z"
        fill="#f5f5f5"/>
</svg>
