<svg
    xmlns="http://www.w3.org/2000/svg"
    viewBox="0 0 473 473"
    id="vector">
    <path
        id="path"
        d="M 460.143 157.874 C 460.117 157.799 460.094 157.736 460.068 157.668 C 429.756 72.202 351.789 9.321 258.113 0.974 C 294.361 20.846 304.947 83.806 314.222 157.875 C 320.557 208.468 320.598 264.214 314.342 314.87 C 305.146 389.34 294.515 452.744 258.114 472.699 C 351.962 464.337 430.041 401.239 460.234 315.543 C 460.313 315.315 460.38 315.091 460.462 314.87 C 468.988 290.432 473.681 264.188 473.681 236.844 C 473.677 209.141 468.879 182.575 460.143 157.874 Z"
        fill="#e12a28"/>
    <path
        id="path_1"
        d="M 326.412 157.874 C 317.142 83.804 294.36 20.845 258.109 0.973 C 251.097 0.352 244.007 0 236.835 0 C 133.806 0 46.188 65.803 13.608 157.668 C 13.582 157.735 13.559 157.799 13.533 157.874 C 4.798 182.575 0 209.141 0 236.842 C 0 264.19 4.693 290.43 13.219 314.868 C 13.298 315.089 13.369 315.313 13.447 315.541 C 45.899 407.643 133.637 473.676 236.834 473.676 C 244.007 473.676 251.097 473.324 258.108 472.696 C 294.509 452.742 317.335 389.337 326.531 314.867 C 332.788 264.209 332.747 208.467 326.412 157.874 Z"
        fill="#ed3432"/>
    <path
        id="path_2"
        d="M 234.718 115.454 L 262.851 202.047 L 353.906 202.047 L 280.24 255.555 L 308.376 342.157 L 234.718 288.636 L 161.056 342.157 L 189.193 255.555 L 115.53 202.047 L 206.582 202.047 Z"
        fill="#fdce0c"/>
</svg>
