<?xml version="1.0" encoding="UTF-8" ?>
<svg width="256" height="256" viewBox="0 0 256 256" version="1.1"
    xmlns="http://www.w3.org/2000/svg">
    <g id="#000000ff">
        <path fill="#000000" opacity="1.00"
            d=" M 112.39 47.43 C 117.92 40.30 129.64 39.55 135.94 46.07 C 140.91 50.58 141.90 57.72 140.92 64.05 C 139.90 76.78 130.65 87.19 129.88 99.93 C 163.58 100.08 197.29 99.97 230.99 99.99 C 236.60 100.08 242.74 99.28 247.72 102.44 C 252.26 105.04 255.04 109.88 256.00 114.92 L 256.00 118.82 C 255.18 124.04 252.28 129.02 247.61 131.67 C 243.56 134.23 238.60 134.11 233.99 134.10 C 219.67 133.99 205.35 134.16 191.03 134.01 C 192.75 137.85 194.27 142.04 193.42 146.31 C 192.88 150.42 190.31 153.80 187.64 156.79 C 191.77 161.02 194.65 166.91 193.37 172.94 C 192.50 179.24 187.57 183.98 181.97 186.46 C 183.65 189.75 185.32 193.26 185.07 197.07 C 185.05 205.68 177.52 213.38 168.90 213.54 C 157.60 213.74 146.30 213.48 134.99 213.64 C 132.60 213.59 130.14 213.83 127.80 213.20 C 126.67 212.26 125.85 211.02 124.92 209.90 C 126.13 208.56 126.89 206.21 129.03 206.23 C 142.02 205.89 155.05 206.38 168.05 206.02 C 171.94 206.04 175.69 203.54 176.95 199.83 C 179.03 194.74 175.53 188.32 170.09 187.42 C 164.70 186.79 159.25 187.09 153.84 187.08 C 150.89 186.88 148.66 189.07 146.01 189.91 C 143.02 190.13 141.08 186.27 142.95 183.99 C 145.19 181.36 148.59 179.86 152.01 179.69 C 160.45 179.34 168.92 179.91 177.36 179.45 C 182.14 179.21 186.31 174.84 185.96 170.01 C 186.26 165.11 181.91 160.78 177.09 160.66 C 169.40 160.38 161.70 160.56 154.01 160.55 C 150.91 160.34 148.59 162.66 145.87 163.68 C 143.07 164.08 140.91 160.74 142.28 158.31 C 144.58 154.87 148.86 153.25 152.87 153.12 C 160.95 152.85 169.06 153.36 177.14 152.90 C 181.78 152.85 186.01 148.73 185.96 144.05 C 186.49 139.33 182.68 134.74 177.99 134.28 C 169.65 133.68 161.27 134.40 152.93 133.95 C 150.12 134.02 148.28 130.38 150.04 128.19 C 151.07 126.48 153.23 126.58 154.97 126.52 C 182.33 126.55 209.69 126.53 237.05 126.54 C 240.37 126.64 244.02 125.88 246.18 123.13 C 249.36 119.57 249.12 113.63 245.65 110.34 C 243.47 107.98 240.11 107.48 237.05 107.53 C 201.01 107.54 164.97 107.52 128.94 107.54 C 127.04 107.55 124.60 107.36 123.78 105.31 C 122.09 100.88 122.20 95.87 123.52 91.36 C 126.22 83.08 130.60 75.40 132.82 66.96 C 133.71 62.01 134.76 56.01 131.08 51.91 C 127.72 47.89 120.60 48.29 117.78 52.73 C 112.81 60.42 109.76 69.47 103.08 75.98 C 95.11 83.72 87.09 91.41 79.07 99.10 C 72.25 105.71 62.33 108.52 53.00 107.31 C 51.25 106.87 50.58 104.86 49.40 103.67 C 50.75 102.36 51.72 100.07 53.92 100.16 C 57.85 99.79 61.93 100.11 65.70 98.71 C 69.65 97.38 72.94 94.70 75.88 91.82 C 82.97 84.92 90.14 78.11 97.24 71.21 C 104.18 64.60 106.82 55.01 112.39 47.43 Z" />
        <path fill="#000000" opacity="1.00"
            d=" M 0.00 99.15 C 0.95 94.42 5.02 90.46 9.98 90.54 C 17.17 90.48 24.39 90.17 31.56 90.73 C 37.69 91.52 40.63 98.13 39.89 103.74 C 39.80 133.80 39.88 163.87 39.86 193.93 C 48.87 194.17 57.93 193.40 66.91 194.42 C 76.44 195.61 83.91 202.27 92.94 204.92 C 99.10 206.88 105.62 205.76 111.95 206.24 C 114.03 206.23 114.80 208.49 115.78 209.91 C 114.74 211.29 113.92 213.49 111.86 213.47 C 104.03 213.81 95.89 214.14 88.42 211.33 C 80.24 208.62 73.35 202.46 64.52 201.70 C 56.39 201.05 48.23 201.55 40.09 201.40 C 39.79 205.00 39.62 209.12 36.65 211.66 C 33.05 215.22 27.59 214.38 23.00 214.49 C 18.00 214.33 12.97 214.84 8.01 214.13 C 3.85 213.51 1.07 209.82 0.00 205.99 L 0.00 99.15 M 9.09 98.18 C 7.48 98.77 7.53 100.57 7.50 102.00 C 7.50 135.67 7.49 169.34 7.50 203.01 C 7.34 204.68 7.89 206.94 9.98 206.86 C 16.65 207.02 23.33 207.02 30.00 206.80 C 32.00 206.86 32.48 204.52 32.35 202.96 C 32.35 169.28 32.35 135.61 32.35 101.93 C 32.48 100.40 32.00 98.08 30.03 98.13 C 23.06 97.95 16.05 97.82 9.09 98.18 Z" />
        <path fill="#000000" opacity="1.00"
            d=" M 18.45 184.48 C 21.74 183.15 25.49 186.76 24.20 190.10 C 23.31 193.10 19.13 194.24 16.90 192.01 C 14.40 189.91 15.34 185.42 18.45 184.48 Z" />
    </g>
    <g id="#ffcdbeff">
        <path fill="#ffcdbe" opacity="1.00"
            d=" M 117.78 52.73 C 120.60 48.29 127.72 47.89 131.08 51.91 C 134.76 56.01 133.71 62.01 132.82 66.96 C 130.60 75.40 126.22 83.08 123.52 91.36 C 122.20 95.87 122.09 100.88 123.78 105.31 C 124.60 107.36 127.04 107.55 128.94 107.54 C 164.97 107.52 201.01 107.54 237.05 107.53 C 240.11 107.48 243.47 107.98 245.65 110.34 C 249.12 113.63 249.36 119.57 246.18 123.13 C 244.02 125.88 240.37 126.64 237.05 126.54 C 209.69 126.53 182.33 126.55 154.97 126.52 C 153.23 126.58 151.07 126.48 150.04 128.19 C 148.28 130.38 150.12 134.02 152.93 133.95 C 161.27 134.40 169.65 133.68 177.99 134.28 C 182.68 134.74 186.49 139.33 185.96 144.05 C 186.01 148.73 181.78 152.85 177.14 152.90 C 169.06 153.36 160.95 152.85 152.87 153.12 C 148.86 153.25 144.58 154.87 142.28 158.31 C 140.91 160.74 143.07 164.08 145.87 163.68 C 148.59 162.66 150.91 160.34 154.01 160.55 C 161.70 160.56 169.40 160.38 177.09 160.66 C 181.91 160.78 186.26 165.11 185.96 170.01 C 186.31 174.84 182.14 179.21 177.36 179.45 C 168.92 179.91 160.45 179.34 152.01 179.69 C 148.59 179.86 145.19 181.36 142.95 183.99 C 141.08 186.27 143.02 190.13 146.01 189.91 C 148.66 189.07 150.89 186.88 153.84 187.08 C 159.25 187.09 164.70 186.79 170.09 187.42 C 175.53 188.32 179.03 194.74 176.95 199.83 C 175.69 203.54 171.94 206.04 168.05 206.02 C 155.05 206.38 142.02 205.89 129.03 206.23 C 126.89 206.21 126.13 208.56 124.92 209.90 C 121.87 209.85 118.83 209.85 115.78 209.91 C 114.80 208.49 114.03 206.23 111.95 206.24 C 105.62 205.76 99.10 206.88 92.94 204.92 C 83.91 202.27 76.44 195.61 66.91 194.42 C 57.93 193.40 48.87 194.17 39.86 193.93 C 39.88 163.87 39.80 133.80 39.89 103.74 C 43.06 103.74 46.23 103.75 49.40 103.67 C 50.58 104.86 51.25 106.87 53.00 107.31 C 62.33 108.52 72.25 105.71 79.07 99.10 C 87.09 91.41 95.11 83.72 103.08 75.98 C 109.76 69.47 112.81 60.42 117.78 52.73 Z" />
    </g>
    <g id="#c6e0ffff">
        <path fill="#c6e0ff" opacity="1.00"
            d=" M 9.09 98.18 C 16.05 97.82 23.06 97.95 30.03 98.13 C 32.00 98.08 32.48 100.40 32.35 101.93 C 32.35 135.61 32.35 169.28 32.35 202.96 C 32.48 204.52 32.00 206.86 30.00 206.80 C 23.33 207.02 16.65 207.02 9.98 206.86 C 7.89 206.94 7.34 204.68 7.50 203.01 C 7.49 169.34 7.50 135.67 7.50 102.00 C 7.53 100.57 7.48 98.77 9.09 98.18 M 18.45 184.48 C 15.34 185.42 14.40 189.91 16.90 192.01 C 19.13 194.24 23.31 193.10 24.20 190.10 C 25.49 186.76 21.74 183.15 18.45 184.48 Z" />
    </g>
</svg>
