<svg xmlns="http://www.w3.org/2000/svg" viewBox="0 0 128 128" id="vector">
    <path id="path"
        d="M 1.54 17.98 C 1.45 16.32 2.27 14.33 4.09 14.03 C 7.03 13.59 10.02 13.81 12.97 13.8 C 37.33 13.81 61.7 13.78 86.06 13.81 C 88.13 13.59 90.7 14.61 90.72 17.03 C 90.97 24.37 90.93 31.74 90.74 39.08 C 90.74 42.6 86.55 42.63 83.99 42.55 C 81.51 42.37 77.73 43.11 76.76 40.05 C 76.35 37.29 76.46 34.5 76.51 31.73 C 69.39 31.74 62.27 31.73 55.14 31.73 C 55.14 54.45 55.14 77.17 55.14 99.88 C 59.04 100.42 64.41 98.29 67.23 101.74 C 67.67 105.54 69.11 111 65.76 113.78 C 54.58 114.8 43.25 113.86 32.01 114.24 C 29.43 114.21 25.08 114.67 24.82 111.06 C 24.82 107.62 23.47 102.97 26.38 100.41 C 29.85 99.34 33.62 100.01 37.21 99.88 C 37.21 77.17 37.21 54.45 37.21 31.74 C 30.09 31.73 22.96 31.73 15.84 31.73 C 15.44 35.07 17.18 39.81 13.9 42.05 C 10.66 42.82 7.25 42.63 3.96 42.23 C 1.18 41.5 1.53 38.18 1.46 35.95 C 1.58 29.96 1.37 23.97 1.54 17.98 Z"
        fill="#000000" />
    <path id="path_1"
        d="M 68.84 50.93 C 69.12 48.98 71.46 49.29 72.88 49.18 C 89.28 49.21 105.68 49.22 122.08 49.17 C 123.56 49.32 126.05 48.9 126.32 50.97 C 126.71 55.66 126.52 60.39 126.45 65.09 C 126.55 68.6 122.18 67.86 119.89 67.78 C 116.19 67.79 117.43 63.16 117.14 60.8 C 112.56 60.8 107.97 60.8 103.39 60.8 C 103.38 75.51 103.39 90.21 103.38 104.91 C 105.93 105.24 109.33 103.97 111.23 106.14 C 111.46 108.65 112.55 112.41 110.02 114.01 C 102 114.4 93.93 114.22 85.89 114.11 C 83.71 114.23 83.54 111.61 83.58 110.03 C 83.74 108.38 83.16 105.98 85.05 105.14 C 87.27 104.79 89.54 104.92 91.78 104.91 C 91.77 90.21 91.78 75.5 91.78 60.8 C 87.19 60.8 82.61 60.8 78.02 60.8 C 77.78 63.22 78.92 67.93 75.11 67.79 C 72.88 67.87 68.6 68.54 68.71 65.13 C 68.64 60.4 68.44 55.64 68.84 50.93 Z"
        fill="#000000" />
</svg>
