<?xml version="1.0" encoding="UTF-8" ?>
<svg width="256" height="256" viewBox="0 0 256 256" version="1.1"
    xmlns="http://www.w3.org/2000/svg">
    <g id="#f14336ff">
        <path fill="#f14336" opacity="1.00"
            d=" M 126.51 0.00 L 129.43 0.00 C 158.53 0.23 187.33 10.85 209.72 29.43 C 195.95 40.81 182.08 52.06 168.26 63.38 C 151.49 52.97 130.67 49.38 111.41 53.75 C 86.00 59.22 64.26 78.71 56.02 103.35 C 42.21 91.86 28.26 80.53 14.34 69.18 C 22.98 52.48 35.37 37.74 50.32 26.33 C 72.00 9.64 99.14 0.22 126.51 0.00 Z" />
    </g>
    <g id="#fbbb00ff">
        <path fill="#fbbb00" opacity="1.00"
            d=" M 0.00 126.17 C 0.36 106.41 5.15 86.70 14.34 69.18 C 28.26 80.53 42.21 91.86 56.02 103.35 C 50.39 119.87 50.52 138.35 56.76 154.68 C 42.95 166.01 29.14 177.34 15.29 188.62 C 5.54 170.71 0.42 150.41 0.00 130.05 L 0.00 126.17 Z" />
    </g>
    <g id="#518ef8ff">
        <path fill="#518ef8" opacity="1.00"
            d=" M 130.81 104.07 C 171.80 104.06 212.78 104.07 253.76 104.07 C 255.11 111.50 255.86 119.04 256.00 126.59 L 256.00 129.30 C 255.81 167.11 237.75 204.24 208.17 227.77 C 194.20 216.47 180.35 205.02 166.42 193.67 C 181.35 184.91 193.14 170.97 199.21 154.75 C 176.41 154.71 153.61 154.75 130.81 154.73 C 130.81 137.84 130.81 120.96 130.81 104.07 Z" />
    </g>
    <g id="#28b446ff">
        <path fill="#28b446" opacity="1.00"
            d=" M 56.76 154.68 C 65.74 179.20 88.22 198.15 113.94 202.74 C 131.77 206.15 150.78 202.89 166.42 193.67 C 180.35 205.02 194.20 216.47 208.17 227.77 C 186.54 245.30 159.05 255.26 131.24 256.00 L 123.79 256.00 C 109.92 255.39 96.10 252.80 83.11 247.85 C 54.34 237.14 29.78 215.67 15.29 188.62 C 29.14 177.34 42.95 166.01 56.76 154.68 Z" />
    </g>
</svg>
