<svg width="16" height="17" xmlns="http://www.w3.org/2000/svg" xml:space="preserve" version="1.1">

 <g>
  <title>Layer 1</title>
     <path fill="none" d="m-1,-1l582,0l0,402l-582,0l0,-402z" class="st0" id="path" />
     <path stroke-linejoin="round" stroke-linecap="round" stroke-width="1.5" stroke="#606060"
         fill="none"
         d="m1.5,5.5l5.7,-4.5c0.2,-0.1 0.5,-0.2 0.8,-0.2s0.6,0.1 0.8,0.3l5.7,4.5c0.2,0.1 0.3,0.3 0.4,0.5c0.1,0.1 0.1,0.3 0.1,0.5l0,8c0,0.4 -0.2,0.8 -0.5,1.1c-0.3,0.3 -0.7,0.5 -1.1,0.5l-11,0c-0.3,0 -0.5,-0.1 -0.8,-0.2c-0.2,-0.1 -0.4,-0.3 -0.6,-0.6c-0.1,-0.2 -0.2,-0.5 -0.2,-0.8l0,0l0,-8c0,-0.2 0,-0.4 0.1,-0.6c0.3,-0.2 0.4,-0.3 0.6,-0.5z"
         class="st1" id="path_1" />
     <path stroke-linejoin="round" stroke-linecap="round" stroke-width="1.5" stroke="#606060"
         fill="none" d="m5.8,15.9l0,-5.4l4.7,0l0,5.4" class="st1" id="path_2" />
 </g>
</svg>