<svg width="15" height="17" xmlns="http://www.w3.org/2000/svg" xml:space="preserve" version="1.1">

 <g>
  <title>Layer 1</title>
     <path fill="none" d="m-1,-1l582,0l0,402l-582,0l0,-402z" class="st0" id="path" />
     <path fill="#FF7A00"
         d="m14.9,6.5l0,8.4c0,0.4 -0.2,0.9 -0.5,1.2c-0.3,0.3 -0.7,0.5 -1.2,0.5l-3.2,0l0,-5.9l-5,0l0,5.9l-3.3,0c-0.3,0 -0.6,-0.1 -0.8,-0.2c-0.3,-0.1 -0.5,-0.4 -0.6,-0.6c-0.1,-0.3 -0.2,-0.5 -0.2,-0.8l0,0l0,-8.5c0,-0.2 0,-0.4 0.1,-0.6c0.1,-0.2 0.2,-0.4 0.4,-0.5l6,-4.6c0.2,-0.2 0.6,-0.3 0.9,-0.3s0.6,0.1 0.9,0.3l6,4.6c0.2,0.1 0.3,0.3 0.4,0.5c0.1,0.2 0.1,0.4 0.1,0.6z"
         class="st1" id="path_1" />
 </g>
</svg>