<svg width="100" height="100" xmlns="http://www.w3.org/2000/svg" data-name="Layer 1">

    <g>
        <title>Layer 1</title>
        <rect id="svg_1" fill="#74ccbd" rx="2" height="4" width="22" y="77.6" x="38.96"
            class="cls-1" />
        <path id="svg_2" fill="#74ccbd"
            d="m42,83.61l16,0a0,0 0 0 1 0,0l0,0a4,4 0 0 1 -4,4l-8,0a4,4 0 0 1 -4,-4l0,0a0,0 0 0 1 0,0z"
            class="cls-1" />
        <path id="svg_3" fill="#74ccbd"
            d="m71.43,48.9a21.47,21.47 0 1 0 -38.33,13.27a26,26 0 0 1 4.4,8.35l0.93,2.94a3,3 0 0 0 2.86,2.1l17.34,0a3,3 0 0 0 2.86,-2.1l0.92,-2.94a26.75,26.75 0 0 1 4.46,-8.42a21.32,21.32 0 0 0 4.56,-13.2z"
            class="cls-1" />
        <path id="svg_4" fill="#fff"
            d="m35.9,57.57a1,1 0 0 1 -0.85,-0.47a16.88,16.88 0 0 1 2.4,-20.81a1,1 0 0 1 1.42,1.42a14.85,14.85 0 0 0 -2.12,18.29a1,1 0 0 1 -0.32,1.38a1,1 0 0 1 -0.53,0.19z"
            class="cls-2" />
        <path id="svg_5" fill="#5ec5b4" d="m59,81.6a2,2 0 1 0 0,-4l-9,0l0,4l9,0z" class="cls-3" />
        <path id="svg_6" fill="#5ec5b4" d="m54,87.61a4,4 0 0 0 4,-4l-8,0l0,4l4,0z" class="cls-3" />
        <path id="svg_7" fill="#5ec5b4"
            d="m50,27.43l0,48.13l8.67,0a3,3 0 0 0 2.86,-2.1l0.92,-2.94a26.75,26.75 0 0 1 4.46,-8.42a21.45,21.45 0 0 0 -16.91,-34.67z"
            class="cls-3" />
        <rect id="svg_8" fill="#ee8d4d" rx="2" height="10" width="4" y="12.39" x="47.4"
            class="cls-4" />
        <rect id="svg_9" transform="rotate(30 19.87 -30.58)" fill="#ee8d4d" rx="2" height="10"
            width="4" y="-13.8" x="84.88" class="cls-4" />
        <rect id="svg_10" transform="rotate(60 69.81 -52.13)" fill="#ee8d4d" rx="2" height="10"
            width="4" y="-22.74" x="147.87" class="cls-4" />
        <rect id="svg_11" transform="rotate(90 136.89 -33.21)" fill="#ee8d4d" rx="2" height="10"
            width="4" y="13.63" x="219.94" class="cls-4" />
        <rect id="svg_12" transform="rotate(-90 -38.09 67.99)" fill="#ee8d4d" rx="2" height="10"
            width="4" y="116.03" x="-25.14" class="cls-4" />
        <rect id="svg_13" transform="rotate(-60 -21.01 34.47)" fill="#ee8d4d" rx="2" height="10"
            width="4" y="64.9" x="-3.67" class="cls-4" />
        <rect id="svg_14" transform="rotate(-30 -6.91 18.98)" fill="#ee8d4d" rx="2" height="10"
            width="4" y="36.36" x="23.04" class="cls-4" />
    </g>
</svg>