<svg xmlns="http://www.w3.org/2000/svg" viewBox="0 0 512 512" id="vector">
    <path id="path"
        d="M 145.174 143.024 C 134.303 174.042 128.135 206.744 126.745 240.953 L 241.212 240.953 L 241.212 143.024 L 145.174 143.024 Z"
        fill="#32bea6" />
    <path id="path_1"
        d="M 194.919 51.091 C 179.993 70.762 167.5 91.416 157.431 112.971 L 241.212 112.971 L 241.212 1.183 C 228.343 12.512 211.569 29.147 194.919 51.091 Z"
        fill="#32bea6" />
    <path id="path_2"
        d="M 25.642 143.024 C 10.739 173.351 1.977 206.509 0 240.953 L 96.687 240.953 C 97.983 207.169 103.663 174.36 113.631 143.024 L 25.642 143.024 Z"
        fill="#32bea6" />
    <path id="path_3"
        d="M 126.771 271.005 C 128.322 307.831 135.462 340.512 145.448 368.934 L 241.212 368.934 L 241.212 271.005 L 126.771 271.005 Z"
        fill="#32bea6" />
    <path id="path_4"
        d="M 157.669 398.987 C 169.437 424.309 183.021 445.302 195.642 461.819 C 212.131 483.395 228.569 499.691 241.212 510.818 L 241.212 398.988 L 157.669 398.988 Z"
        fill="#32bea6" />
    <path id="path_5"
        d="M 366.552 143.024 L 271.266 143.024 L 271.266 240.953 L 385.229 240.953 C 383.678 204.126 376.537 171.445 366.552 143.024 Z"
        fill="#32bea6" />
    <path id="path_6"
        d="M 96.687 271.005 L 0 271.005 C 1.977 305.449 10.739 338.607 25.642 368.934 L 113.631 368.934 C 103.663 337.599 97.983 304.789 96.687 271.005 Z"
        fill="#32bea6" />
    <path id="path_7"
        d="M 316.356 50.14 C 300.076 28.836 283.843 12.677 271.264 1.561 L 271.264 112.972 L 354.329 112.972 C 342.562 87.649 328.977 66.656 316.356 50.14 Z"
        fill="#32bea6" />
    <path id="path_8"
        d="M 74.664 74.642 C 62.79 86.516 52.234 99.353 43.048 112.97 L 124.679 112.97 L 124.679 112.971 C 136.72 84.298 152.523 57.073 171.765 31.892 C 178.599 22.949 185.428 14.84 192.037 7.539 C 148.011 18.794 107.637 41.67 74.664 74.642 Z"
        fill="#32bea6" />
    <path id="path_9"
        d="M 171.765 480.065 C 152.522 454.884 136.72 427.659 124.679 398.986 L 43.048 398.986 C 52.234 412.603 62.79 425.441 74.664 437.314 C 107.638 470.287 148.012 493.163 192.037 504.416 C 185.428 497.117 178.599 489.009 171.765 480.065 Z"
        fill="#32bea6" />
    <path id="path_10"
        d="M 387.321 398.988 L 387.321 398.988 C 375.28 427.66 359.477 454.885 340.235 480.066 C 333.401 489.01 326.572 497.118 319.963 504.418 C 363.989 493.164 404.363 470.288 437.336 437.316 C 449.21 425.442 459.766 412.605 468.952 398.988 L 387.321 398.988 Z"
        fill="#32bea6" />
    <path id="path_11"
        d="M 271.265 398.987 L 271.265 510.353 C 284.072 499.033 300.636 482.538 317.08 460.867 C 332.006 441.195 344.499 420.542 354.568 398.987 L 271.265 398.987 Z"
        fill="#32bea6" />
    <path id="path_12"
        d="M 437.336 74.643 C 404.362 41.67 363.988 18.794 319.963 7.541 C 326.573 14.841 333.401 22.949 340.235 31.893 C 359.478 57.074 375.28 84.299 387.321 112.972 L 468.952 112.972 C 459.766 99.354 449.209 86.516 437.336 74.643 Z"
        fill="#32bea6" />
    <path id="path_13"
        d="M 486.358 143.024 L 398.37 143.024 C 408.337 174.36 414.018 207.17 415.314 240.953 L 512 240.953 C 510.023 206.509 501.261 173.351 486.358 143.024 Z"
        fill="#32bea6" />
    <path id="path_14"
        d="M 271.265 271.005 L 271.265 368.934 L 366.826 368.934 C 377.698 337.916 383.865 305.214 385.255 271.005 L 271.265 271.005 Z"
        fill="#32bea6" />
    <path id="path_15"
        d="M 415.313 271.005 C 414.017 304.789 408.337 337.598 398.369 368.934 L 486.358 368.934 C 501.261 338.607 510.022 305.449 512 271.005 L 415.313 271.005 Z"
        fill="#32bea6" />
</svg>
