<svg xmlns="http://www.w3.org/2000/svg" viewBox="0 0 512 512" id="vector">
    <path id="path"
        d="M 254.49 0 L 258.26 0 C 289.14 0.75 319.88 10.72 344.65 29.31 C 376.73 52.71 398.81 89.41 404.12 128.8 C 406.11 142.1 405.66 155.6 405.72 169 C 405.72 190.34 405.73 211.68 405.71 233.02 C 405.65 234.9 405.89 237.24 407.93 238.03 C 414.81 241 422.13 242.86 429.01 245.86 C 435.25 248.63 439.82 254.74 440.78 261.49 C 441.38 265.63 441.12 269.83 441.16 274 C 441.15 332.66 441.16 391.32 441.16 449.98 C 441.12 453.99 441.35 458.03 440.92 462.03 C 440.29 469.26 435.46 475.9 428.84 478.83 C 375.43 500.27 317.98 511.26 260.47 512 L 251.52 512 C 194 511.25 136.54 500.26 83.12 478.81 C 75.51 475.46 70.61 467.29 70.86 459.02 C 70.83 394.67 70.84 330.32 70.85 265.97 C 70.59 257.93 74.9 249.71 82.29 246.2 C 89.34 242.95 96.95 241.13 104.06 238.04 C 106.12 237.28 106.34 234.92 106.29 233.04 C 106.3 205.06 106.21 177.09 106.34 149.11 C 106.55 128.05 110.97 106.98 119.81 87.83 C 131.99 60.99 152.32 37.9 177.44 22.48 C 200.4 8.01 227.43 0.57 254.49 0 M 198.34 70.31 C 179.8 83.74 166.17 103.84 160.72 126.1 C 158.44 134.88 157.74 143.99 157.75 153.04 C 157.78 176.52 157.72 200 157.78 223.48 C 186.18 217.72 215.03 213.92 244.03 213.38 C 281.01 212.18 318.02 216.09 354.23 223.48 C 354.21 198.34 354.35 173.19 354.16 148.05 C 353.84 121.51 342.05 95.43 322.47 77.55 C 306.08 62.33 284.32 52.99 261.98 51.76 C 239.46 50.27 216.53 56.97 198.34 70.31 M 250.1 283.68 C 240.07 285.09 230.63 290.45 224.33 298.38 C 217.01 307.38 213.9 319.64 215.94 331.03 C 217.99 342.53 225.71 352.45 235.59 358.42 C 235.62 380.6 235.57 402.78 235.61 424.96 C 235.55 430.37 237.42 435.84 241.19 439.78 C 246.74 445.85 256.13 447.84 263.69 444.66 C 271.16 441.71 276.36 434 276.33 425.97 C 276.45 403.45 276.32 380.93 276.39 358.4 C 288.66 351.18 297.34 337.43 296.66 322.97 C 296.39 311.7 291.31 300.61 282.74 293.24 C 273.95 285.5 261.68 281.89 250.1 283.68 Z"
        fill="#000000" />
</svg>
