<?xml version="1.0" encoding="UTF-8" ?>
<svg width="512" height="512" viewBox="0 0 512 512" version="1.1"
    xmlns="http://www.w3.org/2000/svg">
    <g id="#2196f3ff">
        <path fill="#2196f3" opacity="1.00"
            d=" M 248.82 0.00 L 262.23 0.00 C 304.38 1.07 346.37 11.59 383.58 31.52 C 428.74 55.53 466.89 93.34 489.30 139.50 C 503.41 167.87 510.88 199.34 512.00 230.96 L 512.00 242.08 C 510.99 281.39 499.47 320.35 478.76 353.78 C 459.67 385.04 433.15 411.61 402.41 431.45 C 338.31 473.23 256.12 484.61 182.62 464.17 C 162.47 475.15 142.39 486.27 122.25 497.28 C 113.28 502.01 104.61 507.36 95.42 511.67 C 95.51 511.76 95.67 511.92 95.76 512.00 L 95.36 512.00 C 95.42 481.88 95.36 451.75 95.39 421.63 C 67.00 400.33 42.93 373.10 26.27 341.70 C 10.06 311.49 1.12 277.52 0.00 243.28 L 0.00 232.51 C 0.64 204.98 6.32 177.57 16.91 152.15 C 36.63 104.49 72.86 64.32 117.05 38.02 C 156.65 14.08 202.65 1.41 248.82 0.00 M 89.04 319.17 C 131.47 296.05 173.84 272.85 216.23 249.67 C 237.98 272.81 259.66 296.03 281.42 319.16 C 328.07 269.67 374.69 220.16 421.35 170.68 C 379.54 193.83 337.70 216.91 295.95 240.15 C 273.43 217.18 251.36 193.77 229.00 170.65 C 182.34 220.15 135.70 269.67 89.04 319.17 Z" />
    </g>
</svg>
