<svg xmlns="http://www.w3.org/2000/svg" viewBox="0 0 512 512" id="vector">
    <path id="path"
        d="M 305.36 9.54 C 309.07 7.51 314.05 9.84 315.04 13.91 C 320.41 30.27 325.65 46.68 331 63.04 C 331.8 66.15 334.76 68.45 338 68.24 C 354.67 68.33 371.35 68.19 388.02 68.3 C 392.04 68.09 395.54 72.04 394.86 76.01 C 394.66 78.25 393.02 79.93 391.35 81.26 C 377.94 91.88 364.48 102.46 351.12 113.14 C 348.35 115.29 348.38 119.17 349.55 122.17 C 354.39 138.43 359.22 154.71 363.97 171.01 C 365.33 174.69 362.84 179.1 358.99 179.82 C 356.52 180.52 354.13 179.25 352.23 177.79 C 339.2 168.13 326.11 158.56 313.04 148.97 C 311 147.35 308.09 146.58 305.68 147.84 C 291.19 157.85 277.31 168.79 262.91 178.93 C 258.35 182.21 251.35 177.52 252.7 172.06 C 257.46 154.89 262.78 137.85 267.72 120.72 C 268.72 117.87 267.76 114.55 265.33 112.75 C 251.62 101.74 237.68 91.01 224.03 79.95 C 219.73 76.37 222.5 68.46 228.09 68.35 C 245.08 68.11 262.08 68.39 279.07 68.23 C 282.28 68.39 285.11 66.01 285.9 62.96 C 290.83 47.77 295.78 32.59 300.66 17.39 C 301.64 14.52 302.31 10.95 305.36 9.54 Z"
        fill="#000000" />
    <path id="path_1"
        d="M 201.25 14.25 C 204.83 13.11 209.23 13.06 211.91 16.1 C 215.47 19.61 214.8 25.87 210.89 28.87 C 181.22 55.38 159.34 90.48 148.66 128.81 C 137.64 167.72 138.23 209.81 150.32 248.39 C 160 279.66 177.13 308.58 199.89 332.11 C 225.07 358.26 257.13 377.75 291.98 387.94 C 346.9 404.4 408.47 397.04 457.82 367.8 C 460.79 365.97 464.25 363.87 467.86 365.19 C 472.95 366.6 475.5 373.14 472.66 377.62 C 455.79 407.71 432.51 434.18 404.84 454.78 C 375.48 476.75 341.16 492.04 305.2 499.2 C 265.41 507.2 223.65 505.19 184.81 493.4 C 135.49 478.61 91.12 447.96 59.85 407.06 C 37.24 377.68 21.38 343.16 13.81 306.87 C 4.58 263.1 7.53 216.84 22.29 174.61 C 39.28 125.34 72.34 81.82 115.24 52.23 C 141.14 34.23 170.52 21.31 201.25 14.25 Z"
        fill="#000000" />
    <path id="path_2"
        d="M 434.34 183.42 C 437.29 182.12 440.89 184.05 441.56 187.17 C 445.72 200.18 449.73 213.24 453.9 226.25 C 454.52 228.52 456.54 230.41 458.99 230.33 C 472 230.56 485.03 230.26 498.04 230.45 C 501.02 230.3 503.74 232.96 503.55 235.96 C 503.6 238.27 501.77 239.86 500.16 241.21 C 490.24 249.25 480.34 257.33 470.45 265.41 C 468.35 266.89 466.99 269.51 467.97 272.07 C 471.69 285.58 475.75 299 479.48 312.5 C 481.13 316.96 475.35 321.39 471.51 318.52 C 460.74 310.63 450.29 302.3 439.51 294.44 C 437.54 292.88 434.71 293.18 432.86 294.77 C 422.76 302.4 412.67 310.03 402.59 317.68 C 401.01 318.88 399.01 319.97 396.98 319.27 C 394 318.54 392.33 315.07 393.43 312.25 C 397.21 298.78 401.22 285.38 404.93 271.89 C 405.77 269.44 404.58 266.89 402.57 265.43 C 392.12 256.86 381.53 248.46 371.12 239.85 C 367.46 237.16 369.52 230.53 374.1 230.5 C 387.05 230.22 400.03 230.53 413 230.37 C 415.78 230.63 418.29 228.7 418.93 226.03 C 422.97 213.36 426.92 200.67 430.9 187.99 C 431.43 186.12 432.38 184.13 434.34 183.42 Z"
        fill="#000000" />
</svg>
