<svg
    xmlns="http://www.w3.org/2000/svg"
    viewBox="0 0 128 128"
    id="vector">
    <path
        id="path"
        d="M 11.33 0 L 14.64 0 C 18.24 1.77 21.92 3.46 25.2 5.82 C 48.22 22.21 71.91 37.63 94.8 54.21 C 100.94 59.55 100.48 70.1 93.81 74.81 C 79.11 85.58 63.69 95.3 48.8 105.81 C 37.53 113.35 27.03 122.28 14.64 128 L 11.33 128 C 5.35 126.31 2.58 119.82 3.06 114 C 2.95 80.67 2.95 47.33 3.06 14 C 2.58 8.18 5.35 1.69 11.33 0 Z"
        fill="#000000"/>
    <path
        id="path_1"
        d="M 113.25 0 L 119.76 0 C 123.2 2.03 126.24 5.52 124.96 9.99 C 125.05 47 124.99 84.01 124.99 121.01 C 124.96 124.25 122.23 126.4 119.76 128 L 113.25 128 C 110.77 126.4 108.04 124.25 108.01 121.01 C 108.01 84.01 107.95 47 108.04 9.99 C 106.75 5.52 109.8 2.02 113.25 0 Z"
        fill="#000000"/>
</svg>
