<svg
    xmlns="http://www.w3.org/2000/svg"
    viewBox="0 0 464 464"
    id="vector">
    <path
        id="path"
        d="M -1 -1 L 801 -1 L 801 601 L -1 601 L -1 -1 Z"
        fill="none"/>
    <path
        id="path_1"
        d="M 256 362.898 L 256 331 L 0 331 L 0 363.027 C 0 392.031 23.438 416 52.445 416 L 281.801 416 C 279.602 414 277.48 412.246 275.477 410.238 C 262.949 397.672 255.941 380.641 256 362.898 Z M 256 362.898"
        fill="#32bea6"/>
    <path
        id="path_2"
        d="M 181.258 169.523 L 218.406 195.027 L 255.699 169.523 C 265.898 162.566 274 146.867 274 134.523 L 274 81.82 L 218.5 54.371 L 163 81.75 L 163 134.523 C 163 146.863 171.055 162.566 181.258 169.523 Z M 189.621 119.711 C 192.367 116.992 196.801 117.012 199.52 119.762 L 210.676 131.027 L 237.527 104.18 C 240.262 101.445 244.695 101.445 247.43 104.184 C 250.164 106.918 250.16 111.352 247.426 114.086 L 215.602 145.926 C 214.289 147.242 212.512 147.992 210.652 148 L 210.637 148 C 208.77 147.988 206.984 147.234 205.68 145.898 L 189.57 129.625 C 186.852 126.871 186.875 122.438 189.621 119.711 Z M 189.621 119.711"
        fill="#32bea6"/>
    <path
        id="path_3"
        d="M 426.895 0 L 426.672 0 C 406.105 0 389 17.184 389 37.762 L 389 102 L 464 102 L 464 37.637 C 464.094 17.02 447.512 0.199 426.895 0 Z M 426.895 0"
        fill="#32bea6"/>
    <path
        id="path_4"
        d="M 107.469 0 C 88.02 0 72.191 15.617 72.191 34.773 L 70.125 317 L 263 317 C 266.926 317.156 270.023 320.395 270 324.328 L 270 362.898 C 269.93 392.059 293.438 415.789 322.594 416 L 322.77 416 C 351.82 415.789 375.199 392.07 375 363.02 L 375 37.773 C 375 23.059 381.621 10 391.57 0 L 107.469 0 Z M 149 77.383 C 148.91 74.75 150.352 72.301 152.699 71.098 L 215.387 40.289 C 217.313 39.336 219.57 39.336 221.496 40.289 L 284.297 71.184 C 286.645 72.387 288.086 74.832 288 77.469 L 288 134.523 C 288 151.504 277.637 171.523 263.602 181.09 L 222.477 209.289 C 221.324 210.082 219.957 210.508 218.559 210.508 C 217.164 210.508 215.805 210.086 214.66 209.289 L 173.414 181.09 C 159.387 171.52 149 151.5 149 134.523 L 149 77.383 Z M 318 285 L 126 285 C 122.133 285 119 281.867 119 278 C 119 274.133 122.133 271 126 271 L 318 271 C 321.867 271 325 274.133 325 278 C 325 281.867 321.867 285 318 285 Z M 318 248 L 126 248 C 122.133 248 119 244.867 119 241 C 119 237.133 122.133 234 126 234 L 318 234 C 321.867 234 325 237.133 325 241 C 325 244.867 321.867 248 318 248 Z M 318 248"
        fill="#32bea6"/>
</svg>
