<svg xmlns="http://www.w3.org/2000/svg" viewBox="0 0 37 33" id="vector">
    <path id="path"
        d="M 18.498 32.081 C 18.351 32.082 18.204 32.051 18.07 31.99 C 17.935 31.928 17.815 31.839 17.719 31.727 L 0.428 11.795 C 0.281 11.625 0.194 11.411 0.18 11.187 C 0.166 10.963 0.226 10.74 0.351 10.553 L 7.077 0.533 C 7.172 0.394 7.298 0.28 7.447 0.201 C 7.595 0.122 7.761 0.081 7.929 0.081 L 29.052 0.081 C 29.22 0.081 29.386 0.122 29.534 0.201 C 29.683 0.28 29.81 0.394 29.904 0.533 L 36.63 10.553 C 36.755 10.74 36.815 10.963 36.801 11.187 C 36.787 11.411 36.7 11.625 36.553 11.795 L 19.263 31.727 C 19.168 31.837 19.05 31.925 18.919 31.986 C 18.787 32.047 18.644 32.08 18.498 32.081 Z M 2.496 11.046 L 18.498 29.49 L 34.496 11.046 L 28.539 2.134 L 8.504 2.134 L 2.496 11.046 Z"
        fill="#4db5ac" />
    <path id="path_1"
        d="M 23.408 12.528 L 13.593 12.528 C 13.321 12.528 13.06 12.42 12.868 12.228 C 12.675 12.035 12.567 11.774 12.567 11.502 C 12.567 11.23 12.675 10.969 12.868 10.777 C 13.06 10.584 13.321 10.476 13.593 10.476 L 23.408 10.476 C 23.68 10.476 23.941 10.584 24.134 10.777 C 24.326 10.969 24.434 11.23 24.434 11.502 C 24.434 11.774 24.326 12.035 24.134 12.228 C 23.941 12.42 23.68 12.528 23.408 12.528 Z"
        fill="#ee8d4d" />
</svg>
