<svg width="18" height="15" xmlns="http://www.w3.org/2000/svg" xml:space="preserve" version="1.1">

 <g>
  <title>Layer 1</title>
     <path fill="none" d="m-1,-1l582,0l0,402l-582,0l0,-402z" class="st0" id="path" />
     <path fill="#FF7A00"
         d="m9,14.9c-0.1,0 -0.2,0 -0.2,-0.1c-0.1,0 -0.1,-0.1 -0.2,-0.2l-4.2,-4.6l-4.2,-4.5c-0.1,0 -0.1,-0.1 -0.2,-0.2c0,-0.1 0,-0.2 0,-0.2c0,-0.1 0,-0.2 0.1,-0.2l0,0l0.9,-1.5l0.1,-0.1l1.8,-2.8c0,0 0.1,-0.1 0.2,-0.2c0.1,0 0.2,-0.1 0.3,0l11,0c0.1,0 0.3,0 0.4,0.1c0.1,0.1 0.2,0.2 0.3,0.3c0.6,1 1.3,2.1 1.9,3l0.1,0.1l0.6,1c0.1,0.1 0.2,0.2 0.2,0.2c0,0.1 0,0.2 0,0.3c0,0.1 -0.1,0.2 -0.1,0.2l-0.1,0l-7.9,8.7l-0.4,0.5c0,0.1 -0.1,0.1 -0.2,0.2c0,0 -0.1,0 -0.2,0zm-2.5,-9.9c-0.2,0 -0.3,0 -0.3,0.1c-0.1,0.1 -0.2,0.2 -0.2,0.3l0,0c0,0.1 0,0.2 0.1,0.2c0,0.1 0.1,0.1 0.2,0.2c0.1,0 0.1,0.1 0.2,0.1l5.1,0c0.1,0 0.2,0 0.2,-0.1c0.1,0 0.1,-0.1 0.2,-0.2c0,0 0,-0.1 0,-0.2c0,-0.1 0,-0.2 -0.1,-0.3c-0.1,-0.1 -0.3,-0.1 -0.4,-0.1l-5,0z"
         class="st1" id="path_1" />
 </g>
</svg>