<?xml version="1.0" encoding="UTF-8" ?>
<svg width="256" height="256" viewBox="0 0 256 256" version="1.1"
    xmlns="http://www.w3.org/2000/svg">
    <g id="#000000ff">
        <path fill="#000000" opacity="1.00"
            d=" M 82.75 26.81 C 93.09 16.27 107.25 9.62 121.95 8.29 C 135.20 7.04 148.87 9.95 160.34 16.76 C 176.32 26.09 187.91 42.65 191.02 60.92 C 192.26 67.55 191.98 74.31 192.00 81.02 C 192.00 88.64 192.00 96.27 192.00 103.89 C 198.49 104.15 204.97 106.66 209.42 111.50 C 213.86 116.13 216.19 122.57 216.01 128.96 C 215.99 156.64 216.01 184.33 215.99 212.01 C 216.14 219.32 213.00 226.67 207.34 231.35 C 202.68 235.38 196.52 236.79 190.80 238.63 C 146.67 252.05 98.24 250.87 54.88 235.15 C 46.11 231.57 40.02 222.49 40.02 213.02 C 39.96 185.69 40.04 158.37 39.98 131.04 C 39.84 126.16 40.36 121.12 42.79 116.79 C 46.80 108.98 55.29 104.07 64.00 103.89 C 64.02 92.93 63.96 81.97 64.02 71.02 C 64.18 54.59 71.01 38.32 82.75 26.81 M 96.15 36.14 C 86.25 44.85 80.24 57.78 80.05 70.97 C 79.93 81.98 80.03 92.99 80.00 104.00 C 112.00 104.00 144.00 104.00 176.00 104.00 C 175.91 92.31 176.19 80.62 175.85 68.94 C 174.91 48.77 159.71 30.44 140.15 25.57 C 124.93 21.52 107.85 25.57 96.15 36.14 M 111.97 142.04 C 104.90 148.24 102.13 158.80 105.30 167.66 C 107.57 174.56 113.21 180.03 119.96 182.57 C 120.10 191.09 119.89 199.61 120.05 208.13 C 119.96 212.38 123.82 216.10 128.04 215.98 C 132.24 216.05 136.04 212.33 135.95 208.10 C 136.11 199.60 135.92 191.09 136.02 182.59 C 144.62 179.43 151.19 171.28 151.88 162.08 C 153.02 151.66 146.41 141.09 136.58 137.50 C 128.38 134.27 118.47 136.08 111.97 142.04 Z" />
    </g>
</svg>
