<svg width="18" height="15" xmlns="http://www.w3.org/2000/svg" xml:space="preserve" version="1.1">

 <g>
  <title>Layer 1</title>
     <path fill="none" d="m-1,-1l582,0l0,402l-582,0l0,-402z" class="st0" id="path" />
     <path stroke-linejoin="round" stroke-linecap="round" stroke-width="1.5" stroke="#606060"
         fill="none"
         d="m14,0.7c0.1,0 0.2,0 0.4,0.1c0.1,0.1 0.2,0.1 0.3,0.3c0.8,1.3 1.6,2.6 2.4,3.8c0.1,0.1 0.1,0.2 0.1,0.3c0,0.1 0,0.2 -0.1,0.3l-0.1,0l-7.6,8.5c-0.3,0.3 -0.5,0.3 -0.8,0l-7.6,-8.4c-0.1,0 -0.1,-0.1 -0.1,-0.2c0,-0.1 0,-0.1 0,-0.2c0,-0.1 0,-0.1 0.1,-0.2l0,0c0.8,-1.3 1.7,-2.6 2.5,-4c0.1,-0.1 0.1,-0.2 0.2,-0.2c0.1,0 0.2,-0.1 0.3,0l10,-0.1z"
         class="st1" id="path_1" />
     <path stroke-linejoin="round" stroke-linecap="round" stroke-width="1.5" stroke="#606060"
         fill="none" d="m6.9,5.7l4.9,0" class="st1" id="path_2" />
 </g>
</svg>