<svg width="100" height="100" xmlns="http://www.w3.org/2000/svg" data-name="Layer 1">

    <g>
        <title>Layer 1</title>
        <path id="svg_1" fill="#74ccbd"
            d="m51.27,19.79l0,72.6l-24.91,0a4.88,4.88 0 0 1 -4.88,-4.88l0,-62.84a4.89,4.89 0 0 1 4.88,-4.88l24.91,0z"
            class="cls-1" />
        <path id="svg_2" fill="#5ec5b4"
            d="m77.11,19.66a3.91,3.91 0 0 1 3.89,3.91l0,63.94a4.88,4.88 0 0 1 -4.88,4.88l-24.85,0l0,-72.6l25.84,-0.13z"
            class="cls-2" />
        <path id="svg_3" fill="#fff"
            d="m36.34,51.65l29.84,0a2.44,2.44 0 0 0 0,-4.88l-29.84,0a2.44,2.44 0 0 0 0,4.88z"
            class="cls-3" />
        <path id="svg_4" fill="#fff"
            d="m36.34,38.65l29.84,0a2.44,2.44 0 0 0 0,-4.88l-29.84,0a2.44,2.44 0 0 0 0,4.88z"
            class="cls-3" />
        <path id="svg_5" fill="#fff"
            d="m36.34,65.41l20.26,0a2.45,2.45 0 0 0 0,-4.89l-20.26,0a2.45,2.45 0 0 0 0,4.89z"
            class="cls-3" />
        <path id="svg_6" fill="#5ec5b4"
            d="m61,14.23l0,0a1.68,1.68 0 0 0 -1.68,-1.68l-16.13,0a1.68,1.68 0 0 0 -1.68,1.68l0,0a1.68,1.68 0 0 1 -1.68,1.68l-1,0a1.68,1.68 0 0 0 -1.68,1.68l0,5.31a1.68,1.68 0 0 0 1.68,1.68l24.84,0a1.69,1.69 0 0 0 1.68,-1.68l0,-5.31a1.68,1.68 0 0 0 -1.68,-1.68l-1,0a1.69,1.69 0 0 1 -1.67,-1.68z"
            class="cls-2" />
        <path id="svg_7" fill="#74ccbd"
            d="m51.33,12.55l-8.14,0a1.68,1.68 0 0 0 -1.68,1.68a1.68,1.68 0 0 1 -1.68,1.68l-1,0a1.68,1.68 0 0 0 -1.68,1.68l0,5.31a1.68,1.68 0 0 0 1.68,1.68l12.5,0l0,-12.03z"
            class="cls-1" />
        <rect id="svg_8" transform="rotate(-50.17 -20.51 80.99)" fill="#ee8d4d" rx="1.63"
            height="7.04" width="43.33" y="139.86" x="34.06" class="cls-4" />
        <path id="svg_9" fill="#fd6824"
            d="m65.07,81.28l-2.71,-2.28l27.75,-33.24l1.51,1.24a1.57,1.57 0 0 1 0.2,2.2l-26.75,32.08z"
            class="cls-5" />
        <polygon id="svg_10" fill="#f4f4f4"
            points="65.07 81.28 62.4 82.45 59 79.61 59.66 76.78 65.07 81.28" class="cls-6" />
        <polygon id="svg_11" fill="#49494a" points="62.4 82.45 57.86 84.44 59 79.61 62.4 82.45"
            class="cls-7" />
        <polygon id="svg_12" fill="#fff"
            points="62.36 79.03 60.7 81.03 59 79.61 59.66 76.78 62.36 79.03" class="cls-3" />
        <polygon id="svg_13" fill="#565656" points="60.7 81.03 57.86 84.44 59 79.61 60.7 81.03"
            class="cls-8" />
    </g>
</svg>