<svg xmlns="http://www.w3.org/2000/svg" viewBox="0 0 271 271" id="vector">
    <path id="path"
        d="M 135.977 271.953 C 211.074 271.953 271.954 211.074 271.954 135.976 C 271.954 60.878 211.074 0 135.977 0 C 60.88 0 0 60.879 0 135.977 C 0 211.075 60.879 271.953 135.977 271.953 Z M 135.977 21.756 C 198.956 21.756 250.197 72.997 250.197 135.976 C 250.197 198.955 198.956 250.196 135.977 250.196 C 72.998 250.196 21.757 198.955 21.757 135.976 C 21.757 72.997 72.992 21.756 135.977 21.756 Z"
        fill="#010002" />
    <path id="path_1"
        d="M 110.707 200.114 C 118.218 200.114 124.305 194.028 124.305 186.516 L 124.305 83.174 C 124.305 75.663 118.219 69.576 110.707 69.576 C 103.196 69.576 97.109 75.662 97.109 83.174 L 97.109 186.516 C 97.109 194.028 103.195 200.114 110.707 200.114 Z"
        fill="#010002" />
    <path id="path_2"
        d="M 165.097 200.114 C 172.608 200.114 178.695 194.028 178.695 186.516 L 178.695 83.174 C 178.695 75.663 172.609 69.576 165.097 69.576 C 157.585 69.576 151.5 75.663 151.5 83.174 L 151.5 186.516 C 151.5 194.028 157.586 200.114 165.097 200.114 Z"
        fill="#010002" />
</svg>
