<svg xmlns="http://www.w3.org/2000/svg" viewBox="0 0 512 512" id="vector">
    <path id="path"
        d="M 238.345 189.773 L 485.517 189.773 C 500.143 189.773 512 201.63 512 216.256 L 512 375.153 C 512 389.779 500.143 401.636 485.517 401.636 L 344.276 401.636 L 344.276 430.752 C 344.276 436.296 337.574 439.072 333.654 435.151 L 300.138 401.636 L 238.345 401.636 C 223.719 401.636 211.862 389.779 211.862 375.153 L 211.862 216.256 C 211.862 201.63 223.719 189.773 238.345 189.773 Z"
        fill="#48bcaa" />
    <path id="path_1"
        d="M 211.862 216.256 L 211.862 375.153 C 211.862 377.053 212.08 378.899 212.461 380.687 C 274.166 355.917 317.793 295.644 317.793 225.084 C 317.793 212.962 316.44 201.166 313.998 189.774 L 238.344 189.774 C 223.719 189.773 211.862 201.63 211.862 216.256 Z"
        fill="#3fa192" />
    <path id="path_2"
        d="M 300.138 225.083 C 300.138 142.202 232.95 75.014 150.069 75.014 C 67.188 75.014 0 142.202 0 225.083 C 0 297.681 51.555 358.229 120.05 372.137 L 165.249 417.336 C 169.42 421.507 176.552 418.553 176.552 412.654 L 176.552 372.676 C 246.78 360.151 300.138 298.912 300.138 225.083 Z"
        fill="#f0626e" />
    <path id="path_3"
        d="M 150.069 110.366 C 213.449 110.366 264.828 161.745 264.828 225.125 C 264.828 288.505 213.449 339.884 150.069 339.884 C 86.689 339.884 35.31 288.505 35.31 225.125 C 35.31 161.745 86.689 110.366 150.069 110.366 Z"
        fill="#d15661" />
    <path id="path_4"
        d="M 150.074 304.582 C 150.071 304.582 150.066 304.583 150.063 304.582 C 145.188 304.582 141.23 300.625 141.23 295.749 C 141.23 295.748 141.23 295.746 141.23 295.743 C 141.23 295.74 141.23 295.74 141.23 295.737 C 141.23 290.862 145.187 286.904 150.063 286.904 C 150.065 286.904 150.07 286.903 150.074 286.904 C 154.949 286.904 158.907 290.861 158.907 295.737 C 158.907 295.738 158.907 295.739 158.907 295.74 C 158.907 295.742 158.907 295.744 158.907 295.747 C 158.908 300.625 154.95 304.582 150.074 304.582 Z"
        fill="#ffffff" />
    <path id="path_5"
        d="M 361.931 348.67 C 359.672 348.67 357.412 347.808 355.689 346.085 L 311.551 301.947 C 308.103 298.5 308.103 292.911 311.551 289.464 C 314.998 286.017 320.587 286.017 324.034 289.464 L 361.931 327.359 L 443.965 245.325 C 447.412 241.878 453.001 241.878 456.448 245.325 C 459.896 248.772 459.896 254.361 456.448 257.808 L 368.172 346.084 C 366.45 347.808 364.19 348.67 361.931 348.67 Z"
        fill="#ffffff" />
    <path id="path_6"
        d="M 150.069 269.261 C 145.194 269.261 141.241 265.308 141.241 260.433 L 141.241 257.796 C 141.241 246.053 148.872 235.875 160.23 232.469 C 175.036 228.029 185.378 214.12 185.379 198.643 C 185.38 189.46 181.638 180.66 174.843 173.865 C 168.049 167.071 159.251 163.329 150.068 163.329 C 150.067 163.329 150.067 163.329 150.065 163.329 C 130.596 163.33 114.757 179.17 114.757 198.639 C 114.757 203.514 110.804 207.467 105.929 207.467 C 101.054 207.467 97.101 203.514 97.101 198.639 C 97.101 169.436 120.859 145.676 150.063 145.673 C 150.063 145.673 150.066 145.673 150.067 145.673 C 163.965 145.673 177.195 151.251 187.325 161.379 C 197.455 171.509 203.033 184.742 203.031 198.641 C 203.029 221.852 187.513 242.715 165.299 249.376 C 161.468 250.525 158.893 253.907 158.893 257.792 L 158.893 260.429 C 158.897 265.31 154.944 269.261 150.069 269.261 Z"
        fill="#ffffff" />
</svg>
