<svg xmlns="http://www.w3.org/2000/svg" viewBox="0 0 256 256" id="vector">
    <path id="path"
        d="M 102.49 8.7 C 116.32 6.65 130.85 9.16 143.05 16.03 C 157.55 24.04 168.66 37.93 173.36 53.81 C 176.85 65.58 176.85 78.34 173.38 90.11 C 168.93 105.33 158.53 118.68 144.95 126.84 C 133.07 134.11 118.72 137.14 104.9 135.59 C 89.42 133.94 74.72 126.25 64.36 114.66 C 53.83 103.14 47.95 87.58 48.01 71.99 C 47.93 55.7 54.39 39.45 65.79 27.79 C 75.44 17.56 88.59 10.74 102.49 8.7 Z"
        fill="#000000" />
    <path id="path_1"
        d="M 9.59 206.12 C 14.7 175.86 34.1 148.51 60.87 133.53 C 73.81 144.27 90.16 150.78 106.95 151.79 C 127.16 153.15 147.75 146.48 163.28 133.46 C 167.34 135.74 171.22 138.32 174.95 141.11 C 161.01 147.05 149.29 158.03 142.63 171.65 C 135.03 186.86 133.92 205.15 139.64 221.17 C 143.23 231.48 149.6 240.74 157.74 248 C 110.45 247.97 63.15 248.06 15.87 247.96 C 11.7 248.02 7.97 244.31 8.04 240.14 C 8.02 228.79 7.52 217.33 9.59 206.12 Z"
        fill="#000000" />
    <path id="path_2"
        d="M 195.19 152.25 C 206.73 151.1 218.65 154.25 228.02 161.09 C 239.54 169.29 247.03 182.82 247.86 196.94 C 248.91 211.7 242.62 226.74 231.38 236.36 C 221.76 244.8 208.63 249.02 195.89 247.91 C 182.29 246.84 169.36 239.57 161.3 228.57 C 151.7 215.76 149.21 198.02 155.01 183.08 C 161.14 166.28 177.39 153.87 195.19 152.25 M 181.35 192.47 C 177.28 193.77 174.94 198.66 176.47 202.66 C 177.61 206.15 181.31 208.29 184.91 208 C 195.31 207.97 205.72 208.06 216.12 207.96 C 220.35 208.02 224.07 204.22 223.98 200.01 C 224.08 195.79 220.36 191.96 216.13 192.04 C 206.43 191.92 196.73 192.06 187.03 191.98 C 185.13 192.02 183.18 191.87 181.35 192.47 Z"
        fill="#000000" />
</svg>
