<svg
    xmlns="http://www.w3.org/2000/svg"
    viewBox="0 0 511 511"
    id="vector">
    <path
        id="path"
        d="M 510.652 185.902 C 507.301 175.535 498.105 168.172 487.227 167.191 L 339.453 153.773 L 281.02 17.004 C 276.711 6.98 266.898 0.492 255.996 0.492 C 245.094 0.492 235.281 6.98 230.973 17.027 L 172.539 153.773 L 24.742 167.191 C 13.883 168.195 4.711 175.535 1.34 185.902 C -2.031 196.27 1.082 207.641 9.297 214.809 L 120.996 312.77 L 88.059 457.859 C 85.648 468.527 89.789 479.555 98.641 485.953 C 103.398 489.391 108.965 491.141 114.578 491.141 C 119.418 491.141 124.219 489.836 128.527 487.258 L 255.996 411.074 L 383.418 487.258 C 392.742 492.867 404.496 492.355 413.328 485.953 C 422.184 479.535 426.32 468.504 423.91 457.859 L 390.973 312.77 L 502.672 214.828 C 510.887 207.641 514.023 196.289 510.652 185.902 Z M 510.652 185.902"
        fill="#32bea6"/>
</svg>
