<svg xmlns="http://www.w3.org/2000/svg" viewBox="0 0 49 49" id="vector">
    <path id="path"
        d="M 37.66 46.06 C 38.075 45.783 38.368 45.357 38.477 44.87 C 38.586 44.383 38.503 43.872 38.245 43.445 C 37.988 43.018 37.575 42.706 37.094 42.575 C 36.613 42.443 36.099 42.503 35.66 42.74 C 31.221 45.45 25.933 46.426 20.818 45.479 C 15.704 44.532 11.116 41.728 7.941 37.608 C 4.766 33.489 3.223 28.337 3.61 23.151 C 3.997 17.964 6.287 13.099 10.039 9.496 C 13.79 5.893 18.744 3.801 23.942 3.624 C 29.14 3.447 34.225 5.197 38.213 8.536 C 42.201 11.875 44.817 16.573 45.557 21.721 C 46.296 26.869 45.107 32.114 42.22 36.44 C 41.96 36.779 41.82 37.194 41.82 37.621 C 41.82 38.048 41.961 38.463 42.221 38.801 C 42.481 39.14 42.846 39.383 43.258 39.494 C 43.671 39.604 44.108 39.575 44.503 39.412 C 44.897 39.249 45.227 38.96 45.44 38.59 C 48.881 33.472 50.291 27.25 49.395 21.149 C 48.498 15.047 45.357 9.494 40.59 5.582 C 35.822 1.67 29.763 -0.326 23.604 -0.014 C 17.444 0.298 11.618 2.896 7.27 7.27 C 2.984 11.557 0.414 17.27 0.049 23.321 C -0.317 29.372 1.547 35.352 5.286 40.124 C 9.024 44.896 14.385 48.137 20.347 49.23 C 26.31 50.323 32.472 49.195 37.66 46.06 Z"
        fill="#ffffff" />
    <path id="path_1"
        d="M 24.66 10 C 24.076 10.003 23.516 10.237 23.104 10.651 C 22.692 11.065 22.46 11.626 22.46 12.21 L 22.46 26.39 C 22.46 26.855 22.607 27.307 22.88 27.683 C 23.153 28.059 23.538 28.339 23.98 28.482 C 24.422 28.626 24.898 28.626 25.34 28.482 C 25.782 28.339 26.167 28.059 26.44 27.683 C 26.713 27.307 26.86 26.855 26.86 26.39 L 26.86 12.22 C 26.864 11.832 26.764 11.449 26.572 11.112 C 26.38 10.774 26.102 10.493 25.766 10.298 C 25.43 10.103 25.048 10 24.66 10 Z"
        fill="#ffffff" />
    <path id="path_2"
        d="M 24.66 31.29 C 26.3 31.29 27.63 32.62 27.63 34.26 C 27.63 35.9 26.3 37.23 24.66 37.23 C 23.02 37.23 21.69 35.9 21.69 34.26 C 21.69 32.62 23.02 31.29 24.66 31.29 Z"
        fill="#ffffff" />
</svg>
