<svg xmlns="http://www.w3.org/2000/svg" viewBox="0 0 256 256" id="vector">
    <path id="path"
        d="M 179.95 148.33 M 108.34 148.33 C 108.34 129.345 115.89 111.118 129.314 97.694 C 142.738 84.27 160.965 76.72 179.95 76.72 C 198.935 76.72 217.162 84.27 230.586 97.694 C 244.01 111.118 251.56 129.345 251.56 148.33 C 251.56 163.45 246.771 178.189 237.884 190.421 C 228.996 202.654 216.459 211.763 202.079 216.435 C 187.699 221.108 172.201 221.108 157.821 216.435 C 143.441 211.763 130.904 202.654 122.016 190.421 C 113.129 178.189 108.34 163.45 108.34 148.33"
        fill="#f0626e" />
    <path id="path_1"
        d="M 180 197.79 C 162.933 197.789 146.415 191.686 133.447 180.591 C 120.478 169.495 111.893 154.122 109.25 137.26 C 106.796 152.949 109.63 169.016 117.301 182.92 C 124.972 196.823 137.054 207.788 151.635 214.077 C 166.215 220.367 182.482 221.632 197.86 217.672 C 213.237 213.712 226.869 204.747 236.598 192.196 C 246.326 179.646 251.609 164.209 251.61 148.33 C 251.613 144.623 251.326 140.922 250.75 137.26 C 248.109 154.122 239.525 169.497 226.555 180.593 C 213.586 191.689 197.068 197.791 180 197.79 Z"
        fill="#d15661" />
    <path id="path_2"
        d="M 154.3 129.69 M 145.26 129.69 C 145.26 127.293 146.213 124.992 147.908 123.298 C 149.602 121.603 151.903 120.65 154.3 120.65 C 156.697 120.65 158.998 121.603 160.692 123.298 C 162.387 124.992 163.34 127.293 163.34 129.69 C 163.34 131.599 162.735 133.459 161.614 135.004 C 160.492 136.548 158.909 137.698 157.094 138.288 C 155.278 138.877 153.322 138.877 151.506 138.288 C 149.691 137.698 148.108 136.548 146.986 135.004 C 145.865 133.459 145.26 131.599 145.26 129.69"
        fill="#ffffff" />
    <path id="path_3"
        d="M 214.65 129.69 C 214.65 132.076 213.701 134.367 212.014 136.054 C 210.327 137.741 208.036 138.69 205.65 138.69 C 203.264 138.69 200.973 137.741 199.286 136.054 C 197.599 134.367 196.65 132.076 196.65 129.69 C 196.65 127.304 197.599 125.013 199.286 123.326 C 200.973 121.639 203.264 120.69 205.65 120.69 C 208.036 120.69 210.327 121.639 212.014 123.326 C 213.701 125.013 214.65 127.304 214.65 129.69 Z"
        fill="#ffffff" />
    <path id="path_4"
        d="M 211.08 184.27 C 209.319 184.27 207.628 183.572 206.38 182.33 C 199.371 175.332 189.86 171.397 179.955 171.397 C 170.05 171.397 160.539 175.332 153.53 182.33 C 152.271 183.513 150.6 184.16 148.873 184.133 C 147.146 184.107 145.495 183.408 144.274 182.186 C 143.052 180.965 142.353 179.314 142.327 177.587 C 142.3 175.86 142.947 174.189 144.13 172.93 C 153.636 163.448 166.528 158.118 179.955 158.118 C 193.382 158.118 206.274 163.448 215.78 172.93 C 216.71 173.859 217.345 175.043 217.602 176.332 C 217.858 177.621 217.727 178.958 217.224 180.172 C 216.72 181.387 215.868 182.425 214.774 183.154 C 213.68 183.883 212.395 184.272 211.08 184.27 Z"
        fill="#ffffff" />
    <path id="path_5"
        d="M 103.94 85.38 C 103.938 73.924 99.945 62.818 92.651 53.984 C 85.357 45.149 75.209 39.126 63.96 36.954 C 52.712 34.783 41.051 36.596 30.993 42.081 C 20.935 47.566 13.095 56.387 8.828 67.019 C 4.562 77.651 4.13 89.444 7.606 100.36 C 11.083 111.276 18.256 120.648 27.886 126.854 C 37.515 133.06 49.013 135.722 60.39 134.38 L 78.45 152.4 C 79.063 153.014 79.844 153.432 80.694 153.601 C 81.544 153.771 82.426 153.684 83.227 153.352 C 84.028 153.02 84.713 152.458 85.194 151.736 C 85.675 151.015 85.931 150.167 85.93 149.3 L 85.93 123.48 C 91.567 118.86 96.107 113.045 99.222 106.456 C 102.336 99.867 103.948 92.668 103.94 85.38 Z"
        fill="#48bcaa" />
    <path id="path_6"
        d="M 103.94 85.38 C 103.94 83.82 103.86 82.28 103.72 80.75 C 102.562 92.964 96.887 104.317 87.812 112.573 C 78.736 120.828 66.899 125.407 54.63 125.407 C 42.361 125.407 30.524 120.828 21.448 112.573 C 12.373 104.317 6.698 92.964 5.54 80.75 C 5.4 82.28 5.32 83.82 5.32 85.38 C 5.321 98.226 10.341 110.576 19.303 119.779 C 28.266 128.983 40.479 134.329 53.32 134.67 L 78.45 159.8 C 79.063 160.414 79.844 160.832 80.694 161.001 C 81.544 161.171 82.426 161.084 83.227 160.752 C 84.028 160.42 84.713 159.858 85.194 159.136 C 85.675 158.415 85.931 157.567 85.93 156.7 L 85.93 149.3 C 85.931 150.167 85.675 151.015 85.194 151.736 C 84.713 152.458 84.028 153.02 83.227 153.352 C 82.426 153.684 81.544 153.771 80.694 153.601 C 79.844 153.432 79.063 153.014 78.45 152.4 L 60.39 134.35 C 72.384 132.939 83.451 127.17 91.477 118.146 C 99.502 109.122 103.939 97.457 103.94 85.38 Z"
        fill="#3fa192" />
    <path id="path_7"
        d="M 54.63 90.23 L 54.63 90.23 C 52.445 90.227 50.348 89.36 48.799 87.819 C 47.251 86.278 46.373 84.185 46.36 82 L 46.36 57.78 C 46.36 55.587 47.232 53.481 48.782 51.929 C 50.332 50.377 52.437 49.503 54.63 49.5 L 54.63 49.5 C 56.825 49.5 58.933 50.373 60.485 51.925 C 62.037 53.477 62.91 55.585 62.91 57.78 L 62.91 82 C 62.897 84.186 62.018 86.281 60.467 87.823 C 58.916 89.364 56.817 90.23 54.63 90.23 Z"
        fill="#ffffff" />
    <path id="path_8"
        d="M 54.63 85 C 52.437 84.997 50.332 84.123 48.782 82.571 C 47.232 81.019 46.36 78.913 46.36 76.72 L 46.36 82 C 46.298 83.787 46.816 85.546 47.836 87.014 C 48.857 88.482 50.325 89.58 52.022 90.144 C 53.718 90.709 55.552 90.709 57.248 90.144 C 58.945 89.58 60.413 88.482 61.434 87.014 C 62.454 85.546 62.972 83.787 62.91 82 L 62.91 76.72 C 62.91 78.915 62.037 81.023 60.485 82.575 C 58.933 84.127 56.825 85 54.63 85 Z"
        fill="#ffffff" />
    <path id="path_9"
        d="M 54.63 112 L 54.63 112 C 52.438 112 50.333 111.128 48.782 109.578 C 47.232 108.027 46.36 105.922 46.36 103.73 L 46.36 103.73 C 46.36 101.537 47.232 99.431 48.782 97.879 C 50.332 96.327 52.437 95.453 54.63 95.45 L 54.63 95.45 C 56.825 95.45 58.933 96.323 60.485 97.875 C 62.037 99.427 62.91 101.535 62.91 103.73 L 62.91 103.73 C 62.907 105.923 62.033 108.028 60.481 109.578 C 58.929 111.128 56.823 112 54.63 112 Z"
        fill="#ffffff" />
    <path id="path_10"
        d="M 54.63 106.78 C 52.898 106.776 51.21 106.226 49.808 105.208 C 48.406 104.19 47.36 102.756 46.82 101.11 C 46.524 101.952 46.369 102.837 46.36 103.73 C 46.435 105.874 47.34 107.908 48.883 109.398 C 50.426 110.888 52.49 111.722 54.635 111.722 C 56.78 111.722 58.844 110.888 60.387 109.398 C 61.93 107.908 62.835 105.874 62.91 103.73 C 62.896 102.838 62.741 101.953 62.45 101.11 C 61.908 102.757 60.86 104.191 59.457 105.209 C 58.053 106.227 56.364 106.777 54.63 106.78 Z"
        fill="#ffffff" />
</svg>
