<svg xmlns="http://www.w3.org/2000/svg" viewBox="0 0 400 400" id="vector">
    <path id="path"
        d="M 158.098 136.322 C 161.722 134.713 165.239 133.277 168.743 131.976 L 175.176 173.686 C 175.482 175.668 176.821 177.335 178.689 178.061 C 180.559 178.788 182.673 178.46 184.234 177.205 L 316.134 71.262 C 317.696 70.007 318.471 68.013 318.165 66.033 C 317.86 64.053 316.521 62.385 314.653 61.659 L 156.961 0.381 C 155.092 -0.345 152.978 -0.02 151.416 1.236 C 149.854 2.491 149.079 4.485 149.385 6.466 L 156.34 51.56 C 155.023 52.393 153.664 53.256 152.318 54.202 C 147.222 57.775 141.827 61.874 135.339 67.099 C 124.883 75.517 114.795 85.55 104.464 97.812 C 95.134 109.108 86.777 121.227 79.623 133.829 C 67.3 155.538 58.413 179.388 53.21 204.719 C 51.324 213.903 49.367 224.775 49.153 235.777 C 49.1 238.493 51.002 240.856 53.665 241.387 C 54.661 241.586 55.655 241.508 56.563 241.199 C 58.084 240.683 59.362 239.521 59.984 237.938 C 63.787 228.269 69.385 218.91 73.84 211.835 C 80.879 200.658 89.237 189.788 98.682 179.524 C 115.812 160.913 136.359 145.973 158.098 136.322 Z"
        fill="#448646" />
    <path id="path_1"
        d="M 346.889 159.167 C 345.894 158.968 344.899 159.047 343.991 159.355 C 342.47 159.871 341.192 161.033 340.57 162.616 C 336.768 172.285 331.169 181.644 326.715 188.718 C 319.676 199.895 311.318 210.766 301.872 221.029 C 284.741 239.641 264.194 254.58 242.456 264.231 C 238.832 265.839 235.314 267.276 231.81 268.578 L 225.377 226.867 C 225.07 224.887 223.731 223.219 221.863 222.492 C 219.993 221.765 217.88 222.092 216.318 223.348 L 84.418 329.29 C 82.855 330.546 82.082 332.538 82.387 334.519 C 82.692 336.5 84.031 338.168 85.899 338.894 L 243.591 400.17 C 245.459 400.897 247.573 400.571 249.135 399.316 C 250.697 398.06 251.472 396.067 251.167 394.086 L 244.212 348.992 C 245.528 348.159 246.888 347.297 248.234 346.351 C 253.329 342.778 258.723 338.679 265.213 333.453 C 275.668 325.035 285.757 315.002 296.088 302.74 C 305.417 291.445 313.775 279.326 320.929 266.722 C 333.252 245.013 342.139 221.163 347.343 195.834 C 349.229 186.65 351.186 175.778 351.4 164.776 C 351.453 162.062 349.553 159.699 346.889 159.167 Z"
        fill="#448646" />
</svg>
