<svg width="26" height="28" xmlns="http://www.w3.org/2000/svg" xml:space="preserve" version="1.1">

 <g>
  <title>Layer 1</title>
     <path fill="#FF7A00" clip-rule="evenodd" fill-rule="evenodd"
         d="m16.4,1.1c-0.7,-0.7 -1.6,-1.1 -2.6,-1.1l-1.7,0c-1,0 -1.9,0.4 -2.5,1.1c-0.7,0.7 -1,1.6 -1,2.5c0,0.8 -0.7,1.5 -1.6,1.5c-0.3,0.1 -0.5,0 -0.7,-0.1l0,0c-1.7,-1 -3.9,-0.4 -4.9,1.3l-0.9,1.4l0,0c-1,1.7 -0.4,3.9 1.3,4.9l0,0c0.5,0.3 0.8,0.8 0.8,1.4c0,0.6 -0.3,1.1 -0.8,1.4c-1.7,1 -2.3,3.2 -1.3,4.9l0,0l0.8,1.5c0.5,0.8 1.2,1.4 2.2,1.7c0.9,0.3 1.9,0.1 2.7,-0.3l0,0c0.4,-0.2 0.8,-0.3 1.2,-0.2c0.4,0.1 0.7,0.4 0.9,0.7l0,0c0.1,0.2 0.2,0.5 0.2,0.7c0,2 1.6,3.6 3.6,3.6l1.7,0c2,0 3.6,-1.6 3.6,-3.6l0,0c0,-0.4 0.2,-0.8 0.5,-1.1c0.3,-0.3 0.7,-0.5 1.1,-0.5c0.3,0 0.5,0.1 0.7,0.2c1.7,1 3.9,0.4 4.9,-1.3l0.9,-1.5l0,0c0.5,-0.8 0.6,-1.8 0.4,-2.7c-0.2,-0.9 -0.8,-1.7 -1.7,-2.2c-0.4,-0.2 -0.6,-0.5 -0.7,-0.9c-0.1,-0.4 0,-0.8 0.2,-1.2l0,0c0.1,-0.2 0.3,-0.4 0.6,-0.6l0,0c1.7,-1 2.3,-3.1 1.4,-4.8c0,0 0,-0.1 -0.1,-0.1l-0.8,-1.5c-1,-1.7 -3.2,-2.3 -4.9,-1.3l0,0c-0.4,0.2 -0.8,0.3 -1.2,0.2c-0.4,-0.1 -0.7,-0.4 -0.9,-0.7l0,0c-0.1,-0.2 -0.2,-0.5 -0.2,-0.7c-0.2,-0.9 -0.5,-1.9 -1.2,-2.6z"
         class="st0" id="path" />
     <path fill="#FFFFFF" clip-rule="evenodd" fill-rule="evenodd"
         d="m12.8,11.4c-1.4,0 -2.5,1.1 -2.5,2.5s1.1,2.5 2.5,2.5s2.5,-1.1 2.5,-2.5s-1.1,-2.5 -2.5,-2.5zm-4.5,2.5c0,-2.5 2,-4.5 4.5,-4.5c2.5,0 4.5,2 4.5,4.5s-2,4.5 -4.5,4.5c-2.5,0 -4.5,-2 -4.5,-4.5z"
         class="st1" id="path_1" />
 </g>
</svg>