<svg xmlns="http://www.w3.org/2000/svg" viewBox="0 0 512 512" id="vector">
    <path id="path"
        d="M 375.5 274 C 309.883 274 256.5 327.383 256.5 393 C 256.5 458.617 309.883 512 375.5 512 C 441.668 512 495.5 458.617 495.5 393 C 495.5 327.383 441.668 274 375.5 274 Z M 412.023 378.603 L 372.023 426.603 C 369.155 430.044 364.922 432 360.501 432 C 359.926 432 359.349 431.967 358.77 431.9 C 353.742 431.316 349.347 428.236 347.083 423.708 L 331.083 391.708 C 327.378 384.299 330.382 375.288 337.791 371.584 C 345.2 367.877 354.211 370.882 357.916 378.292 L 363.659 389.778 L 388.976 359.397 C 394.28 353.034 403.739 352.175 410.102 357.476 C 416.467 362.78 417.327 372.238 412.023 378.603 Z"
        fill="#f9aa33" />
    <path id="path_1"
        d="M 369.035 85.453 L 308.173 22.514 C 308.144 22.484 308.114 22.453 308.085 22.423 C 294.072 8.173 274.573 0 254.59 0 L 61.5 0 C 36.687 0 16.5 20.187 16.5 45 L 16.5 434 C 16.5 458.813 36.687 479 61.5 479 L 253.89 479 C 236.647 454.688 226.5 425.008 226.5 393 C 226.5 310.841 293.341 244 375.5 244 C 380.562 244 385.565 244.254 390.5 244.743 L 390.5 137.98 C 390.5 118.211 382.877 99.56 369.035 85.453 Z M 175.5 335 L 95.5 335 C 87.216 335 80.5 328.284 80.5 320 C 80.5 311.716 87.216 305 95.5 305 L 175.5 305 C 183.784 305 190.5 311.716 190.5 320 C 190.5 328.284 183.784 335 175.5 335 Z M 175.5 255 L 95.5 255 C 87.216 255 80.5 248.284 80.5 240 C 80.5 231.716 87.216 225 95.5 225 L 175.5 225 C 183.784 225 190.5 231.716 190.5 240 C 190.5 248.284 183.784 255 175.5 255 Z M 175.5 175 L 95.5 175 C 87.216 175 80.5 168.284 80.5 160 C 80.5 151.716 87.216 145 95.5 145 L 175.5 145 C 183.784 145 190.5 151.716 190.5 160 C 190.5 168.284 183.784 175 175.5 175 Z M 271.5 255 L 255.5 255 C 247.216 255 240.5 248.284 240.5 240 C 240.5 231.716 247.216 225 255.5 225 L 271.5 225 C 279.784 225 286.5 231.716 286.5 240 C 286.5 248.284 279.784 255 271.5 255 Z M 271.5 175 L 255.5 175 C 247.216 175 240.5 168.284 240.5 160 C 240.5 151.716 247.216 145 255.5 145 L 271.5 145 C 279.784 145 286.5 151.716 286.5 160 C 286.5 168.284 279.784 175 271.5 175 Z"
        fill="#48bcaa" />
</svg>
