<svg xmlns="http://www.w3.org/2000/svg" viewBox="0 0 414 414" id="vector">
    <path id="path"
        d="M 271.995 223.747 L 313.404 231.966 C 313.833 252.277 330.647 268.395 350.958 267.966 C 371.269 267.537 387.387 250.723 386.958 230.412 C 386.529 210.101 369.715 193.983 349.404 194.412 C 335.14 194.713 322.336 203.236 316.553 216.279 L 274.07 207.847 C 274.026 192.301 267.975 177.373 257.183 166.183 L 312.17 88.505 C 335.363 99.533 363.104 89.671 374.132 66.478 C 385.16 43.285 375.298 15.544 352.105 4.516 C 328.912 -6.512 301.171 3.35 290.143 26.543 C 281.725 44.248 285.314 65.33 299.118 79.251 L 244.662 156.178 C 219.618 141.137 187.398 146.192 168.162 168.178 L 96.671 112.657 C 106.055 94.594 99.02 72.343 80.957 62.959 C 62.894 53.575 40.643 60.61 31.259 78.673 C 21.875 96.736 28.91 118.987 46.973 128.371 C 59.665 134.965 75.026 133.621 86.379 124.923 L 159.249 181.514 C 147.141 206.251 153.312 236.047 174.249 253.94 L 129.964 316.553 C 106.519 302.325 75.978 309.797 61.75 333.243 C 47.522 356.688 54.994 387.229 78.44 401.457 C 101.885 415.685 132.426 408.213 146.654 384.767 C 157.711 366.546 155.908 343.301 142.172 327.004 L 187.652 262.684 C 203.212 270.082 221.19 270.486 237.066 263.793 L 291.029 343.509 C 275.158 360.289 275.895 386.758 292.675 402.629 C 309.455 418.5 335.924 417.763 351.795 400.983 C 367.666 384.203 366.929 357.734 350.149 341.863 C 337.776 330.16 319.542 327.129 304.049 334.201 L 250.864 255.633 C 261.163 247.563 268.577 236.378 271.995 223.747 Z"
        fill="#32bea6" />
</svg>
