<svg width="26" height="28" xmlns="http://www.w3.org/2000/svg" xml:space="preserve" version="1.1">

 <g>
  <title>Layer 1</title>
     <path fill="#606060" clip-rule="evenodd" fill-rule="evenodd"
         d="m13.8,0c1,0 1.9,0.4 2.6,1.1c0.7,0.7 1,1.6 1,2.6c0,0.3 0.1,0.5 0.2,0.7l0,0c0.2,0.4 0.6,0.6 0.9,0.7c0.4,0.1 0.8,0 1.2,-0.2l0,0c1.7,-1 3.9,-0.4 4.9,1.3l0.8,1.5c0,0 0,0.1 0.1,0.1c0.9,1.7 0.3,3.8 -1.4,4.8l0,0c-0.2,0.1 -0.4,0.3 -0.6,0.6l0,0c-0.2,0.4 -0.3,0.8 -0.2,1.2c0.1,0.4 0.4,0.7 0.7,0.9c0.8,0.5 1.4,1.3 1.7,2.2c0.2,0.9 0.1,1.9 -0.4,2.7l0,0l-0.9,1.5c-1,1.7 -3.2,2.3 -4.9,1.3c-0.2,-0.1 -0.5,-0.2 -0.7,-0.2c-0.4,0 -0.8,0.2 -1.1,0.5c-0.3,0.3 -0.5,0.7 -0.5,1.1l0,0c0,2 -1.6,3.6 -3.6,3.6l-1.7,0c-2,0 -3.6,-1.6 -3.6,-3.6c0,-0.3 -0.1,-0.5 -0.2,-0.7l0,0c-0.2,-0.4 -0.5,-0.6 -0.9,-0.7c-0.4,-0.1 -0.8,0 -1.2,0.2l0,0c-0.8,0.5 -1.8,0.6 -2.7,0.3c-0.9,-0.3 -1.7,-0.9 -2.2,-1.7l-0.8,-1.5l0,0c-1,-1.7 -0.4,-3.9 1.3,-4.9c0.7,-0.4 1,-0.9 1,-1.4s-0.3,-1.1 -0.8,-1.4l0,0c-1.7,-1 -2.3,-3.2 -1.3,-4.9l0,0l0.9,-1.5c1,-1.7 3.2,-2.3 4.9,-1.3l0,0c0.2,0.1 0.5,0.2 0.7,0.2c0.9,0 1.5,-0.7 1.6,-1.5c0,-0.9 0.4,-1.9 1,-2.5c0.7,-0.7 1.6,-1.1 2.6,-1.1l1.6,0zm-3.2,3.6l0,0c0,2 -1.6,3.6 -3.6,3.6l0,0c-0.6,-0.1 -1.2,-0.2 -1.7,-0.5c-0.8,-0.5 -1.7,-0.2 -2.2,0.5l0,0l-0.9,1.5c-0.4,0.7 -0.2,1.7 0.6,2.1c1.1,0.6 1.8,1.8 1.8,3.1c0,1.3 -0.7,2.5 -1.8,3.1c-0.7,0.4 -1,1.4 -0.6,2.1l0.9,1.5l0,0c0.2,0.4 0.5,0.7 0.9,0.8c0.4,0.1 0.8,0.1 1.2,-0.1c0.8,-0.5 1.8,-0.6 2.7,-0.4c0.9,0.2 1.7,0.8 2.2,1.7c0.3,0.5 0.5,1.1 0.5,1.7l0,0c0,0.9 0.7,1.6 1.6,1.6l1.7,0c0.9,0 1.6,-0.7 1.6,-1.6c0,-1 0.4,-1.9 1,-2.5c0.7,-0.7 1.6,-1.1 2.5,-1l0,0c0.6,0 1.2,0.2 1.7,0.5l0,0c0.7,0.4 1.7,0.2 2.1,-0.6l0,0l0.9,-1.5c0.2,-0.4 0.3,-0.8 0.2,-1.2c-0.1,-0.4 -0.4,-0.7 -0.7,-0.9c-0.8,-0.5 -1.4,-1.3 -1.7,-2.2c-0.2,-0.9 -0.1,-1.9 0.4,-2.7c0.3,-0.5 0.8,-1 1.3,-1.3c0.7,-0.4 1,-1.4 0.6,-2.1l0,0l-0.8,-1.5c-0.4,-0.7 -1.4,-1 -2.1,-0.6c-0.9,0.5 -1.9,0.6 -2.8,0.4c-0.9,-0.2 -1.7,-0.8 -2.2,-1.7c-0.3,-0.5 -0.5,-1.1 -0.5,-1.7l0,0c0,-0.4 -0.1,-0.8 -0.4,-1.1c-0.3,-0.4 -0.7,-0.6 -1.2,-0.6l-1.7,0c-0.4,0 -0.8,0.2 -1.1,0.5c-0.2,0.3 -0.4,0.7 -0.4,1.1l0,0z"
         class="st0" id="path" />
     <path fill="#606060" clip-rule="evenodd" fill-rule="evenodd"
         d="m13,11.5c-1.4,0 -2.5,1.1 -2.5,2.5s1.1,2.5 2.5,2.5s2.5,-1.1 2.5,-2.5s-1.1,-2.5 -2.5,-2.5zm-4.6,2.6c0,-2.5 2,-4.6 4.6,-4.6c2.5,0 4.6,2 4.6,4.6s-2,4.6 -4.6,4.6c-2.5,-0.1 -4.6,-2.1 -4.6,-4.6z"
         class="st0" id="path_1" />
 </g>
</svg>