<svg xmlns="http://www.w3.org/2000/svg" viewBox="0 0 32 33" id="vector">
    <path id="path"
        d="M 18.63 32.074 L 13.729 32.074 C 13.364 32.074 13.003 32.002 12.666 31.861 C 12.33 31.721 12.024 31.515 11.768 31.256 C 11.509 30.999 11.302 30.694 11.162 30.357 C 11.021 30.021 10.949 29.66 10.95 29.295 C 10.947 28.667 10.696 28.065 10.252 27.621 C 9.808 27.176 9.206 26.925 8.577 26.923 C 8.162 26.923 7.754 27.035 7.396 27.246 C 7.079 27.43 6.729 27.549 6.365 27.597 C 6.002 27.645 5.633 27.621 5.279 27.526 C 4.924 27.431 4.592 27.267 4.301 27.043 C 4.01 26.819 3.766 26.54 3.583 26.222 L 1.132 21.953 C 0.887 21.53 0.759 21.05 0.76 20.561 C 0.76 20.071 0.889 19.59 1.133 19.165 C 1.377 18.74 1.728 18.387 2.152 18.14 C 2.514 17.935 2.815 17.637 3.023 17.277 C 3.232 16.917 3.34 16.507 3.338 16.091 C 3.341 15.675 3.234 15.265 3.026 14.904 C 2.818 14.543 2.518 14.244 2.157 14.038 C 1.516 13.667 1.049 13.057 0.858 12.342 C 0.667 11.627 0.768 10.865 1.137 10.224 L 3.588 5.955 C 3.833 5.53 4.186 5.178 4.611 4.932 C 5.036 4.687 5.518 4.558 6.009 4.559 C 6.498 4.56 6.978 4.69 7.401 4.936 C 7.76 5.144 8.167 5.253 8.582 5.255 C 9.211 5.252 9.812 5.001 10.257 4.557 C 10.701 4.113 10.952 3.511 10.954 2.882 C 10.954 2.142 11.248 1.432 11.771 0.909 C 12.294 0.385 13.003 0.09 13.743 0.089 L 18.63 0.089 C 19.366 0.091 20.071 0.385 20.59 0.907 C 20.849 1.164 21.054 1.47 21.194 1.806 C 21.335 2.142 21.408 2.503 21.409 2.868 C 21.41 3.496 21.66 4.099 22.105 4.544 C 22.549 4.988 23.152 5.239 23.781 5.24 C 24.196 5.239 24.604 5.128 24.962 4.916 C 25.279 4.732 25.629 4.613 25.993 4.565 C 26.356 4.517 26.726 4.542 27.08 4.637 C 27.434 4.732 27.767 4.896 28.058 5.12 C 28.349 5.343 28.593 5.622 28.775 5.941 L 31.226 10.21 C 31.47 10.633 31.598 11.113 31.598 11.602 C 31.599 12.092 31.47 12.574 31.225 13 C 30.979 13.425 30.626 13.778 30.201 14.023 C 29.84 14.229 29.54 14.528 29.332 14.889 C 29.125 15.25 29.017 15.66 29.02 16.076 C 29.018 16.492 29.126 16.901 29.333 17.261 C 29.541 17.621 29.84 17.919 30.201 18.125 C 30.843 18.495 31.31 19.105 31.503 19.82 C 31.695 20.535 31.595 21.297 31.226 21.938 L 28.775 26.207 C 28.53 26.632 28.176 26.984 27.751 27.23 C 27.326 27.475 26.844 27.604 26.354 27.604 C 25.864 27.604 25.382 27.476 24.957 27.232 C 24.601 27.02 24.195 26.908 23.781 26.908 C 23.152 26.909 22.549 27.16 22.105 27.604 C 21.66 28.049 21.41 28.652 21.409 29.28 C 21.409 30.019 21.116 30.727 20.596 31.251 C 20.075 31.774 19.368 32.07 18.63 32.074 Z M 8.538 24.948 C 9.686 24.95 10.787 25.407 11.599 26.219 C 12.411 27.031 12.868 28.132 12.871 29.28 C 12.869 29.39 12.89 29.499 12.932 29.6 C 12.975 29.701 13.037 29.792 13.116 29.868 C 13.192 29.946 13.283 30.007 13.383 30.05 C 13.483 30.092 13.59 30.113 13.699 30.114 L 18.63 30.114 C 18.851 30.114 19.063 30.026 19.219 29.869 C 19.375 29.713 19.463 29.501 19.463 29.28 C 19.466 28.132 19.923 27.031 20.735 26.219 C 21.547 25.407 22.647 24.95 23.796 24.948 C 24.555 24.95 25.3 25.151 25.957 25.531 C 26.148 25.64 26.374 25.669 26.586 25.612 C 26.798 25.555 26.978 25.417 27.089 25.227 L 29.54 20.958 C 29.648 20.767 29.677 20.54 29.619 20.328 C 29.561 20.116 29.421 19.936 29.231 19.826 C 28.571 19.448 28.023 18.902 27.643 18.243 C 27.264 17.585 27.066 16.837 27.07 16.076 C 27.064 15.315 27.262 14.566 27.643 13.907 C 28.024 13.248 28.574 12.702 29.236 12.327 C 29.362 12.253 29.466 12.146 29.538 12.019 C 29.611 11.892 29.648 11.748 29.648 11.602 C 29.647 11.457 29.608 11.315 29.535 11.19 L 27.084 6.921 C 26.978 6.733 26.802 6.594 26.594 6.534 C 26.489 6.504 26.378 6.497 26.27 6.511 C 26.161 6.525 26.056 6.561 25.962 6.617 C 25.305 6.998 24.559 7.199 23.8 7.2 C 22.652 7.198 21.552 6.74 20.74 5.928 C 19.928 5.117 19.47 4.016 19.468 2.868 C 19.467 2.647 19.379 2.435 19.223 2.28 C 19.146 2.202 19.054 2.14 18.953 2.098 C 18.852 2.056 18.744 2.034 18.635 2.034 L 13.729 2.034 C 13.508 2.036 13.298 2.124 13.142 2.28 C 12.987 2.436 12.9 2.648 12.9 2.868 C 12.898 4.016 12.44 5.117 11.628 5.928 C 10.816 6.74 9.716 7.198 8.568 7.2 C 7.808 7.199 7.063 6.998 6.406 6.617 C 6.214 6.511 5.988 6.483 5.776 6.54 C 5.564 6.596 5.382 6.733 5.269 6.921 L 2.819 11.19 C 2.71 11.381 2.68 11.608 2.737 11.821 C 2.794 12.034 2.932 12.215 3.122 12.327 C 3.784 12.702 4.334 13.248 4.715 13.907 C 5.096 14.566 5.294 15.315 5.288 16.076 C 5.293 16.837 5.094 17.586 4.713 18.245 C 4.333 18.904 3.783 19.449 3.122 19.826 C 2.995 19.898 2.89 20.003 2.818 20.13 C 2.745 20.256 2.708 20.4 2.711 20.546 C 2.709 20.691 2.746 20.833 2.819 20.958 L 5.269 25.227 C 5.321 25.321 5.391 25.403 5.475 25.469 C 5.56 25.536 5.656 25.585 5.759 25.614 C 5.865 25.644 5.975 25.651 6.084 25.637 C 6.192 25.623 6.297 25.587 6.391 25.531 C 7.048 25.15 7.794 24.949 8.553 24.948 L 8.538 24.948 Z"
        fill="#4db5ac" />
    <path id="path_1"
        d="M 16.179 22.178 C 14.563 22.177 13.012 21.534 11.869 20.391 C 10.726 19.248 10.083 17.698 10.082 16.081 C 10.082 14.464 10.724 12.913 11.868 11.768 C 13.011 10.624 14.562 9.981 16.179 9.979 C 16.98 9.976 17.774 10.133 18.515 10.439 C 19.255 10.745 19.927 11.195 20.492 11.763 C 21.06 12.328 21.51 13.001 21.817 13.741 C 22.123 14.481 22.279 15.275 22.276 16.076 C 22.276 17.694 21.634 19.245 20.491 20.389 C 19.347 21.534 17.797 22.177 16.179 22.178 Z M 16.179 11.945 C 15.082 11.946 14.031 12.382 13.256 13.158 C 12.48 13.933 12.044 14.985 12.042 16.081 C 12.044 17.178 12.48 18.229 13.256 19.005 C 14.031 19.78 15.082 20.217 16.179 20.218 C 17.276 20.217 18.327 19.78 19.103 19.005 C 19.878 18.229 20.314 17.178 20.316 16.081 C 20.32 15.535 20.216 14.994 20.008 14.488 C 19.8 13.983 19.493 13.525 19.105 13.141 C 18.722 12.756 18.265 12.452 17.763 12.246 C 17.261 12.04 16.722 11.936 16.179 11.94 L 16.179 11.945 Z"
        fill="#ee8d4d" />
</svg>
