<?xml version="1.0" encoding="UTF-8" ?>
<svg width="512" height="512" viewBox="0 0 512 512" version="1.1"
    xmlns="http://www.w3.org/2000/svg">
    <g id="#ffb62dff">
        <path fill="#ffb62d" opacity="1.00"
            d=" M 296.36 0.00 L 297.68 0.00 C 300.56 7.65 301.73 15.83 304.62 23.49 C 314.66 51.55 329.10 77.85 345.14 102.90 C 362.43 129.68 382.02 154.94 403.29 178.68 C 419.84 196.75 434.26 216.93 444.63 239.19 C 455.23 261.86 461.82 286.81 460.90 311.97 C 460.01 355.48 444.59 398.49 417.74 432.73 C 394.86 462.25 363.74 485.33 328.82 498.59 C 306.67 507.13 283.00 511.46 259.28 512.00 L 256.00 512.00 C 256.00 501.99 256.01 491.97 255.99 481.96 C 293.10 482.06 330.08 469.87 359.85 447.71 C 386.18 428.27 406.91 401.34 418.88 370.87 C 427.58 348.70 431.75 324.72 430.80 300.91 C 429.13 273.89 417.71 248.40 402.75 226.19 C 394.25 213.32 383.83 201.93 373.62 190.43 C 335.53 146.26 301.92 97.45 279.82 43.24 C 271.22 49.36 263.19 56.36 256.16 64.25 C 255.74 50.68 256.22 37.11 255.89 23.54 C 265.72 15.95 276.34 9.29 287.86 4.57 C 290.70 3.09 294.10 2.41 296.36 0.00 Z" />
    </g>
    <g id="#fdcb02ff">
        <path fill="#fdcb02" opacity="1.00"
            d=" M 203.98 94.10 C 213.59 66.00 232.65 41.74 255.89 23.54 C 256.22 37.11 255.74 50.68 256.16 64.25 L 255.77 64.70 C 246.15 75.74 237.93 88.21 232.99 102.06 C 227.47 117.74 225.59 134.47 225.60 151.03 C 225.52 169.83 214.50 188.00 197.97 196.90 C 181.15 206.34 159.22 205.47 143.22 194.70 C 138.06 191.53 134.18 186.82 129.63 182.92 C 123.52 191.39 117.41 199.87 111.44 208.45 C 90.62 238.57 79.94 275.47 81.12 312.04 C 81.91 342.63 90.83 372.99 106.96 399.01 C 123.96 426.47 148.66 449.16 177.58 463.56 C 201.80 475.73 228.91 481.92 255.99 481.96 C 256.01 491.97 256.00 501.99 256.00 512.00 L 254.46 512.00 C 232.85 511.70 211.23 508.34 190.74 501.41 C 140.44 484.91 97.46 447.74 73.45 400.63 C 59.38 373.30 51.77 342.72 51.10 312.00 C 49.89 270.42 61.90 228.59 84.95 193.97 C 98.35 174.65 112.28 155.71 126.06 136.66 C 136.17 146.65 146.14 156.78 156.24 166.78 C 162.72 173.29 173.20 175.27 181.60 171.53 C 190.04 168.05 195.77 159.17 195.62 150.06 C 195.61 131.14 197.96 112.08 203.98 94.10 Z" />
    </g>
    <g id="#ff6200ff">
        <path fill="#ff6200" opacity="1.00"
            d=" M 256.16 64.25 C 263.19 56.36 271.22 49.36 279.82 43.24 C 301.92 97.45 335.53 146.26 373.62 190.43 C 383.83 201.93 394.25 213.32 402.75 226.19 C 417.71 248.40 429.13 273.89 430.80 300.91 C 431.75 324.72 427.58 348.70 418.88 370.87 C 406.91 401.34 386.18 428.27 359.85 447.71 C 330.08 469.87 293.10 482.06 255.99 481.96 C 256.00 468.32 256.02 454.68 255.98 441.03 C 282.01 441.54 307.93 432.29 328.38 416.30 C 348.06 400.97 362.61 379.21 369.30 355.18 C 375.49 332.28 374.96 307.48 367.05 285.07 C 357.65 257.79 337.82 234.25 312.43 220.52 C 295.24 211.11 275.62 205.90 256.00 206.23 C 256.01 164.49 255.99 122.76 256.00 81.03 C 256.00 75.59 256.10 70.14 255.77 64.70 L 256.16 64.25 Z" />
    </g>
    <g id="#fd7d21ff">
        <path fill="#fd7d21" opacity="1.00"
            d=" M 232.99 102.06 C 237.93 88.21 246.15 75.74 255.77 64.70 C 256.10 70.14 256.00 75.59 256.00 81.03 C 255.99 122.76 256.01 164.49 256.00 206.23 C 230.15 206.36 204.35 215.00 184.01 231.03 C 159.37 250.02 142.82 279.19 139.44 310.14 C 136.50 334.83 141.73 360.42 154.17 381.95 C 169.36 408.62 195.43 428.91 225.11 436.84 C 235.15 439.69 245.57 440.85 255.98 441.03 C 256.02 454.68 256.00 468.32 255.99 481.96 C 228.91 481.92 201.80 475.73 177.58 463.56 C 148.66 449.16 123.96 426.47 106.96 399.01 C 90.83 372.99 81.91 342.63 81.12 312.04 C 79.94 275.47 90.62 238.57 111.44 208.45 C 117.41 199.87 123.52 191.39 129.63 182.92 C 134.18 186.82 138.06 191.53 143.22 194.70 C 159.22 205.47 181.15 206.34 197.97 196.90 C 214.50 188.00 225.52 169.83 225.60 151.03 C 225.59 134.47 227.47 117.74 232.99 102.06 Z" />
    </g>
    <g id="#f64100ff">
        <path fill="#f64100" opacity="1.00"
            d=" M 184.01 231.03 C 204.35 215.00 230.15 206.36 256.00 206.23 C 275.62 205.90 295.24 211.11 312.43 220.52 C 337.82 234.25 357.65 257.79 367.05 285.07 C 374.96 307.48 375.49 332.28 369.30 355.18 C 362.61 379.21 348.06 400.97 328.38 416.30 C 307.93 432.29 282.01 441.54 255.98 441.03 C 245.57 440.85 235.15 439.69 225.11 436.84 C 195.43 428.91 169.36 408.62 154.17 381.95 C 141.73 360.42 136.50 334.83 139.44 310.14 C 142.82 279.19 159.37 250.02 184.01 231.03 M 196.44 253.68 C 189.00 255.26 182.02 259.21 177.20 265.15 C 171.28 272.34 168.79 281.84 168.86 291.04 C 168.76 300.64 171.36 310.67 177.84 317.99 C 188.03 329.72 205.87 332.18 220.01 327.06 C 230.55 323.26 238.38 313.65 240.79 302.80 C 244.18 288.19 241.47 270.67 229.35 260.71 C 220.32 253.25 207.69 251.36 196.44 253.68 M 286.37 254.82 C 256.33 298.94 226.09 342.93 196.04 387.05 C 194.96 388.88 193.21 390.45 192.89 392.64 C 203.79 392.62 214.68 392.65 225.57 392.63 C 256.89 346.68 288.32 300.81 319.52 254.79 C 308.47 254.75 297.42 254.69 286.37 254.82 M 297.54 318.73 C 289.58 320.37 282.16 324.84 277.33 331.42 C 271.47 339.25 269.49 349.37 270.02 358.99 C 270.41 368.60 273.87 378.40 280.98 385.10 C 291.66 395.11 308.29 396.86 321.65 391.74 C 332.14 387.72 339.74 377.92 341.94 367.02 C 344.99 352.82 342.35 336.02 330.84 326.18 C 321.82 318.41 308.96 316.34 297.54 318.73 Z" />
        <path fill="#f64100" opacity="1.00"
            d=" M 203.31 274.45 C 206.62 273.13 210.28 275.20 211.72 278.26 C 214.42 283.75 214.24 290.13 213.85 296.09 C 213.33 300.41 212.28 305.70 207.94 307.75 C 204.53 309.27 200.69 307.18 199.20 304.00 C 196.54 298.43 196.70 292.01 197.13 285.99 C 197.68 281.68 198.80 276.26 203.31 274.45 Z" />
        <path fill="#f64100" opacity="1.00"
            d=" M 304.30 339.40 C 307.63 338.09 311.34 340.10 312.79 343.20 C 315.20 348.05 315.29 353.67 315.11 358.98 C 314.74 363.42 314.23 368.52 310.74 371.72 C 307.85 374.43 302.82 373.45 300.85 370.12 C 297.56 364.74 297.70 358.06 298.01 351.98 C 298.43 347.33 299.50 341.46 304.30 339.40 Z" />
    </g>
    <g id="#e9f1f4ff">
        <path fill="#e9f1f4" opacity="1.00"
            d=" M 196.44 253.68 C 207.69 251.36 220.32 253.25 229.35 260.71 C 241.47 270.67 244.18 288.19 240.79 302.80 C 238.38 313.65 230.55 323.26 220.01 327.06 C 205.87 332.18 188.03 329.72 177.84 317.99 C 171.36 310.67 168.76 300.64 168.86 291.04 C 168.79 281.84 171.28 272.34 177.20 265.15 C 182.02 259.21 189.00 255.26 196.44 253.68 M 203.31 274.45 C 198.80 276.26 197.68 281.68 197.13 285.99 C 196.70 292.01 196.54 298.43 199.20 304.00 C 200.69 307.18 204.53 309.27 207.94 307.75 C 212.28 305.70 213.33 300.41 213.85 296.09 C 214.24 290.13 214.42 283.75 211.72 278.26 C 210.28 275.20 206.62 273.13 203.31 274.45 Z" />
        <path fill="#e9f1f4" opacity="1.00"
            d=" M 286.37 254.82 C 297.42 254.69 308.47 254.75 319.52 254.79 C 288.32 300.81 256.89 346.68 225.57 392.63 C 214.68 392.65 203.79 392.62 192.89 392.64 C 193.21 390.45 194.96 388.88 196.04 387.05 C 226.09 342.93 256.33 298.94 286.37 254.82 Z" />
        <path fill="#e9f1f4" opacity="1.00"
            d=" M 297.54 318.73 C 308.96 316.34 321.82 318.41 330.84 326.18 C 342.35 336.02 344.99 352.82 341.94 367.02 C 339.74 377.92 332.14 387.72 321.65 391.74 C 308.29 396.86 291.66 395.11 280.98 385.10 C 273.87 378.40 270.41 368.60 270.02 358.99 C 269.49 349.37 271.47 339.25 277.33 331.42 C 282.16 324.84 289.58 320.37 297.54 318.73 M 304.30 339.40 C 299.50 341.46 298.43 347.33 298.01 351.98 C 297.70 358.06 297.56 364.74 300.85 370.12 C 302.82 373.45 307.85 374.43 310.74 371.72 C 314.23 368.52 314.74 363.42 315.11 358.98 C 315.29 353.67 315.20 348.05 312.79 343.20 C 311.34 340.10 307.63 338.09 304.30 339.40 Z" />
    </g>
</svg>
