<?xml version="1.0" encoding="UTF-8" ?>
<svg width="256" height="256" viewBox="0 0 256 256" version="1.1"
    xmlns="http://www.w3.org/2000/svg">
    <g id="#000000ff">
        <path fill="#000000" opacity="1.00"
            d=" M 124.86 0.00 L 130.97 0.00 C 146.61 0.78 161.94 7.01 173.46 17.65 C 185.46 28.55 193.35 43.89 195.07 60.02 C 196.86 75.71 192.90 91.98 184.03 105.06 C 175.41 117.99 162.18 127.76 147.28 132.17 C 131.13 137.04 113.15 135.54 98.07 127.97 C 84.91 121.47 74.01 110.55 67.50 97.40 C 60.81 84.02 58.86 68.39 61.91 53.76 C 65.03 38.51 73.70 24.52 85.86 14.82 C 96.87 5.90 110.75 0.79 124.86 0.00 Z" />
        <path fill="#000000" opacity="1.00"
            d=" M 52.50 171.43 C 69.95 157.20 92.49 149.51 114.99 150.00 C 131.74 150.43 148.78 148.57 165.23 152.59 C 189.91 158.31 211.76 174.42 225.23 195.79 C 235.26 211.59 240.69 230.33 240.42 249.05 C 240.35 252.51 237.48 255.14 234.31 256.00 L 21.92 256.00 C 18.61 255.31 15.64 252.56 15.57 249.03 C 15.01 219.28 29.30 189.94 52.50 171.43 Z" />
    </g>
</svg>
