<svg xmlns="http://www.w3.org/2000/svg" viewBox="0 0 512 512" id="vector">
    <path id="path"
        d="M 292.48 512 L 219.52 512 L 190.16 450 L 165.391 439.727 L 100.785 462.816 L 49.184 411.215 L 72.273 346.609 L 62 321.84 L 0 292.48 L 0 219.52 L 62 190.16 L 72.273 165.391 L 49.184 100.785 L 100.785 49.184 L 165.426 72.289 L 190.145 62.047 L 219.52 0 L 292.48 0 L 321.855 62.047 L 346.574 72.289 L 411.215 49.184 L 462.816 100.785 L 439.727 165.391 L 450 190.16 L 512 219.52 L 512 292.48 L 450 321.84 L 439.727 346.609 L 462.816 411.215 L 411.215 462.816 L 346.609 439.727 L 321.84 450 Z M 292.48 512"
        fill="#32bea6" />
    <path id="path_1"
        d="M 320 352 L 192 352 L 192 240 L 125.215 240 L 256 87.426 L 386.785 240 L 320 240 Z M 320 352"
        fill="#ffffff" />
    <path id="path_2" d="M 288 384 L 320 384 L 320 416 L 288 416 Z M 288 384" fill="#43887d" />
    <path id="path_3" d="M 192 384 L 224 384 L 224 416 L 192 416 Z M 192 384" fill="#43887d" />
</svg>
