<svg xmlns="http://www.w3.org/2000/svg" viewBox="0 0 486 486" id="vector">
    <path id="path"
        d="M 298.4 424.7 L 298.4 438.9 C 298.4 450.2 290.1 459.6 279.3 461.2 L 275.8 474.1 C 273.9 481.1 267.6 486 260.3 486 L 225.6 486 C 218.3 486 212 481.1 210.1 474.1 L 206.7 461.2 C 195.8 459.5 187.5 450.2 187.5 438.8 L 187.5 424.6 C 187.5 417 193.6 410.9 201.2 410.9 L 284.7 410.9 C 292.3 411 298.4 417.1 298.4 424.7 Z M 362.7 233.3 C 362.7 265.6 349.9 294.9 329.1 316.4 C 313.3 332.8 303.1 353.7 299.7 376 C 298.2 385.6 289.9 392.7 280.1 392.7 L 205.8 392.7 C 196.1 392.7 187.7 385.7 186.3 376.1 C 182.8 353.8 172.5 332.6 156.7 316.3 C 136.3 295.1 123.6 266.3 123.3 234.6 C 122.6 168 175.6 114.1 242.2 113.6 C 308.7 113.1 362.7 166.9 362.7 233.3 Z M 256.5 160.8 C 256.5 153.4 250.5 147.3 243 147.3 C 195.4 147.3 156.6 186 156.6 233.7 C 156.6 241.1 162.6 247.2 170.1 247.2 C 177.5 247.2 183.6 241.2 183.6 233.7 C 183.6 200.9 210.3 174.3 243 174.3 C 250.5 174.3 256.5 168.3 256.5 160.8 Z M 243 74.3 C 250.4 74.3 256.5 68.3 256.5 60.8 L 256.5 13.5 C 256.5 6.1 250.5 0 243 0 C 235.5 0 229.5 6 229.5 13.5 L 229.5 60.8 C 229.5 68.3 235.6 74.3 243 74.3 Z M 84.1 233.2 C 84.1 225.8 78.1 219.7 70.6 219.7 L 23.3 219.7 C 15.9 219.7 9.8 225.7 9.8 233.2 C 9.8 240.6 15.8 246.7 23.3 246.7 L 70.6 246.7 C 78.1 246.7 84.1 240.7 84.1 233.2 Z M 462.7 219.7 L 415.4 219.7 C 408 219.7 401.9 225.7 401.9 233.2 C 401.9 240.6 407.9 246.7 415.4 246.7 L 462.7 246.7 C 470.1 246.7 476.2 240.7 476.2 233.2 C 476.2 225.8 470.2 219.7 462.7 219.7 Z M 111.6 345.6 L 78.1 379.1 C 72.8 384.4 72.8 392.9 78.1 398.2 C 80.7 400.8 84.2 402.1 87.6 402.1 C 91 402.1 94.5 400.8 97.1 398.2 L 130.6 364.7 C 135.9 359.4 135.9 350.9 130.6 345.6 C 125.4 340.3 116.8 340.3 111.6 345.6 Z M 364.9 124.8 C 368.3 124.8 371.8 123.5 374.4 120.9 L 407.9 87.4 C 413.2 82.1 413.2 73.6 407.9 68.3 C 402.6 63 394.1 63 388.8 68.3 L 355.3 101.8 C 350 107.1 350 115.6 355.3 120.9 C 358 123.5 361.4 124.8 364.9 124.8 Z M 111.6 120.8 C 114.2 123.4 117.7 124.7 121.1 124.7 C 124.5 124.7 128 123.4 130.6 120.8 C 135.9 115.5 135.9 107 130.6 101.7 L 97.1 68.2 C 91.8 62.9 83.3 62.9 78 68.2 C 72.7 73.5 72.7 82 78 87.3 L 111.6 120.8 Z M 374.4 345.6 C 369.1 340.3 360.6 340.3 355.3 345.6 C 350 350.9 350 359.4 355.3 364.7 L 388.8 398.2 C 391.4 400.8 394.9 402.1 398.3 402.1 C 401.7 402.1 405.2 400.8 407.8 398.2 C 413.1 392.9 413.1 384.4 407.8 379.1 L 374.4 345.6 Z"
        fill="#32bea6" />
</svg>
