<svg xmlns="http://www.w3.org/2000/svg" viewBox="0 0 249 249" id="vector">
    <path id="path"
        d="M 7.079 214.851 L 32.984 241.127 C 42.52 250.801 58.09 250.909 67.761 241.379 L 124.32 185.618 L 180.059 242.166 C 189.601 251.84 205.171 251.948 214.839 242.412 L 241.104 216.525 C 250.778 206.989 250.892 191.419 241.35 181.739 L 185.608 125.192 L 242.173 69.438 C 251.84 59.902 251.96 44.332 242.412 34.652 L 216.52 8.375 C 206.979 -1.292 191.409 -1.407 181.741 8.123 L 125.173 63.884 L 69.433 7.331 C 59.891 -2.337 44.32 -2.451 34.65 7.079 L 8.388 32.971 C -1.286 42.513 -1.403 58.077 8.136 67.757 L 63.881 124.31 L 7.331 180.077 C -2.343 189.607 -2.46 205.183 7.079 214.851 Z"
        fill="#fa5353" />
</svg>
